<svg width="50" height="50" viewBox="0 0 50 50" fill="none" xmlns="http://www.w3.org/2000/svg">
<circle cx="25" cy="25" r="25" fill="#FCFCFC"/>
<ellipse cx="25" cy="34.75" rx="7" ry="6.75" fill="#575757"/>
<path d="M21.8107 20.4453L21.779 20.4348L21.7587 20.4213L21.7524 20.4186L21.7514 20.4181C21.7452 20.4155 21.7339 20.4107 21.7223 20.4051C21.7123 20.4003 21.6995 20.3937 21.6854 20.3851C21.6823 20.3834 21.6794 20.3817 21.6769 20.3801C21.6746 20.3788 21.6725 20.3775 21.6705 20.3763C21.6671 20.3741 21.664 20.3721 21.6616 20.3705L21.66 20.3694L21.6226 20.3569L21.5942 20.3286C21.5918 20.327 21.5892 20.3251 21.5865 20.3232C21.5824 20.3202 21.5771 20.3162 21.5712 20.3114C21.5692 20.3097 21.5669 20.3079 21.5645 20.3058L17.7755 17.2779L17.7647 17.2693L17.755 17.2596L17.7365 17.2412C17.7289 17.2351 17.7223 17.2294 17.7167 17.2244C17.7062 17.2149 17.6969 17.2056 17.6928 17.2015C17.6921 17.2007 17.6914 17.2001 17.6909 17.1995L17.6792 17.1918L17.6617 17.1743C17.6509 17.1635 17.6419 17.1532 17.6356 17.1457C17.6296 17.1387 17.6241 17.1318 17.6205 17.1273L17.6199 17.1266L17.6126 17.1176L17.5975 17.1025L17.5837 17.0819C17.5828 17.0806 17.5815 17.0788 17.5732 17.0684L17.5721 17.067C17.5646 17.0577 17.551 17.0407 17.5371 17.0199C17.5204 16.9949 17.5085 16.9711 17.503 16.96L17.502 16.9581C17.4991 16.9522 17.4975 16.9493 17.497 16.9483L17.4796 16.9222L17.4708 16.8961L17.467 16.8883C17.4644 16.8832 17.4596 16.8735 17.4548 16.8632C17.4499 16.8526 17.4436 16.8379 17.4378 16.8206L17.4145 16.7508C17.4041 16.7198 17.3994 16.6908 17.3976 16.6799L17.3973 16.6779C17.3969 16.6759 17.3967 16.6744 17.3965 16.6732C17.3828 16.6286 17.3793 16.5826 17.3784 16.5534C17.3784 16.553 17.3783 16.5526 17.3782 16.5522C17.3739 16.5336 17.3705 16.5111 17.3705 16.4854V6.78331C17.3705 6.2103 17.833 5.75 18.4059 5.75H31.5552C32.1281 5.75 32.5906 6.2103 32.5906 6.78331V16.4699C32.5906 16.4701 32.5906 16.4704 32.5906 16.4708C32.5906 16.4764 32.5909 16.5024 32.5862 16.5305C32.5845 16.5406 32.5824 16.5501 32.58 16.5592C32.5786 16.5715 32.5771 16.5814 32.5761 16.588L32.576 16.5885L32.575 16.5948V16.6269L32.5645 16.6584C32.5643 16.6595 32.5641 16.6608 32.5638 16.6624L32.5635 16.6644C32.5617 16.6753 32.557 16.7043 32.5466 16.7353L32.3095 16.6561L32.5466 16.7353L32.5233 16.8051C32.5229 16.8062 32.5225 16.8075 32.522 16.8088C32.5157 16.8279 32.5031 16.866 32.4793 16.9079C32.4606 16.9502 32.4372 16.9849 32.4267 17.0004C32.4257 17.0019 32.4248 17.0032 32.424 17.0044C32.4232 17.0056 32.4222 17.007 32.4212 17.0086C32.4109 17.0241 32.3903 17.0552 32.3646 17.0846C32.3449 17.1115 32.3258 17.132 32.3118 17.1464C32.2839 17.1808 32.253 17.2064 32.23 17.2232C32.2178 17.2366 32.1994 17.2546 32.1743 17.2715L28.4045 20.2901C28.402 20.2923 28.3998 20.2942 28.3977 20.2959C28.3918 20.3007 28.3865 20.3047 28.3823 20.3077C28.3785 20.3105 28.3747 20.3131 28.3716 20.3152C28.3373 20.3455 28.3026 20.3646 28.2713 20.3778C28.2483 20.3923 28.2139 20.4115 28.1712 20.4259C28.1543 20.4339 28.1319 20.4437 28.1037 20.4531L28.0946 20.4561L28.0854 20.4584C28.0857 20.4583 28.0828 20.4592 28.0658 20.4655L28.0632 20.4665C28.0527 20.4704 28.0345 20.4772 28.0134 20.4835C28.0064 20.4862 28 20.4884 27.9943 20.4901C27.9892 20.4917 27.9843 20.4931 27.9801 20.4942L27.9629 20.5028L27.9259 20.509L27.9216 20.5097C27.8764 20.5172 27.8124 20.5279 27.7372 20.5279H26.0043V21.1823C27.6892 21.6345 28.9281 23.1751 28.9281 24.9932C28.9281 25.0226 28.9273 25.0512 28.9259 25.079C32.6426 26.6372 35.25 30.271 35.25 34.517C35.25 40.1543 30.6507 44.7406 25 44.7406C19.3493 44.7406 14.75 40.1543 14.75 34.517C14.75 30.28 17.3485 26.6385 21.0429 25.0943C21.0416 25.0666 21.0408 25.038 21.0408 25.0087C21.0408 23.1895 22.2807 21.657 23.9646 21.1986V20.5434H22.2317C22.1713 20.5434 22.1107 20.5345 22.0666 20.528C22.0632 20.5275 22.0599 20.527 22.0568 20.5265C22.0127 20.5223 21.9746 20.5087 21.951 20.4984C21.9203 20.4903 21.877 20.4773 21.8324 20.4551C21.8242 20.451 21.8212 20.4495 21.8184 20.4483C21.8163 20.4474 21.8141 20.4465 21.8107 20.4453ZM21.6491 20.362C21.6486 20.3617 21.6487 20.3618 21.6493 20.3621L21.6491 20.362ZM32.2523 17.1962L32.2518 17.1969C32.2528 17.1956 32.253 17.1953 32.2523 17.1962ZM26.624 18.469V7.80886H23.376V18.469H26.624ZM19.4802 7.80886V15.9696L21.313 17.4319V7.80886H19.4802ZM28.6948 7.80886V17.4397L30.5276 15.9773V7.80886H28.6948ZM25 23.1182C24.1463 23.1182 23.4249 23.685 23.1938 24.4587C23.7804 24.3531 24.3869 24.2934 25 24.2934C25.6172 24.2934 26.219 24.3474 26.8053 24.4556C26.5732 23.6835 25.8525 23.1182 25 23.1182ZM25 26.36C20.4874 26.36 16.8207 30.0179 16.8207 34.517C16.8207 39.0161 20.4874 42.674 25 42.674C29.5126 42.674 33.1792 39.0161 33.1792 34.517C33.1792 30.0179 29.5126 26.36 25 26.36Z" fill="#575757" stroke="#575757" stroke-width="0.5"/>
</svg>
