<svg width="50" height="50" viewBox="0 0 50 50" fill="none" xmlns="http://www.w3.org/2000/svg">
<circle cx="25" cy="25" r="25" fill="#FCFCFC"/>
<path fill-rule="evenodd" clip-rule="evenodd" d="M36.6089 21.1245L31.4207 15.9362C29.9759 14.4914 30.2094 11.9781 32.2525 12.0003V12.0003C33.7424 11.9936 35.1739 12.5786 36.2328 13.6267C37.2916 14.6748 37.8912 16.1003 37.8997 17.5901C37.8917 18.88 37.4352 20.1269 36.6086 21.117C36.6068 21.1192 36.6069 21.1225 36.6089 21.1245V21.1245ZM35.5487 22.3007C35.4189 22.4308 35.2083 22.4309 35.0784 22.3009L27.6062 14.8279C27.4763 14.698 27.4764 14.4874 27.6064 14.3576V14.3576C27.7363 14.2279 27.9466 14.2281 28.0764 14.3578L35.5485 21.8308C35.6783 21.9606 35.6784 22.1709 35.5487 22.3007V22.3007ZM12.4257 26.7725C12.1081 26.7812 11.7922 26.7228 11.4988 26.6011C11.2053 26.4794 10.9408 26.2971 10.7226 26.0662C10.2818 25.6382 10.0234 25.0563 10.0015 24.4423V24.4423C9.95873 23.2416 11.1663 22.5087 12.2546 21.9998L16.9596 19.7997V19.7997C18.2098 19.215 19.3297 20.8124 18.3537 21.7884L14.0759 26.0662C13.8655 26.2918 13.6105 26.4711 13.327 26.5927C13.0435 26.7143 12.7378 26.7755 12.4293 26.7725H12.4257ZM16.6611 31.0688C16.3524 31.0719 16.0464 31.0106 15.7628 30.8888C15.4791 30.7671 15.2239 30.5875 15.0135 30.3616C14.5615 29.9088 14.3076 29.2952 14.3076 28.6554C14.3076 28.0155 14.5615 27.4019 15.0135 26.9491L24.6039 17.3587C25.545 16.4177 27.0707 16.4177 28.0117 17.3587V17.3587C28.9546 18.3016 28.9525 19.8309 28.0071 20.7712L24.0422 24.7145L18.3642 30.3616C18.146 30.5926 17.8816 30.7751 17.5881 30.8969C17.2946 31.0188 16.9787 31.0774 16.6611 31.0688ZM20.9565 35.3656C20.9565 35.3649 20.9559 35.3642 20.9551 35.3643C20.647 35.3668 20.3417 35.3055 20.0586 35.184C19.775 35.0625 19.5197 34.8833 19.3089 34.6579C18.8579 34.2044 18.6047 33.5908 18.6047 32.9512C18.6047 32.3116 18.8579 31.698 19.3089 31.2445L28.8993 21.6542C29.8404 20.713 31.3662 20.7128 32.3076 21.6537V21.6537C33.2511 22.5968 33.2492 24.1268 32.3034 25.0675L22.777 34.5423L22.6596 34.6606C22.4411 34.8911 22.1765 35.0731 21.8831 35.1948C21.5901 35.3163 21.2749 35.375 20.9578 35.367C20.9571 35.3669 20.9565 35.3663 20.9565 35.3656V35.3656ZM27.7076 37.3563C27.172 38.4521 26.4276 39.6691 25.2081 39.6479V39.6479C24.5854 39.6371 23.99 39.3901 23.5425 38.9569C23.1251 38.4864 22.8946 37.8792 22.8946 37.2502C22.8946 36.6212 23.1251 36.014 23.5425 35.5435L24.1305 34.9555L28.0386 30.9075C29.0736 29.8354 30.8048 31.0662 30.1322 32.3959V32.3959L27.7076 37.3563Z" fill="black"/>
</svg>
