<svg width="50" height="50" viewBox="0 0 50 50" fill="none" xmlns="http://www.w3.org/2000/svg">
<circle cx="24.9999" cy="25" r="24.5" fill="#FCFCFC" stroke="black"/>
<path d="M16.6653 30.5688L16.6745 30.569C16.9218 30.5757 17.1678 30.5301 17.3963 30.4352C17.6248 30.3403 17.8307 30.1982 18.0006 30.0183L18.006 30.0126L18.0115 30.0071L23.6896 24.3599L27.6544 20.4167C28.4037 19.6715 28.4053 18.4595 27.6581 17.7123C26.9123 16.9665 25.7032 16.9665 24.9574 17.7123L15.3673 27.3024L16.6653 30.5688ZM16.6653 30.5688L16.656 30.5689M16.6653 30.5688L16.656 30.5689M16.656 30.5689C16.4168 30.5712 16.1797 30.5237 15.9599 30.4294C15.7401 30.335 15.5424 30.1959 15.3794 30.0208L15.3734 30.0145M16.656 30.5689L15.3734 30.0145M15.3734 30.0145L15.3673 30.0083M15.3734 30.0145L15.3673 30.0083M15.3673 30.0083C15.0088 29.6493 14.8075 29.1627 14.8075 28.6554M15.3673 30.0083L14.8075 28.6554M14.8075 28.6554C14.8075 28.1481 15.0087 27.6616 15.367 27.3027L14.8075 28.6554ZM37.3996 17.59C37.3929 18.5801 37.0958 19.5422 36.5511 20.3597L31.7741 15.5827C31.1563 14.9649 30.9171 14.134 31.0219 13.4996C31.0734 13.188 31.2036 12.942 31.3898 12.7763C31.5717 12.6144 31.844 12.4959 32.247 12.5003L32.2525 12.0003L32.2547 12.5003C33.6121 12.4942 34.9163 13.0272 35.881 13.982C36.8449 14.9362 37.3911 16.2338 37.3996 17.59ZM12.4257 26.2725V26.2723L12.4119 26.2727C12.1647 26.2795 11.9187 26.234 11.6903 26.1393C11.4618 26.0445 11.2559 25.9026 11.086 25.7228L11.0786 25.715L11.0709 25.7075C10.7226 25.3693 10.5184 24.9096 10.5011 24.4245C10.4867 24.019 10.6751 23.6666 11.0419 23.3301C11.416 22.9868 11.9325 22.7024 12.4663 22.4528L17.1713 20.2526C17.9146 19.905 18.5803 20.8547 18.0001 21.4349L13.7223 25.7126L13.7162 25.7188L13.7102 25.7251C13.5472 25.9 13.3495 26.0389 13.1298 26.1332C12.9101 26.2274 12.6732 26.2749 12.4341 26.2725L12.4341 26.2725H12.4292H12.4257ZM19.6741 34.3164L19.6688 34.3108L19.6634 34.3053C19.3055 33.9455 19.1047 33.4587 19.1047 32.9512C19.1047 32.444 19.3053 31.9574 19.6629 31.5976C19.6631 31.5974 19.6632 31.5973 19.6634 31.5971L29.2528 22.0077C29.9987 21.2618 31.208 21.2617 31.9541 22.0074C32.7019 22.7548 32.7004 23.9674 31.9507 24.713L22.4244 34.1877L22.4221 34.19L22.3046 34.3084L22.3045 34.3083L22.2966 34.3166C22.1263 34.4963 21.9202 34.6381 21.6915 34.733C21.4766 34.8221 21.2464 34.8678 21.014 34.8677C20.9933 34.8653 20.9723 34.8641 20.9509 34.8643C20.7119 34.8663 20.4752 34.8187 20.2555 34.7245C20.0355 34.6302 19.8376 34.4912 19.6741 34.3164ZM29.6859 32.1702L30.1321 32.3959L29.6829 32.1763L27.2583 37.1368C26.9943 37.6768 26.7004 38.1994 26.3471 38.5816C26.0004 38.9566 25.6364 39.1553 25.2167 39.148C24.7271 39.1395 24.2587 38.9476 23.9039 38.6108C23.5756 38.2338 23.3945 37.7506 23.3945 37.2502C23.3945 36.7482 23.5768 36.2635 23.9071 35.8859L24.484 35.309L24.4841 35.3091L24.4902 35.3028L28.3983 31.2547C29.0349 30.5953 30.0996 31.3523 29.6859 32.1702Z" fill="#575757" stroke="black"/>
</svg>
