<svg width="50" height="50" viewBox="0 0 50 50" fill="none" xmlns="http://www.w3.org/2000/svg">
<circle cx="25" cy="25" r="25" fill="#FCFCFC"/>
<path d="M36.6112 24.375C36.855 24.375 37.0987 24.375 37.3425 24.375C37.1645 21.7216 36.1132 19.2018 34.3525 17.2087L29.705 21.8562C31.6312 23.4957 34.0818 24.3894 36.6112 24.375ZM28.5756 20.6456L33.2231 15.9981C31.2312 14.2345 28.7112 13.1803 26.0569 13C26.0569 13.2519 26.0569 13.5037 26.0569 13.7556C26.0463 16.2795 26.9398 18.7236 28.5756 20.6456ZM21.8075 27.4137L24.0337 25.1875L15.99 17.1519C14.2094 19.1708 13.1567 21.7282 13 24.4156C13.26 24.4156 13.5281 24.4156 13.8125 24.4156C16.7518 24.4182 19.5912 25.483 21.8075 27.4137ZM36.6112 26C33.6537 25.9983 30.7977 24.9211 28.5756 22.9694L26.3413 25.1875L34.3769 33.2312C36.1608 31.1944 37.2156 28.6216 37.375 25.9187C37.1313 25.9187 36.8794 25.9594 36.6356 25.9594L36.6112 26ZM13.8125 26C13.5525 26 13.2925 26 13 26C13.1747 28.6735 14.2256 31.215 15.99 33.2312L20.6537 28.5675C18.7514 26.925 16.3258 26.0147 13.8125 26ZM33.2231 34.385L25.1875 26.3413L22.9613 28.5675C24.9067 30.7779 25.9862 33.6179 26 36.5625C26 36.8306 26 37.0987 26 37.375C28.6732 37.2094 31.215 36.1573 33.2231 34.385ZM21.8075 29.7213L17.1437 34.385C19.147 36.1396 21.6697 37.1898 24.3263 37.375C24.3263 37.115 24.3669 36.855 24.3669 36.5625C24.3545 34.0503 23.4471 31.6247 21.8075 29.7213ZM17.1437 15.9981L25.1875 24.0337L27.4219 21.7994C25.4642 19.5796 24.3812 16.7234 24.375 13.7638C24.375 13.5119 24.375 13.2519 24.4156 13C21.7269 13.1682 19.1697 14.2225 17.1437 15.9981Z" fill="#575757"/>
</svg>
