<svg width="50" height="50" viewBox="0 0 50 50" fill="none" xmlns="http://www.w3.org/2000/svg">
    <circle cx="25" cy="25" r="25" fill="#FCFCFC"/>
    <path d="M11.4377 10.5C11.3803 10.4999 11.3233 10.5119 11.2702 10.5354C11.217 10.5589 11.1687 10.5934 11.128 10.6369C11.0874 10.6805 11.0552 10.7322 11.0333 10.7892C11.0114 10.8461 11.0001 10.9072 11.0002 10.9688V40.0312C11 40.1529 11.0439 40.2699 11.1227 40.3575C11.1636 40.4027 11.2126 40.4386 11.2667 40.4631C11.3208 40.4876 11.379 40.5001 11.4377 40.5H38.5627C38.6222 40.5 38.681 40.4871 38.7356 40.4619C38.7902 40.4368 38.8395 40.4 38.8804 40.3538C38.9574 40.2666 39.0003 40.1512 39.0002 40.0312V10.9688C39.0002 10.846 38.9553 10.7282 38.8751 10.6406C38.8344 10.5961 38.7858 10.5607 38.7322 10.5366C38.6785 10.5125 38.6209 10.5 38.5627 10.5H11.4377ZM14.9237 11.4375H35.0767C34.786 11.8403 34.6273 12.3346 34.6252 12.8438C34.6252 14.1328 35.6096 15.1875 36.8127 15.1875C37.288 15.1852 37.7493 15.0152 38.1252 14.7038V36.2963C37.7493 35.9848 37.288 35.8148 36.8127 35.8125C36.2332 35.8145 35.6778 36.062 35.268 36.5012C34.8582 36.9403 34.6271 37.5353 34.6252 38.1562C34.6252 38.6859 34.7976 39.1688 35.0767 39.5625H14.9237C15.2145 39.1597 15.3731 38.6654 15.3752 38.1562C15.3752 36.8672 14.3909 35.8125 13.1877 35.8125C12.7125 35.8148 12.2512 35.9848 11.8752 36.2963V14.7038C12.2427 15.0038 12.6934 15.1875 13.1877 15.1875C14.3909 15.1875 15.3752 14.1328 15.3752 12.8438C15.3731 12.3346 15.2145 11.8403 14.9237 11.4375ZM19.3127 13.7813C18.5935 13.7813 18.0002 14.4169 18.0002 15.1875C18.0002 15.9581 18.5935 16.5938 19.3127 16.5938H30.6877C31.0349 16.5906 31.367 16.4414 31.6125 16.1784C31.858 15.9153 31.9973 15.5595 32.0002 15.1875C32 14.9999 31.9642 14.8143 31.8952 14.6419C31.7944 14.3878 31.6263 14.1708 31.4117 14.0179C31.1972 13.8649 30.9455 13.7827 30.6877 13.7813H19.3127ZM15.3822 14.7113C15.3782 14.7118 15.3741 14.7124 15.37 14.7131C15.3022 14.7134 15.2354 14.7306 15.1749 14.7632C15.1144 14.7959 15.0618 14.8432 15.0212 14.9014C14.9807 14.9596 14.9533 15.027 14.9412 15.0985C14.9292 15.1699 14.9328 15.2434 14.9517 15.3131V16.9688C14.9517 17.0931 14.9978 17.2123 15.0799 17.3002C15.1619 17.3881 15.2732 17.4375 15.3892 17.4375C15.5053 17.4375 15.6166 17.3881 15.6986 17.3002C15.7807 17.2123 15.8267 17.0931 15.8267 16.9688V16.3313L18.1437 18.8044C18.0597 18.99 18.0154 19.1934 18.0142 19.3997C18.0142 20.1713 18.6066 20.8059 19.3267 20.8059C20.046 20.8059 20.6392 20.1713 20.6392 19.3997C20.6392 18.6291 20.046 17.9934 19.3267 17.9934C19.1229 17.9934 18.9312 18.0478 18.7589 18.1378L16.4349 15.6563H17.1392C17.2553 15.6563 17.3666 15.6069 17.4486 15.519C17.5307 15.431 17.5767 15.3118 17.5767 15.1875C17.5767 15.0632 17.5307 14.944 17.4486 14.856C17.3666 14.7681 17.2553 14.7188 17.1392 14.7188H15.4689C15.44 14.7131 15.4116 14.7106 15.3822 14.7113ZM34.6235 14.7113C34.6012 14.7119 34.579 14.7144 34.557 14.7188H32.8805C32.7645 14.7188 32.6532 14.7681 32.5711 14.856C32.4891 14.944 32.443 15.0632 32.443 15.1875C32.443 15.3118 32.4891 15.431 32.5711 15.519C32.6532 15.6069 32.7645 15.6563 32.8805 15.6563H33.5849L31.2582 18.1369C31.0825 18.0433 30.8892 17.994 30.693 17.9925C29.9729 17.9925 29.3805 18.6281 29.3805 19.3988C29.3805 20.1703 29.9729 20.805 30.693 20.805C31.4122 20.805 32.0055 20.1703 32.0055 19.3988C32.0055 19.1859 31.9556 18.9863 31.8751 18.8034L34.193 16.3303V16.9688C34.193 17.0931 34.2391 17.2123 34.3211 17.3002C34.4032 17.3881 34.5145 17.4375 34.6305 17.4375C34.7465 17.4375 34.8578 17.3881 34.9399 17.3002C35.0219 17.2123 35.068 17.0931 35.068 16.9688V15.3066C35.0831 15.2465 35.0869 15.1839 35.0793 15.1223C35.0716 15.0606 35.0525 15.0013 35.0232 14.9476C34.9939 14.894 34.9549 14.8471 34.9085 14.8097C34.8621 14.7724 34.8092 14.7453 34.753 14.73C34.7109 14.7168 34.6673 14.7105 34.6235 14.7113ZM19.3127 14.7188C19.563 14.7188 19.7502 14.9194 19.7502 15.1875C19.7502 15.4556 19.563 15.6563 19.3127 15.6563C19.2549 15.6578 19.1974 15.6467 19.1436 15.6237C19.0899 15.6007 19.0411 15.5662 19.0002 15.5224C18.9593 15.4786 18.9271 15.4263 18.9056 15.3687C18.8841 15.3111 18.8738 15.2495 18.8752 15.1875C18.8738 15.1255 18.8841 15.0639 18.9056 15.0063C18.9271 14.9487 18.9593 14.8964 19.0002 14.8526C19.0411 14.8088 19.0899 14.7743 19.1436 14.7513C19.1974 14.7283 19.2549 14.7172 19.3127 14.7188ZM30.6877 14.7188C30.938 14.7188 31.1252 14.9194 31.1252 15.1875C31.1267 15.2495 31.1164 15.3111 31.0949 15.3687C31.0734 15.4263 31.0412 15.4786 31.0003 15.5224C30.9594 15.5662 30.9106 15.6007 30.8569 15.6237C30.8031 15.6467 30.7456 15.6578 30.6877 15.6563C30.6299 15.6578 30.5724 15.6467 30.5186 15.6237C30.4649 15.6007 30.4161 15.5662 30.3752 15.5224C30.3343 15.4786 30.3021 15.4263 30.2806 15.3687C30.2591 15.3111 30.2488 15.2495 30.2502 15.1875C30.2502 14.9194 30.4375 14.7188 30.6877 14.7188ZM15.3752 18C14.656 18 14.0627 18.6356 14.0627 19.4063V31.5938C14.0627 32.3644 14.656 33 15.3752 33C16.0945 33 16.6877 32.3644 16.6877 31.5938V19.4063C16.6877 18.6356 16.0945 18 15.3752 18ZM34.6252 18C33.906 18 33.3127 18.6356 33.3127 19.4063V31.5938C33.3127 32.3644 33.906 33 34.6252 33C35.3445 33 35.9377 32.3644 35.9377 31.5938V19.4063C35.9377 18.6356 35.3445 18 34.6252 18ZM19.3267 18.93C19.5735 18.93 19.7642 19.1344 19.7642 19.3988C19.7642 19.6631 19.5735 19.8675 19.3267 19.8675C19.2691 19.8684 19.2118 19.8569 19.1583 19.8336C19.1049 19.8104 19.0563 19.7759 19.0155 19.7322C18.9748 19.6885 18.9426 19.6364 18.9209 19.5792C18.8992 19.5219 18.8884 19.4606 18.8892 19.3988C18.8892 19.1344 19.08 18.93 19.3267 18.93ZM30.693 18.93C30.9397 18.93 31.1305 19.1344 31.1305 19.3988C31.1305 19.6631 30.9397 19.8675 30.693 19.8675C30.6353 19.8684 30.5781 19.8569 30.5246 19.8336C30.4711 19.8104 30.4226 19.7759 30.3818 19.7322C30.341 19.6885 30.3088 19.6364 30.2871 19.5792C30.2654 19.5219 30.2547 19.4606 30.2555 19.3988C30.2555 19.1344 30.4462 18.93 30.693 18.93ZM15.3752 18.9375C15.6255 18.9375 15.8127 19.1381 15.8127 19.4063C15.8127 19.6744 15.6255 19.875 15.3752 19.875C15.3174 19.8765 15.2599 19.8655 15.2061 19.8425C15.1524 19.8195 15.1036 19.785 15.0627 19.7411C15.0218 19.6973 14.9896 19.645 14.9681 19.5874C14.9466 19.5299 14.9363 19.4682 14.9377 19.4063C14.9363 19.3443 14.9466 19.2826 14.9681 19.2251C14.9896 19.1675 15.0218 19.1152 15.0627 19.0714C15.1036 19.0275 15.1524 18.993 15.2061 18.97C15.2599 18.947 15.3174 18.936 15.3752 18.9375ZM34.6252 18.9375C34.8755 18.9375 35.0627 19.1381 35.0627 19.4063C35.0627 19.6744 34.8755 19.875 34.6252 19.875C34.5674 19.8765 34.5099 19.8655 34.4561 19.8425C34.4024 19.8195 34.3536 19.785 34.3127 19.7411C34.2718 19.6973 34.2396 19.645 34.2181 19.5874C34.1966 19.5299 34.1863 19.4682 34.1877 19.4063C34.1863 19.3443 34.1966 19.2826 34.2181 19.2251C34.2396 19.1675 34.2718 19.1152 34.3127 19.0714C34.3536 19.0275 34.4024 18.993 34.4561 18.97C34.5099 18.947 34.5674 18.936 34.6252 18.9375ZM25.0002 20.3438C23.7245 20.3457 22.5015 20.8896 21.5993 21.8562C20.6972 22.8227 20.1896 24.1331 20.1877 25.5C20.1877 28.3425 22.3472 30.6562 25.0002 30.6562C27.6532 30.6562 29.8127 28.3425 29.8127 25.5C29.8127 22.6575 27.6532 20.3438 25.0002 20.3438ZM19.3127 30.1875C18.5926 30.1875 18.0002 30.8222 18.0002 31.5938C18.0002 31.8122 18.0527 32.0184 18.1367 32.2031L15.8267 34.6697V34.0312C15.8275 33.9686 15.8164 33.9064 15.7943 33.8484C15.7722 33.7904 15.7395 33.7377 15.698 33.6935C15.6566 33.6492 15.6073 33.6144 15.553 33.5909C15.4988 33.5674 15.4407 33.5559 15.3822 33.5569C15.2665 33.5589 15.1562 33.6099 15.0755 33.6988C14.9949 33.7877 14.9503 33.9072 14.9517 34.0312V35.6784C14.9317 35.7471 14.9266 35.8198 14.937 35.8909C14.9474 35.962 14.9729 36.0296 15.0115 36.0884C15.0502 36.1472 15.101 36.1957 15.16 36.2301C15.2189 36.2646 15.2845 36.284 15.3516 36.2869C15.3882 36.2899 15.4249 36.288 15.461 36.2812H17.1392C17.2553 36.2812 17.3666 36.2319 17.4486 36.144C17.5307 36.056 17.5767 35.9368 17.5767 35.8125C17.5767 35.6882 17.5307 35.569 17.4486 35.481C17.3666 35.3931 17.2553 35.3438 17.1392 35.3438H16.434L18.758 32.8631C18.9269 32.9475 19.1141 33 19.3119 33C20.032 33 20.6244 32.3653 20.6244 31.5938C20.6244 30.8222 20.0329 30.1875 19.3127 30.1875ZM30.693 30.195C29.9729 30.195 29.3805 30.8297 29.3805 31.6012C29.3805 32.3719 29.9729 33.0075 30.693 33.0075C30.896 33.0075 31.0867 32.9522 31.2582 32.8631L33.5849 35.3438H32.8805C32.7645 35.3438 32.6532 35.3931 32.5711 35.481C32.4891 35.569 32.443 35.6882 32.443 35.8125C32.443 35.9368 32.4891 36.056 32.5711 36.144C32.6532 36.2319 32.7645 36.2812 32.8805 36.2812H34.5377C34.6164 36.3061 34.7 36.3067 34.779 36.2831C34.858 36.2594 34.9292 36.2125 34.9845 36.1476C35.0398 36.0827 35.0769 36.0024 35.0917 35.916C35.1064 35.8296 35.0982 35.7404 35.068 35.6588V34.0312C35.0687 33.9686 35.0577 33.9064 35.0356 33.8484C35.0135 33.7904 34.9807 33.7377 34.9393 33.6935C34.8978 33.6492 34.8485 33.6144 34.7943 33.5909C34.7401 33.5674 34.682 33.5559 34.6235 33.5569C34.5078 33.5589 34.3975 33.6099 34.3168 33.6988C34.2361 33.7877 34.1916 33.9072 34.193 34.0312V34.6697L31.8751 32.1966C31.9556 32.0147 32.0055 31.8141 32.0055 31.6012C32.0055 30.8297 31.4122 30.195 30.693 30.195ZM15.3752 31.125C15.6255 31.125 15.8127 31.3256 15.8127 31.5938C15.8127 31.8619 15.6255 32.0625 15.3752 32.0625C15.3174 32.064 15.2599 32.053 15.2061 32.03C15.1524 32.007 15.1036 31.9725 15.0627 31.9286C15.0218 31.8848 14.9896 31.8325 14.9681 31.7749C14.9466 31.7174 14.9363 31.6557 14.9377 31.5938C14.9377 31.3256 15.125 31.125 15.3752 31.125ZM19.3127 31.125C19.5595 31.125 19.7502 31.3294 19.7502 31.5938C19.7502 31.8581 19.5595 32.0625 19.3127 32.0625C19.2551 32.0634 19.1978 32.0519 19.1443 32.0286C19.0909 32.0054 19.0423 31.9709 19.0015 31.9272C18.9608 31.8835 18.9286 31.8314 18.9069 31.7742C18.8852 31.7169 18.8744 31.6556 18.8752 31.5938C18.8752 31.3294 19.066 31.125 19.3127 31.125ZM34.6252 31.125C34.8755 31.125 35.0627 31.3256 35.0627 31.5938C35.0627 31.8619 34.8755 32.0625 34.6252 32.0625C34.5674 32.064 34.5099 32.053 34.4561 32.03C34.4024 32.007 34.3536 31.9725 34.3127 31.9286C34.2718 31.8848 34.2396 31.8325 34.2181 31.7749C34.1966 31.7174 34.1863 31.6557 34.1877 31.5938C34.1877 31.3256 34.375 31.125 34.6252 31.125ZM30.693 31.1325C30.9397 31.1325 31.1305 31.3369 31.1305 31.6012C31.1305 31.8656 30.9397 32.07 30.693 32.07C30.6353 32.0709 30.5781 32.0594 30.5246 32.0361C30.4711 32.0129 30.4226 31.9784 30.3818 31.9347C30.341 31.891 30.3088 31.8389 30.2871 31.7817C30.2654 31.7244 30.2547 31.6631 30.2555 31.6012C30.2555 31.3369 30.4462 31.1325 30.693 31.1325ZM19.3127 34.4062C18.5935 34.4062 18.0002 35.0419 18.0002 35.8125C18.0002 36.5831 18.5935 37.2188 19.3127 37.2188H30.6877C31.0349 37.2156 31.367 37.0664 31.6125 36.8034C31.858 36.5403 31.9973 36.1845 32.0002 35.8125C32 35.6249 31.9642 35.4393 31.8952 35.2669C31.7944 35.0127 31.6263 34.7958 31.4117 34.6429C31.1972 34.4899 30.9455 34.4077 30.6877 34.4062H19.3127ZM19.3127 35.3438C19.563 35.3438 19.7502 35.5444 19.7502 35.8125C19.7502 36.0806 19.563 36.2812 19.3127 36.2812C19.2549 36.2828 19.1974 36.2717 19.1436 36.2487C19.0899 36.2257 19.0411 36.1912 19.0002 36.1474C18.9593 36.1036 18.9271 36.0513 18.9056 35.9937C18.8841 35.9361 18.8738 35.8745 18.8752 35.8125C18.8738 35.7505 18.8841 35.6889 18.9056 35.6313C18.9271 35.5737 18.9593 35.5214 19.0002 35.4776C19.0411 35.4338 19.0899 35.3993 19.1436 35.3763C19.1974 35.3533 19.2549 35.3422 19.3127 35.3438ZM30.6877 35.3438C30.938 35.3438 31.1252 35.5444 31.1252 35.8125C31.1267 35.8745 31.1164 35.9361 31.0949 35.9937C31.0734 36.0513 31.0412 36.1036 31.0003 36.1474C30.9594 36.1912 30.9106 36.2257 30.8569 36.2487C30.8031 36.2717 30.7456 36.2828 30.6877 36.2812C30.6299 36.2828 30.5724 36.2717 30.5186 36.2487C30.4649 36.2257 30.4161 36.1912 30.3752 36.1474C30.3343 36.1036 30.3021 36.0513 30.2806 35.9937C30.2591 35.9361 30.2488 35.8745 30.2502 35.8125C30.2502 35.5444 30.4375 35.3438 30.6877 35.3438Z" fill="#575757"/>
</svg>
