<svg width="50" height="50" viewBox="0 0 50 50" fill="none" xmlns="http://www.w3.org/2000/svg">
    <circle cx="25" cy="25" r="25" fill="#FCFCFC"/>
    <path d="M29.5593 17.4253H19.4393C18.6537 17.4253 18.0169 17.8726 18.0169 18.4244V19.5724C18.0169 20.1242 18.6537 20.5716 19.4393 20.5716H29.5593C30.3448 20.5716 30.9816 20.1242 30.9816 19.5724V18.4244C30.9816 17.8726 30.3448 17.4253 29.5593 17.4253Z" fill="#575757"/>
    <path d="M18.8699 16.6208C19.0566 16.5906 19.2474 16.5749 19.4389 16.574H29.5589C29.7504 16.5749 29.9412 16.5906 30.1278 16.6208L31.7257 15.0306C31.7976 14.9583 31.8356 14.8722 31.8347 14.784V11.4252C31.8347 11.3124 31.7709 11.2043 31.6574 11.1245C31.5439 11.0448 31.3899 11 31.2294 11H28.8084C28.6478 11 28.4939 11.0448 28.3804 11.1245C28.2669 11.2043 28.2031 11.3124 28.2031 11.4252V12.4626H26.3147V11.4252C26.3147 11.3124 26.2509 11.2043 26.1374 11.1245C26.0239 11.0448 25.8699 11 25.7094 11H23.2884C23.1278 11 22.9739 11.0448 22.8604 11.1245C22.7469 11.2043 22.6831 11.3124 22.6831 11.4252V12.4626H20.7644V11.4252C20.7644 11.3124 20.7006 11.2043 20.5871 11.1245C20.4736 11.0448 20.3197 11 20.1591 11H17.7381C17.5776 11 17.4236 11.0448 17.3101 11.1245C17.1966 11.2043 17.1328 11.3124 17.1328 11.4252V14.784C17.1319 14.8722 17.1699 14.9583 17.2418 15.0306L18.8699 16.6208Z" fill="#575757"/>
    <path d="M31.3853 28.2954L28.8613 21.4204H20.1334L17.6095 28.2954H31.3853Z" fill="#575757"/>
    <path d="M35.3947 31.3781H34.5776C34.5776 31.3356 34.5776 31.2889 34.5776 31.2463V30.1324C34.5776 29.8715 34.4305 29.6213 34.1685 29.4364C33.9065 29.2515 33.5508 29.1471 33.1795 29.146H15.8084C15.4371 29.1471 15.0814 29.2515 14.8194 29.4364C14.5574 29.6213 14.4103 29.8715 14.4103 30.1324V31.2463C14.4103 31.2889 14.4103 31.3356 14.4103 31.3781H13.6053C13.4447 31.3781 13.2908 31.4229 13.1773 31.5027C13.0638 31.5824 13 31.6906 13 31.8033V35.2345C13 35.3472 13.0638 35.4554 13.1773 35.5351C13.2908 35.6148 13.4447 35.6596 13.6053 35.6596H35.3947C35.5553 35.6596 35.7092 35.6148 35.8227 35.5351C35.9362 35.4554 36 35.3472 36 35.2345V31.8033C36 31.6906 35.9362 31.5824 35.8227 31.5027C35.7092 31.4229 35.5553 31.3781 35.3947 31.3781Z" fill="#575757"/>
</svg>
