<svg width="51" height="50" viewBox="0 0 51 50" fill="none" xmlns="http://www.w3.org/2000/svg">
<circle cx="25.0107" cy="25" r="25" fill="#FCFCFC"/>
<path d="M16.0394 42.2883L16.0724 42.5361L16.1697 42.5232L16.2322 42.4475L33.2949 21.7824L33.4 21.6551L33.3243 21.5085L32.0662 19.0731L38.7859 10.9343C39.0509 10.6133 39.2846 10.3291 39.4335 10.0283C39.5894 9.71323 39.6513 9.38459 39.5967 8.97453L39.5957 8.96656C39.5811 8.85669 39.5604 8.70045 39.4906 8.53917C39.4164 8.36771 39.2921 8.20035 39.0841 8.05304L39.0838 8.05281C38.6615 7.75479 38.2746 7.80629 38.024 7.83964L38.0174 7.84051C37.1314 7.95834 36.6918 8.48788 36.2137 9.06742C36.2136 9.06745 36.2136 9.06747 36.2136 9.06751L29.4805 17.2217L26.5828 16.7305L26.4403 16.7063L26.3483 16.8178L9.28553 37.4829L9.21612 37.567L9.23049 37.675L9.47831 37.6421C9.23049 37.675 9.23051 37.6752 9.23053 37.6753L9.23058 37.6756L9.23068 37.6764L9.23097 37.6784L9.23185 37.6845L9.23502 37.7043C9.23781 37.7208 9.24203 37.744 9.24809 37.7734C9.26022 37.832 9.27975 37.9152 9.31012 38.0189C9.37084 38.2263 9.47493 38.5157 9.64978 38.8541C10 39.532 10.6324 40.4028 11.7614 41.2023C12.8899 42.0015 13.9596 42.3364 14.751 42.4706C15.1464 42.5377 15.4722 42.5546 15.7012 42.5546C15.8157 42.5545 15.9061 42.5502 15.9691 42.5458C16.0005 42.5436 16.0252 42.5413 16.0425 42.5396L16.063 42.5373L16.0691 42.5366L16.0711 42.5363L16.0718 42.5362L16.0721 42.5362C16.0722 42.5362 16.0724 42.5361 16.0394 42.2883Z" fill="#575757" stroke="#575757" stroke-width="0.5"/>
</svg>
