<svg width="50" height="50" viewBox="0 0 50 50" fill="none" xmlns="http://www.w3.org/2000/svg">
<circle cx="25" cy="25" r="25" fill="#FCFCFC"/>
<path d="M24.5 11C16.4927 11 10 17.4927 10 25.5C10 33.5073 16.4927 40 24.5 40C32.5079 40 39 33.5072 39 25.5C39 17.4928 32.5078 11 24.5 11ZM27.3687 38.4788C26.4266 38.664 25.2546 38.7707 24.3014 38.789C23.3984 38.7761 22.4992 38.6712 21.6175 38.4758C21.4592 38.4351 21.3011 38.3938 21.1431 38.3519L19.441 33.7904L20.8104 31.0769H28.1897L28.2294 31.1519L29.5777 33.8604L27.9312 38.3416C27.7447 38.3914 27.5572 38.4372 27.3687 38.4788ZM19.8696 13.0412L23.8726 15.7805V19.8341L18.9233 24.0214L15.4793 22.4522L15.1888 22.3198L13.632 17.857C15.1663 15.6817 17.3364 13.9857 19.8696 13.0412ZM35.3446 17.8364L33.7808 22.3316L30.017 24.0317L25.0577 19.8341V15.7805L29.0728 13.0329C31.6076 13.9728 33.8066 15.6646 35.3446 17.8364ZM11.2648 26.714L15.0123 23.4711L18.4657 25.0465L18.5047 25.0643L19.8792 30.4521L18.4548 33.138L13.5848 33.0742C12.3057 31.2366 11.4785 29.0626 11.2648 26.714ZM30.5453 33.1379L29.1208 30.452L30.4978 25.0552L33.9831 23.4671L37.7352 26.714C37.5215 29.0626 36.6942 31.2366 35.4154 33.0742L30.5453 33.1379Z" fill="#575757"/>
</svg>
