<svg width="50" height="50" viewBox="0 0 50 50" fill="none" xmlns="http://www.w3.org/2000/svg">
<circle cx="25" cy="25" r="25" fill="#FCFCFC"/>
<path d="M35.9775 14.5335C29.8161 8.48883 19.7898 8.48883 13.6284 14.5335C10.6445 17.4609 9 21.3553 9 25.4959C9 29.6374 10.6445 33.5309 13.6294 36.4583C16.6133 39.3876 20.583 41 24.8035 41C29.024 41 32.9936 39.3876 35.9775 36.4583C38.9624 33.5309 40.6069 29.6374 40.6069 25.4959C40.6069 21.3553 38.9624 17.4609 35.9775 14.5335ZM22.0092 35.9893C19.8985 35.9893 17.9141 35.183 16.4217 33.7179C14.9293 32.2528 14.1075 30.306 14.1075 28.2362C14.1075 27.7004 14.55 27.2672 15.0952 27.2672C15.6404 27.2672 16.0829 27.7004 16.0829 28.2362C16.0829 29.7896 16.6993 31.2489 17.8183 32.3477C18.9384 33.4466 20.4269 34.0512 22.0092 34.0512C22.5544 34.0512 22.9969 34.4844 22.9969 35.0203C22.9969 35.5561 22.5554 35.9893 22.0092 35.9893ZM22.0092 32.1103C20.9524 32.1103 19.9607 31.7082 19.216 30.9776C18.4712 30.2469 18.0603 29.2731 18.0603 28.2362C18.0603 27.7004 18.5028 27.2672 19.048 27.2672C19.5933 27.2672 20.0358 27.7004 20.0358 28.2362C20.0358 28.7556 20.2412 29.2421 20.6126 29.6074C20.984 29.9717 21.4798 30.1723 22.0092 30.1723C22.5544 30.1723 22.9969 30.6055 22.9969 31.1413C22.9969 31.6772 22.5554 32.1103 22.0092 32.1103ZM27.5967 28.2362C26.851 28.9688 25.8584 29.3719 24.8035 29.3719C23.7486 29.3719 22.7559 28.9688 22.0102 28.2362C21.2635 27.5046 20.8526 26.5308 20.8526 25.4959C20.8526 24.461 21.2635 23.4871 22.0102 22.7555C23.5027 21.2904 26.1053 21.2904 27.5967 22.7555C28.3435 23.4871 28.7543 24.461 28.7543 25.4959C28.7543 26.5308 28.3435 27.5037 27.5967 28.2362ZM30.5589 23.7236C30.0137 23.7236 29.5712 23.2895 29.5712 22.7546C29.5712 22.2361 29.3657 21.7497 28.9944 21.3844C28.622 21.02 28.1262 20.8185 27.5977 20.8185C27.0525 20.8185 26.61 20.3844 26.61 19.8495C26.61 19.3146 27.0525 18.8805 27.5977 18.8805C28.6536 18.8805 29.6463 19.2836 30.391 20.0142C31.1357 20.7448 31.5466 21.7187 31.5466 22.7546C31.5466 23.2904 31.1041 23.7236 30.5589 23.7236ZM34.5117 23.7236C33.9665 23.7236 33.524 23.2895 33.524 22.7546C33.524 21.2022 32.9077 19.7419 31.7886 18.6431C30.6685 17.5452 29.18 16.9405 27.5977 16.9405C27.0525 16.9405 26.61 16.5064 26.61 15.9715C26.61 15.4366 27.0525 15.0025 27.5977 15.0025C29.7075 15.0025 31.6918 15.8087 33.1852 17.2729C34.6777 18.738 35.4995 20.6848 35.4995 22.7546C35.4995 23.2904 35.057 23.7236 34.5117 23.7236Z" fill="#575757"/>
</svg>
