<svg width="50" height="50" viewBox="0 0 50 50" fill="none" xmlns="http://www.w3.org/2000/svg">
<circle cx="25" cy="25" r="25" fill="#FCFCFC"/>
<path d="M18.5939 9C18.5127 9.00018 18.4327 9.02012 18.361 9.05811C18.2892 9.0961 18.2278 9.151 18.182 9.21805C18.1362 9.2851 18.1075 9.36229 18.0982 9.44295C18.089 9.52361 18.0995 9.60532 18.1289 9.681L21.0269 17.064L21.7209 18.832C21.7267 18.848 21.7334 18.8637 21.7409 18.879L23.3829 23.066L19.1229 33.914H18.3299C18.3022 33.9083 18.2741 33.905 18.2459 33.904C18.2203 33.9054 18.1949 33.9087 18.1699 33.914H16.3379C16.3102 33.9083 16.2821 33.905 16.2539 33.904C16.2283 33.9054 16.2029 33.9087 16.1779 33.914H14.2929C14.2652 33.9083 14.2371 33.905 14.2089 33.904C14.184 33.9055 14.1592 33.9088 14.1349 33.914H11.5879C11.4917 33.9142 11.3976 33.9421 11.3169 33.9945C11.2362 34.0468 11.1723 34.1213 11.1329 34.209L9.04486 38.822C9.01016 38.8983 8.99519 38.9821 9.00135 39.0657C9.0075 39.1493 9.03458 39.23 9.08009 39.3004C9.12559 39.3708 9.18807 39.4287 9.26177 39.4686C9.33547 39.5085 9.41804 39.5293 9.50186 39.529H12.1419C12.1913 39.5364 12.2415 39.5364 12.2909 39.529H14.1869C14.2366 39.5365 14.2871 39.5365 14.3369 39.529H16.1799C16.2296 39.5365 16.2801 39.5365 16.3299 39.529H19.8269C19.9272 39.5287 20.0251 39.4982 20.1078 39.4414C20.1906 39.3847 20.2543 39.3044 20.2909 39.211L25.0059 27.201L26.8219 31.828L29.7209 39.211C29.7574 39.3046 29.8214 39.385 29.9043 39.4417C29.9873 39.4984 30.0854 39.5289 30.1859 39.529H33.6859C33.7336 39.536 33.7821 39.536 33.8299 39.529H35.6779C35.7256 39.536 35.7741 39.536 35.8219 39.529H40.5099C40.5937 39.5293 40.6763 39.5085 40.75 39.4686C40.8237 39.4287 40.8861 39.3708 40.9316 39.3004C40.9771 39.23 41.0042 39.1493 41.0104 39.0657C41.0165 38.9821 41.0016 38.8983 40.9669 38.822L38.8789 34.209C38.8394 34.1213 38.7755 34.0468 38.6948 33.9945C38.6141 33.9421 38.52 33.9142 38.4239 33.914H35.8729C35.8445 33.9082 35.8158 33.9048 35.7869 33.904C35.7633 33.9057 35.7399 33.909 35.7169 33.914H33.8299C33.8009 33.9081 33.7714 33.9047 33.7419 33.904C33.7183 33.9057 33.6949 33.909 33.6719 33.914H31.8379C31.8089 33.9081 31.7794 33.9047 31.7499 33.904C31.7263 33.9057 31.7029 33.909 31.6799 33.914H30.8889L26.6289 23.064L28.2829 18.849C28.2849 18.8447 28.2869 18.8404 28.2889 18.836H28.2909L31.2069 11.41C31.209 11.404 31.211 11.398 31.2129 11.392L31.8829 9.685C31.9123 9.60932 31.9228 9.52761 31.9135 9.44695C31.9042 9.36629 31.8755 9.2891 31.8297 9.22205C31.7839 9.155 31.7225 9.1001 31.6507 9.06211C31.579 9.02412 31.4991 9.00418 31.4179 9.004H29.2459C29.1453 9.00358 29.0469 9.03351 28.9636 9.08989C28.8803 9.14627 28.8159 9.22646 28.7789 9.32L28.1309 10.974C28.1258 10.9852 28.1211 10.9965 28.1169 11.008L25.2189 18.392L25.0059 18.933L24.7949 18.394H24.7929L21.8949 11.01C21.8889 10.9947 21.8823 10.9797 21.8749 10.965L21.2319 9.325C21.1951 9.23143 21.1309 9.15114 21.0478 9.09459C20.9647 9.03804 20.8664 9.00786 20.7659 9.008H18.5939V9ZM19.3279 10H20.4259L20.6989 10.7L19.6089 10.715L19.3289 10H19.3279ZM29.5859 10H30.6839L30.4019 10.717L29.3109 10.699L29.5859 9.999V10ZM11.9099 34.913H13.4509L11.8909 38.529H10.2749L11.9099 34.914V34.913ZM14.5399 34.913H15.4959L13.9359 38.529H12.9789L14.5389 34.914L14.5399 34.913ZM16.5839 34.913H17.4879L15.9279 38.529H15.0229L16.5839 34.914V34.913ZM32.5239 34.913H33.4279L34.9879 38.529H34.0839L32.5239 34.914V34.913ZM34.5159 34.913H35.4729L37.0329 38.529H36.0759L34.5159 34.914V34.913ZM36.5609 34.913H38.1009L39.7359 38.529H38.1229L36.5609 34.914V34.913Z" fill="#575757"/>
</svg>
