<svg width="50" height="50" viewBox="0 0 50 50" fill="none" xmlns="http://www.w3.org/2000/svg">
    <circle cx="25" cy="25" r="25" fill="#FCFCFC"/>
    <path d="M5.84072 28.3032C5.83968 28.5145 5.92237 28.7176 6.07072 28.8681C6.21917 29.0187 6.42127 29.1043 6.63274 29.1061H6.63414H9.42474V34.3739C9.42474 34.8047 9.73567 35.1592 10.1843 35.1592H13.6114C13.6276 35.1592 13.6435 35.1582 13.6555 35.1573C13.6675 35.1582 13.6834 35.1592 13.6995 35.1592H17.1249C17.3365 35.163 17.5411 35.0836 17.6948 34.9381C17.8489 34.7921 17.9394 34.5914 17.9466 34.3793L17.9467 34.3793V34.3739V29.9822H32.4421V34.3739H32.442L32.4422 34.3793C32.4494 34.5913 32.5398 34.792 32.6938 34.9379C32.8474 35.0835 33.0519 35.1629 33.2635 35.1592H36.6892C36.7053 35.1592 36.7211 35.1582 36.7331 35.1573C36.7452 35.1582 36.7611 35.1592 36.7772 35.1592H40.2044C40.6529 35.1592 40.9641 34.8048 40.9641 34.3739V29.1061L44.3888 28.3036H44.5481V28.3034C44.5481 28.3032 44.5481 28.3029 44.5481 28.3027L44.5481 22.7673C44.5481 22.3389 44.2057 21.9381 43.7547 21.9381H40.9641V17.6261C40.9641 17.1952 40.6529 16.8408 40.2044 16.8408H36.7772C36.7611 16.8408 36.7452 16.8418 36.7332 16.8427C36.7211 16.8418 36.7053 16.8408 36.6892 16.8408H33.2635C33.0519 16.8371 32.8474 16.9165 32.6938 17.0621C32.5398 17.208 32.4494 17.4087 32.4422 17.6207L32.4421 17.6207V17.6261V21.062H17.9467V17.6261H17.9468L17.9466 17.6207C17.9394 17.4086 17.8489 17.2079 17.6948 17.0619C17.5411 16.9164 17.3365 16.837 17.1249 16.8408H13.6995C13.6834 16.8408 13.6675 16.8418 13.6555 16.8427C13.6435 16.8418 13.6276 16.8408 13.6114 16.8408H10.1843C9.73567 16.8408 9.42474 17.1953 9.42474 17.6261V21.9381H6.63414C6.18314 21.9381 5.84072 22.3389 5.84072 22.7673V28.3032ZM5.84072 28.3032C5.84072 28.303 5.84072 28.3028 5.84072 28.3027L6.00001 28.3036H5.84072V28.3032ZM7.43362 27.5133V23.531H9.42474V27.5133H7.43362ZM12.8495 33.5663H11.0176V18.4337H12.8495V33.5663ZM14.522 33.5663V18.4337H16.3538V21.6188C16.3304 21.6487 16.3114 21.6819 16.2976 21.7176C16.2754 21.7752 16.2674 21.8373 16.2742 21.8986V29.1724C16.2674 29.2336 16.2754 29.2957 16.2976 29.3533C16.3114 29.389 16.3304 29.4223 16.3538 29.4521V33.5663H14.522ZM32.4421 28.3893H17.9467V22.6549H32.4421V28.3893ZM35.8668 33.5663H34.035V18.4337H35.8668V33.5663ZM39.3712 33.5663H37.5394V18.4337H39.3712V33.5663ZM42.9552 27.5133H40.9641V23.531H42.9552V27.5133Z" fill="#575757" stroke="#575757" stroke-width="0.318579"/>
</svg>
