<svg width="50" height="50" viewBox="0 0 50 50" fill="none" xmlns="http://www.w3.org/2000/svg">
<circle cx="25" cy="25" r="25" fill="#FCFCFC"/>
<path d="M18.0522 29.0877V33.3739V33.3829L18.052 33.3829C18.0438 33.6227 17.9415 33.8496 17.7673 34.0146C17.5938 34.1789 17.3628 34.2686 17.124 34.2646H13.6995C13.6835 34.2646 13.6677 34.2638 13.6555 34.263C13.6432 34.2638 13.6274 34.2646 13.6114 34.2646H10.1843C9.67168 34.2646 9.31932 33.857 9.31932 33.3739V28.2116H6.63414H6.63181L6.63181 28.2116C6.39245 28.2094 6.16369 28.1125 5.99565 27.9421M18.0522 29.0877L5.99564 27.9421C5.99564 27.9421 5.99565 27.9421 5.99565 27.9421M18.0522 29.0877H32.3367V33.3739H32.3365L32.3368 33.3829C32.345 33.6226 32.4472 33.8494 32.6213 34.0144C32.7947 34.1788 33.0256 34.2686 33.2644 34.2646H36.6892C36.7051 34.2646 36.7209 34.2638 36.7332 34.263C36.7454 34.2638 36.7612 34.2646 36.7772 34.2646H40.2044C40.7168 34.2646 41.0695 33.8571 41.0695 33.3739V28.2116L18.0522 29.0877ZM5.99565 27.9421C5.82779 27.7718 5.73419 27.542 5.7353 27.3029M5.99565 27.9421L43.7547 27.9469C43.924 27.9454 44.0858 27.8768 44.2047 27.7562C44.3235 27.6357 44.3898 27.4729 44.3888 27.3036H44.6535V27.3029C44.6535 27.3026 44.6535 27.3024 44.6535 27.3021L44.6535 21.7673C44.6535 21.2883 44.2712 20.8327 43.7547 20.8327H41.0695V16.6261C41.0695 16.1429 40.7168 15.7354 40.2044 15.7354H36.7772C36.7612 15.7354 36.7454 15.7362 36.7332 15.737C36.7209 15.7362 36.7051 15.7354 36.6892 15.7354H33.2644C33.0256 15.7315 32.7947 15.8212 32.6213 15.9856C32.4472 16.1506 32.345 16.3774 32.3368 16.6171L32.3367 16.6171V16.6261V19.9566H18.0522V16.6261H18.0523L18.052 16.6171C18.0438 16.3773 17.9415 16.1504 17.7673 15.9854C17.5938 15.8211 17.3628 15.7314 17.124 15.7354H13.6995C13.6835 15.7354 13.6677 15.7362 13.6555 15.737C13.6432 15.7362 13.6274 15.7354 13.6114 15.7354H10.1843C9.67168 15.7354 9.31932 16.143 9.31932 16.6261V20.8327H6.63414C6.1176 20.8327 5.7353 21.2883 5.7353 21.7673V27.3029M5.7353 27.3029C5.73531 27.3026 5.73531 27.3024 5.73531 27.3021L6.00001 27.3036H5.7353V27.3029ZM16.4462 28.2959L16.1993 28.3913C16.2122 28.4247 16.2287 28.4565 16.2484 28.4861V32.4608H14.6274V17.5392H16.2484V20.5848C16.2287 20.6144 16.2122 20.6462 16.1993 20.6796L16.4462 20.775L16.1993 20.6796C16.1717 20.7511 16.1613 20.828 16.1688 20.9041V28.1669C16.1613 28.2429 16.1717 28.3198 16.1993 28.3913L16.4462 28.2959ZM7.53903 26.4078V22.6364H9.31932V26.4078H7.53903ZM12.7441 32.4608H11.1231V17.5392H12.7441V32.4608ZM32.3367 27.2839H18.0522V21.7603H32.3367V27.2839ZM35.7614 32.4608H34.1404V17.5392H35.7614V32.4608ZM39.2658 32.4608H37.6448V17.5392H39.2658V32.4608ZM42.8498 26.4078H41.0695V22.6364H42.8498V26.4078Z" fill="#575757" stroke="#575757" stroke-width="0.529412"/>
</svg>
