<svg width="50" height="50" viewBox="0 0 50 50" fill="none" xmlns="http://www.w3.org/2000/svg">
<circle cx="25" cy="25" r="25" fill="#FCFCFC"/>
<path d="M21.0911 25.7616C21.0799 25.8318 21.0539 25.8992 21.0147 25.9599C20.9755 26.0206 20.9237 26.0734 20.8626 26.1152C20.8028 26.1575 20.7345 26.1878 20.6618 26.2044C20.5891 26.221 20.5135 26.2235 20.4397 26.2116C20.2914 26.1899 20.157 26.1174 20.0626 26.0081C20.0181 25.9518 19.986 25.8877 19.9684 25.8196C19.9507 25.7515 19.9478 25.6808 19.9597 25.6116C19.9696 25.5411 19.9951 25.4732 20.0344 25.4124C20.0738 25.3515 20.1262 25.299 20.1883 25.2581C20.282 25.1871 20.3993 25.1491 20.5197 25.1509H20.6111C20.7599 25.1747 20.8931 25.2516 20.9826 25.3655C21.0721 25.4794 21.111 25.6214 21.0911 25.7616ZM21.5711 23.1152C21.5599 23.1854 21.5339 23.2528 21.4947 23.3135C21.4555 23.3742 21.4037 23.427 21.3426 23.4688C21.2828 23.511 21.2145 23.5414 21.1418 23.558C21.0691 23.5746 20.9935 23.577 20.9197 23.5652C20.7709 23.5415 20.6378 23.4646 20.5482 23.3507C20.4587 23.2368 20.4198 23.0947 20.4397 22.9545C20.4541 22.8266 20.5202 22.7088 20.6243 22.6251C20.7284 22.5415 20.8627 22.4983 20.9997 22.5045H21.0911C21.2399 22.5282 21.3731 22.6051 21.4626 22.719C21.5521 22.8329 21.591 22.975 21.5711 23.1152Z" fill="#575757"/>
<path d="M25.7543 22.6319C25.5004 22.0447 25.124 21.511 24.6471 21.062C24.1702 20.6131 23.6024 20.258 22.9771 20.0176C22.3545 19.7736 21.6863 19.6479 21.0114 19.6479C20.3365 19.6479 19.6684 19.7736 19.0457 20.0176C18.2622 20.3181 17.5699 20.7952 17.0303 21.4068C16.4906 22.0183 16.1204 22.7452 15.9523 23.523C15.7843 24.3009 15.8237 25.1056 16.067 25.8658C16.3103 26.6259 16.75 27.318 17.347 27.8806C17.9441 28.4433 18.6801 28.859 19.4897 29.091C20.2993 29.3229 21.1574 29.364 21.988 29.2104C22.8185 29.0568 23.5958 28.7134 24.2508 28.2107C24.9058 27.7079 25.4183 27.0613 25.7429 26.3283C26.006 25.7339 26.142 25.0969 26.1429 24.4533C26.1444 23.8279 26.0123 23.2086 25.7543 22.6319V22.6319ZM23.2057 23.3497C23.1316 23.8343 22.8764 24.2785 22.4857 24.6033C22.6853 24.9273 22.7909 25.2947 22.792 25.6689C22.7931 26.043 22.6897 26.4109 22.4921 26.736C22.2944 27.0611 22.0095 27.332 21.6655 27.5217C21.3215 27.7115 20.9305 27.8135 20.5314 27.8176H20.1886C19.8912 27.7757 19.6056 27.6793 19.3481 27.5338C19.0906 27.3883 18.8663 27.1966 18.6879 26.9696C18.5096 26.7427 18.3807 26.485 18.3088 26.2114C18.2368 25.9377 18.2231 25.6534 18.2686 25.3747C18.3437 24.8904 18.5986 24.4465 18.9886 24.1212C18.7142 23.7054 18.6049 23.2122 18.68 22.7283C18.7694 22.16 19.096 21.6482 19.5879 21.3057C20.0797 20.9631 20.6966 20.8177 21.3029 20.9015C21.9091 20.9854 22.4549 21.2915 22.8204 21.7526C23.1858 22.2138 23.3408 22.7921 23.2514 23.3605L23.2057 23.3497Z" fill="#575757"/>
<path d="M25 10C21.8355 10 18.7421 10.8797 16.1109 12.528C13.4797 14.1762 11.4289 16.5189 10.2179 19.2597C9.00693 22.0006 8.69008 25.0166 9.30744 27.9264C9.92481 30.8361 11.4487 33.5088 13.6863 35.6066C15.9239 37.7044 18.7749 39.133 21.8786 39.7118C24.9823 40.2906 28.1993 39.9935 31.1229 38.8582C34.0466 37.7229 36.5454 35.8003 38.3035 33.3336C40.0616 30.8668 41 27.9667 41 25C41 21.0218 39.3143 17.2064 36.3137 14.3934C33.3131 11.5804 29.2435 10 25 10ZM27.8572 27.1429C27.2906 28.4104 26.3378 29.493 25.1181 30.2553C23.8984 31.0177 22.4659 31.4258 21 31.4286C19.4057 31.4286 17.8536 30.9477 16.5733 30.057C15.2929 29.1663 14.3522 27.913 13.8902 26.4824C13.4282 25.0519 13.4693 23.5199 14.0076 22.1129C14.5459 20.706 15.5528 19.4988 16.8794 18.6696C18.206 17.8405 19.7819 17.4335 21.3742 17.5088C22.9665 17.5841 24.4908 18.1377 25.7216 19.0878C26.9525 20.0378 27.8247 21.3339 28.2092 22.7845C28.5938 24.235 28.4704 25.7631 27.8572 27.1429Z" fill="#575757"/>
<path d="M25 10C21.8355 10 18.7421 10.8797 16.1109 12.528C13.4797 14.1762 11.4289 16.5189 10.2179 19.2597C9.00693 22.0006 8.69008 25.0166 9.30744 27.9264C9.92481 30.8361 11.4487 33.5088 13.6863 35.6066C15.9239 37.7044 18.7749 39.133 21.8786 39.7118C24.9823 40.2906 28.1993 39.9935 31.1229 38.8582C34.0466 37.7229 36.5454 35.8003 38.3035 33.3336C40.0616 30.8668 41 27.9667 41 25C41 21.0218 39.3143 17.2064 36.3137 14.3934C33.3131 11.5804 29.2435 10 25 10ZM27.8572 27.1429C27.2906 28.4104 26.3378 29.493 25.1181 30.2553C23.8984 31.0177 22.4659 31.4258 21 31.4286C19.4057 31.4286 17.8536 30.9477 16.5733 30.057C15.2929 29.1663 14.3522 27.913 13.8902 26.4824C13.4282 25.0519 13.4693 23.5199 14.0076 22.1129C14.5459 20.706 15.5528 19.4988 16.8794 18.6696C18.206 17.8405 19.7819 17.4335 21.3742 17.5088C22.9665 17.5841 24.4908 18.1377 25.7216 19.0878C26.9525 20.0378 27.8247 21.3339 28.2092 22.7845C28.5938 24.235 28.4704 25.7631 27.8572 27.1429Z" fill="#575757"/>
</svg>
