<svg width="50" height="51" viewBox="0 0 50 51" fill="none" xmlns="http://www.w3.org/2000/svg">
<ellipse cx="25" cy="25.2641" rx="25" ry="24.8952" fill="#FCFCFC"/>
<mask id="path-2-outside-1_635_188" maskUnits="userSpaceOnUse" x="16" y="8.3313" width="19" height="34" fill="black">
<rect fill="white" x="16" y="8.3313" width="19" height="34"/>
<path d="M25.215 9.3365C25.215 9.33565 25.2143 9.33496 25.2135 9.33493C24.7398 9.31957 24.2658 9.35299 23.799 9.4346C21.019 9.91458 18.624 12.0456 17.889 15.0151L17.373 17.0984C16.747 19.6227 16.931 22.1012 17.76 24.0938C17.8982 24.4255 18.0601 24.7375 18.2349 25.0415C18.2368 25.0447 18.2365 25.0487 18.2341 25.0516C18.2317 25.0547 18.2315 25.0591 18.2337 25.0624C20.1038 27.8429 19.8247 30.6725 19.4134 32.6185C19.3341 32.9935 19.0638 33.2923 18.8313 33.597C18.7094 33.7567 18.6212 33.9391 18.572 34.1336L17.332 39.1425C17.135 39.9372 17.632 40.7548 18.43 40.9509L19.275 41.157C19.6609 41.2501 20.0681 41.1877 20.408 40.9833C20.7479 40.7789 20.993 40.4491 21.09 40.0656L22.332 35.0567C22.5148 34.314 22.2331 33.4826 22.4687 32.7549C23.0643 30.915 24.199 28.624 26.87 27.1815C26.8728 27.18 26.8741 27.1766 26.8729 27.1737C26.8718 27.1709 26.8728 27.1677 26.8753 27.1661C27.1718 26.9777 27.4623 26.7764 27.741 26.5465C29.405 25.1663 30.726 23.0552 31.351 20.5308L31.867 18.4496C32.848 14.4913 30.524 10.4861 26.66 9.53713C26.1871 9.42085 25.7033 9.35417 25.2165 9.33807C25.2157 9.33804 25.215 9.33735 25.215 9.3365ZM25.178 10.3268C25.2564 10.33 25.3352 10.3349 25.4142 10.3415C25.6918 10.3644 25.8703 10.6367 25.8032 10.9071C25.7401 11.1615 25.4829 11.3168 25.2283 11.2542L24.9209 11.1786C24.6854 11.1207 24.5417 10.8825 24.6005 10.6471C24.6467 10.4623 24.807 10.3267 24.9976 10.3253C25.0577 10.3248 25.1178 10.3253 25.178 10.3268ZM23.3976 10.5526C23.4931 10.5274 23.5791 10.6146 23.5549 10.7103C23.5372 10.7803 23.4665 10.823 23.3964 10.806L23.3887 10.8041C23.254 10.7715 23.2471 10.5927 23.381 10.557C23.3865 10.5555 23.3921 10.5541 23.3976 10.5526ZM26.7764 11.146C26.843 10.8767 27.126 10.7198 27.3807 10.8297C27.5086 10.885 27.6338 10.9444 27.7563 11.0079C27.9272 11.0966 28.0082 11.2933 27.9618 11.4802C27.9039 11.7134 27.6681 11.8557 27.4347 11.7984L27.1246 11.7221C26.8692 11.6594 26.7132 11.4013 26.7764 11.146ZM21.9654 12.003C22.0332 11.7304 22.3087 11.5641 22.5815 11.6311L22.7879 11.6819C23.0612 11.7491 23.2282 12.0253 23.1607 12.2986C23.0934 12.571 22.8184 12.7377 22.5457 12.6712L22.3392 12.6209C22.065 12.554 21.8973 12.277 21.9654 12.003ZM28.8629 12.0085C28.8872 11.9109 29.0058 11.8734 29.08 11.9413C29.0844 11.9454 29.0889 11.9495 29.0933 11.9536C29.197 12.0491 29.1062 12.2076 28.9692 12.1741L28.9619 12.1724C28.8891 12.1546 28.8447 12.0811 28.8629 12.0085ZM20.7285 12.055C20.8045 11.9837 20.9212 12.057 20.8962 12.1582C20.8824 12.2145 20.8253 12.2495 20.769 12.2356C20.6896 12.216 20.6623 12.1173 20.7219 12.0612C20.7241 12.0592 20.7263 12.0571 20.7285 12.055ZM24.132 12.5364C24.1994 12.2625 24.4759 12.0951 24.7498 12.1623L24.9536 12.2123C25.2281 12.2797 25.3957 12.5571 25.3277 12.8314C25.2599 13.1048 24.9835 13.2717 24.71 13.2045L24.5061 13.1544C24.2321 13.0871 24.0646 12.8103 24.132 12.5364ZM26.3013 13.0678C26.3691 12.7956 26.6444 12.6295 26.9168 12.6965L27.1232 12.7472C27.3968 12.8145 27.5637 13.0912 27.4956 13.3645C27.4278 13.6368 27.1526 13.8028 26.8801 13.7358L26.6738 13.6851C26.4002 13.6178 26.2333 13.3412 26.3013 13.0678ZM19.7063 13.3015C19.8078 13.1416 20.0021 13.0705 20.1859 13.1161C20.4318 13.1771 20.5817 13.4259 20.5208 13.6718L20.5025 13.7457C20.4387 14.0037 20.1781 14.1613 19.9199 14.0981C19.6222 14.0252 19.4668 13.6959 19.6248 13.4333C19.6515 13.389 19.6787 13.345 19.7063 13.3015ZM28.4688 13.5989C28.5363 13.3266 28.8115 13.1603 29.084 13.2272L29.2922 13.2783C29.5653 13.3454 29.7323 13.6214 29.6648 13.8945C29.5975 14.167 29.3222 14.3335 29.0495 14.2666L28.8413 14.2155C28.568 14.1484 28.401 13.8721 28.4688 13.5989ZM21.4793 13.9557C21.5466 13.6842 21.8207 13.5183 22.0924 13.5847L22.3044 13.6365C22.5773 13.7032 22.7442 13.9788 22.6767 14.2515C22.6094 14.5232 22.3349 14.6892 22.0631 14.6226L21.8511 14.5706C21.5784 14.5038 21.4118 14.2282 21.4793 13.9557ZM23.6473 14.4887C23.7145 14.2166 23.9894 14.0504 24.2615 14.1171L24.4725 14.1689C24.7454 14.2358 24.9122 14.5116 24.8447 14.7843C24.7774 15.0561 24.5029 15.2222 24.231 15.1558L24.0199 15.1042C23.7468 15.0375 23.5798 14.7616 23.6473 14.4887ZM30.5397 14.521C30.565 14.4176 30.7052 14.4065 30.7398 14.5072C30.7408 14.5103 30.7419 14.5134 30.7429 14.5165C30.7697 14.595 30.6988 14.6706 30.6182 14.651C30.5607 14.6371 30.5256 14.5784 30.5397 14.521ZM25.8165 15.0192C25.8842 14.7477 26.1587 14.5821 26.4304 14.6489L26.6409 14.7006C26.9136 14.7676 27.0802 15.0432 27.0127 15.3158C26.9455 15.5877 26.6708 15.7538 26.3988 15.6871L26.1883 15.6355C25.9151 15.5684 25.7483 15.2921 25.8165 15.0192ZM18.859 15.2491C18.9104 15.0444 19.1364 14.9311 19.3414 14.9815L19.6514 15.0578C19.9245 15.125 20.0913 15.4009 20.0238 15.6739C19.9565 15.9465 19.6812 16.113 19.4085 16.0461L19.3043 16.0205C18.9734 15.9393 18.7712 15.6051 18.8528 15.2743L18.859 15.2491ZM27.9845 15.552C28.0522 15.2805 28.3267 15.1149 28.5985 15.1816L28.8083 15.2331C29.0813 15.3002 29.2479 15.5762 29.1801 15.849C29.1126 16.1206 28.838 16.2865 28.5661 16.2198L28.3563 16.1683C28.083 16.1013 27.9163 15.8249 27.9845 15.552ZM20.9953 15.9105C21.0626 15.6391 21.3368 15.4732 21.6085 15.5396L21.8195 15.5912C22.0924 15.6579 22.2592 15.9336 22.1917 16.2062C22.1244 16.478 21.8499 16.644 21.578 16.5773L21.367 16.5255C21.0943 16.4586 20.9278 16.183 20.9953 15.9105ZM30.1609 16.0452C30.2228 15.7948 30.4761 15.642 30.7265 15.704C30.9136 15.7504 31.0546 15.9069 31.0698 16.0991C31.0735 16.1457 31.0767 16.1925 31.0794 16.2394C31.0972 16.5481 30.8043 16.7694 30.5039 16.6958C30.2418 16.6316 30.0815 16.3668 30.1462 16.1047L30.1609 16.0452ZM23.1632 16.4435C23.2305 16.1714 23.5054 16.0052 23.7776 16.072L23.9877 16.1236C24.2605 16.1906 24.4272 16.4663 24.3597 16.739C24.2924 17.0108 24.0179 17.1769 23.7459 17.1104L23.5358 17.059C23.2627 16.9923 23.0958 16.7164 23.1632 16.4435ZM25.3323 16.9748C25.4001 16.7024 25.6756 16.5362 25.9482 16.6032L26.1549 16.654C26.4282 16.7211 26.5953 16.9973 26.5278 17.2706C26.4605 17.5435 26.1849 17.7102 25.9119 17.6432L25.7052 17.5925C25.4314 17.5253 25.2643 17.2484 25.3323 16.9748ZM18.344 17.3324C18.4108 17.0606 18.6852 16.8945 18.957 16.9611L19.1672 17.0127C19.4403 17.0797 19.6073 17.3557 19.5398 17.6287C19.4725 17.9012 19.1971 18.0677 18.9245 18.0006L18.7358 17.9542C18.4588 17.886 18.2745 17.6091 18.344 17.3324ZM27.5004 17.506C27.5681 17.2339 27.8433 17.0678 28.1157 17.1348L28.3233 17.1858C28.5964 17.253 28.7633 17.529 28.6958 17.802C28.6285 18.0745 28.3532 18.2411 28.0806 18.1742L27.8729 18.1232C27.5993 18.0561 27.4323 17.7794 27.5004 17.506ZM20.5112 17.8644C20.5785 17.5919 20.8538 17.4253 21.1264 17.4923L21.3352 17.5435C21.6083 17.6106 21.7752 17.8865 21.7078 18.1596C21.6405 18.4321 21.3652 18.5986 21.0926 18.5317L20.8839 18.4805C20.6107 18.4134 20.4437 18.1375 20.5112 17.8644ZM29.6672 18.0394C29.7345 17.767 30.0096 17.6005 30.2822 17.6672L30.6022 17.7455C30.8076 17.7958 30.9475 18.0006 30.896 18.2056L30.8898 18.2308C30.8081 18.5608 30.4747 18.7624 30.1445 18.6814L30.0399 18.6557C29.7667 18.5886 29.5997 18.3126 29.6672 18.0394ZM22.6805 18.3964C22.7482 18.1246 23.0229 17.9588 23.295 18.0254L23.503 18.0764C23.7762 18.1433 23.9432 18.4193 23.8758 18.6924C23.8085 18.9649 23.5332 19.1314 23.2607 19.0645L23.0527 19.0134C22.7792 18.9463 22.6123 18.6697 22.6805 18.3964ZM24.8484 18.9294C24.9162 18.6571 25.1915 18.4909 25.464 18.5579L25.6711 18.6088C25.9443 18.6759 26.1112 18.952 26.0438 19.2252C25.9765 19.4977 25.7013 19.6643 25.4286 19.5976L25.2215 19.547C24.9476 19.48 24.7803 19.2031 24.8484 18.9294ZM18.0261 19.4236C18.0464 19.1061 18.3542 18.885 18.6632 18.9608L18.6827 18.9656C18.956 19.0325 19.123 19.3088 19.0552 19.5819C18.9877 19.8542 18.7124 20.0203 18.4399 19.9532L18.4195 19.9481C18.1789 19.8888 18.0103 19.6708 18.0261 19.4236ZM27.016 19.4599C27.084 19.1876 27.3594 19.0216 27.6319 19.0886L27.8389 19.1395C28.1123 19.2067 28.2793 19.4829 28.2118 19.7562C28.1445 20.0291 27.8689 20.1958 27.596 20.1289L27.3889 20.0782C27.1148 20.011 26.9476 19.7337 27.016 19.4599ZM20.0268 19.8174C20.0943 19.5458 20.369 19.3799 20.6408 19.4467L20.8513 19.4983C21.1243 19.5653 21.2909 19.8413 21.2231 20.1141C21.1556 20.3858 20.881 20.5516 20.6091 20.4849L20.3987 20.4332C20.1257 20.3662 19.959 20.0902 20.0268 19.8174ZM29.1832 19.9943C29.2505 19.7218 29.5257 19.5553 29.7983 19.6221L30.0095 19.6738C30.2823 19.7406 30.4488 20.0164 30.381 20.2889C30.3117 20.5649 30.0225 20.7252 29.7462 20.6573L29.5559 20.6105C29.2826 20.5434 29.1157 20.2674 29.1832 19.9943ZM22.1963 20.351C22.2635 20.0794 22.5379 19.9135 22.8096 19.98L23.0191 20.0313C23.2921 20.0981 23.4589 20.3741 23.3911 20.6468C23.3236 20.9184 23.049 21.0842 22.7773 21.0174L22.5678 20.9659C22.2952 20.8989 22.1288 20.6234 22.1963 20.351ZM24.3634 20.8818C24.4312 20.6096 24.7063 20.4436 24.9787 20.5105L25.1866 20.5616C25.46 20.6287 25.627 20.9051 25.5592 21.1783C25.4916 21.4506 25.2164 21.6169 24.944 21.5501L24.736 21.499C24.4623 21.4319 24.2953 21.1552 24.3634 20.8818ZM18.0738 21.2715C18.0519 21.0796 18.2299 20.9291 18.4174 20.9755C18.5696 21.0132 18.6624 21.1671 18.6248 21.3192L18.4893 21.8667C18.4669 21.9569 18.3762 22.0124 18.2857 21.9911C18.2202 21.9757 18.1699 21.9232 18.1583 21.8569C18.1244 21.6628 18.0962 21.4674 18.0738 21.2715ZM26.5314 21.4151C26.5991 21.1426 26.8746 20.9764 27.1472 21.0434L27.3542 21.0942C27.6279 21.1614 27.795 21.4379 27.7272 21.7114C27.6597 21.9841 27.3841 22.1506 27.1113 22.0836L26.9043 22.0328C26.6304 21.9656 26.4633 21.6887 26.5314 21.4151ZM19.5422 21.7739C19.6095 21.5014 19.8847 21.3349 20.1573 21.4018L20.3662 21.4531C20.6393 21.5201 20.8062 21.7961 20.7388 22.0691C20.6715 22.3416 20.3962 22.5081 20.1236 22.4412L19.9148 22.3899C19.6416 22.3229 19.4747 22.0469 19.5422 21.7739ZM28.6982 21.9489C28.7655 21.6765 29.0406 21.51 29.3131 21.5768L29.3319 21.5814C29.6422 21.6574 29.8136 21.9971 29.6839 22.2891C29.5834 22.5154 29.3335 22.6291 29.093 22.5703L29.0712 22.565C28.7979 22.4981 28.6308 22.222 28.6982 21.9489ZM21.7121 22.3068C21.7794 22.0343 22.0548 21.8678 22.3275 21.9348L22.5343 21.9856C22.8074 22.0527 22.9743 22.3287 22.9068 22.6017C22.8395 22.8743 22.5641 23.0408 22.2914 22.9738L22.0846 22.9229C21.8115 22.8558 21.6447 22.5798 21.7121 22.3068ZM23.8794 22.8373C23.9472 22.5658 24.2218 22.4002 24.4935 22.467L24.703 22.5185C24.9757 22.5856 25.1422 22.8612 25.0748 23.1338C25.0075 23.4057 24.7327 23.5718 24.4607 23.505L24.2512 23.4536C23.978 23.3865 23.8113 23.1102 23.8794 22.8373ZM26.0462 23.3704C26.1135 23.0978 26.3888 22.9311 26.6616 22.9978L26.8709 23.0491C27.145 23.1161 27.3123 23.3934 27.2439 23.6671C27.1759 23.939 26.9011 24.1048 26.6289 24.0382L26.4196 23.987C26.146 23.9201 25.9787 23.6438 26.0462 23.3704ZM19.0579 23.7269C19.1254 23.4553 19.3999 23.2895 19.6718 23.3562L19.8827 23.4079C20.1555 23.4749 20.3222 23.7505 20.2547 24.0232C20.1874 24.295 19.9128 24.4611 19.6408 24.3944L19.4298 24.3427C19.1568 24.2757 18.9901 23.9997 19.0579 23.7269ZM28.336 23.4126C28.336 23.4117 28.3368 23.411 28.3377 23.4112L28.6513 23.4879C28.8207 23.5292 28.8993 23.7245 28.8008 23.8684C28.6819 24.042 28.5576 24.2119 28.4278 24.3777C28.3873 24.4295 28.3201 24.4523 28.2562 24.4368C28.1651 24.4146 28.1094 24.3226 28.1321 24.2316L28.3359 23.4129C28.336 23.4128 28.336 23.4127 28.336 23.4126ZM21.2278 24.2599C21.2953 23.9882 21.57 23.8224 21.8419 23.8892L22.051 23.9406C22.3237 24.0076 22.4902 24.2832 22.4228 24.5557C22.3555 24.8277 22.0807 24.9937 21.8087 24.9269L21.5996 24.8756C21.3266 24.8086 21.16 24.5326 21.2278 24.2599ZM23.3944 24.7912C23.4622 24.5191 23.7373 24.3531 24.0096 24.42L24.2182 24.4713C24.4914 24.5384 24.6583 24.8144 24.5908 25.0874C24.5235 25.3599 24.2482 25.5265 23.9756 25.4596L23.767 25.4084C23.4933 25.3413 23.3263 25.0646 23.3944 24.7912ZM25.5612 25.3248C25.6285 25.0523 25.9036 24.8858 26.1762 24.9525L26.3867 25.004C26.6604 25.071 26.8276 25.3478 26.7595 25.6213C26.6918 25.8934 26.4168 26.0594 26.1445 25.9926L25.934 25.941C25.6607 25.874 25.4937 25.5979 25.5612 25.3248ZM19.8019 25.5414C19.7714 25.5087 19.8012 25.4598 19.8447 25.4704L19.8492 25.4715C19.8729 25.4773 19.8874 25.5012 19.8817 25.5248C19.8733 25.5594 19.8293 25.5707 19.805 25.5447C19.804 25.5436 19.803 25.5425 19.8019 25.5414ZM20.7685 26.1102C20.8218 25.8951 21.0392 25.7638 21.2544 25.8167L21.6086 25.9038C21.8578 25.9651 22.0099 26.2169 21.9482 26.466C21.8819 26.7339 21.5965 26.8866 21.3493 26.7638C21.205 26.6921 21.0645 26.6129 20.9283 26.5266C20.7896 26.4386 20.7289 26.2697 20.7685 26.1102ZM23.033 26.2575C23.033 26.2556 23.0347 26.2542 23.0365 26.2547L23.8376 26.4515C24.0531 26.5045 24.1846 26.7223 24.1312 26.9377C24.0918 27.0966 23.9599 27.2172 23.7967 27.2309C23.7282 27.2366 23.6596 27.2409 23.591 27.2437C23.1677 27.261 22.886 26.8488 22.9882 26.4377L23.0329 26.2581C23.033 26.2579 23.033 26.2577 23.033 26.2575ZM25.1884 26.8282C25.1943 26.8051 25.2177 26.791 25.2408 26.7967L25.2469 26.7982C25.2902 26.8087 25.2937 26.8651 25.2515 26.8794C25.2499 26.88 25.2482 26.8806 25.2465 26.8811C25.2133 26.8925 25.1798 26.8623 25.1884 26.8282ZM20.5726 28.3254C20.5158 27.9743 20.9239 27.671 21.2519 27.8086C21.4372 27.8864 21.5488 28.0854 21.5005 28.2805L20.439 32.5612C20.6651 31.3908 20.8317 29.928 20.5726 28.3254ZM22.4722 28.5155C22.5202 28.3218 22.7098 28.1982 22.9087 28.215C23.2627 28.245 23.4828 28.7029 23.2692 28.9867C22.2874 30.2913 21.7521 31.6686 21.406 32.8121L22.4722 28.5155ZM30.18 29.9701C29.1964 29.9717 28.2536 30.3614 27.558 31.0539C26.8624 31.7464 26.4708 32.6852 26.469 33.6646C26.4714 34.6437 26.863 35.582 27.5582 36.2743C28.2535 36.9667 29.1958 37.3566 30.179 37.359C31.1626 37.3572 32.1055 36.9674 32.8014 36.2751C33.4972 35.5827 33.8893 34.6441 33.892 33.6646C33.8896 32.6852 33.4977 31.7465 32.802 31.0541C32.1063 30.3618 31.1635 29.9719 30.18 29.9701ZM19.9474 33.9892C19.9478 33.9892 19.9482 33.9891 19.9485 33.9891C20.015 33.9775 20.0833 33.9818 20.148 34.0012L20.994 34.2072C21.0585 34.2215 21.1194 34.2487 21.173 34.2871C21.2267 34.3255 21.2719 34.3743 21.3061 34.4307C21.3402 34.487 21.3625 34.5497 21.3716 34.6148C21.3807 34.68 21.3764 34.7462 21.359 34.8097L20.119 39.8186C20.1047 39.8829 20.0774 39.9435 20.0388 39.997C20.0003 40.0504 19.9512 40.0955 19.8947 40.1295C19.8381 40.1634 19.7752 40.1857 19.7097 40.1947C19.6443 40.2038 19.5777 40.1994 19.514 40.1821L18.668 39.976C18.6034 39.9618 18.5424 39.9345 18.4886 39.8961C18.4349 39.8576 18.3896 39.8087 18.3554 39.7523C18.3213 39.6958 18.299 39.633 18.29 39.5677C18.281 39.5025 18.2854 39.436 18.303 39.3725L19.543 34.3636C19.5648 34.268 19.6149 34.1812 19.687 34.1144C19.759 34.0477 19.8494 34.0041 19.9465 33.9892C19.9468 33.9892 19.9471 33.9892 19.9474 33.9892Z"/>
</mask>
<path d="M25.215 9.3365C25.215 9.33565 25.2143 9.33496 25.2135 9.33493C24.7398 9.31957 24.2658 9.35299 23.799 9.4346C21.019 9.91458 18.624 12.0456 17.889 15.0151L17.373 17.0984C16.747 19.6227 16.931 22.1012 17.76 24.0938C17.8982 24.4255 18.0601 24.7375 18.2349 25.0415C18.2368 25.0447 18.2365 25.0487 18.2341 25.0516C18.2317 25.0547 18.2315 25.0591 18.2337 25.0624C20.1038 27.8429 19.8247 30.6725 19.4134 32.6185C19.3341 32.9935 19.0638 33.2923 18.8313 33.597C18.7094 33.7567 18.6212 33.9391 18.572 34.1336L17.332 39.1425C17.135 39.9372 17.632 40.7548 18.43 40.9509L19.275 41.157C19.6609 41.2501 20.0681 41.1877 20.408 40.9833C20.7479 40.7789 20.993 40.4491 21.09 40.0656L22.332 35.0567C22.5148 34.314 22.2331 33.4826 22.4687 32.7549C23.0643 30.915 24.199 28.624 26.87 27.1815C26.8728 27.18 26.8741 27.1766 26.8729 27.1737C26.8718 27.1709 26.8728 27.1677 26.8753 27.1661C27.1718 26.9777 27.4623 26.7764 27.741 26.5465C29.405 25.1663 30.726 23.0552 31.351 20.5308L31.867 18.4496C32.848 14.4913 30.524 10.4861 26.66 9.53713C26.1871 9.42085 25.7033 9.35417 25.2165 9.33807C25.2157 9.33804 25.215 9.33735 25.215 9.3365ZM25.178 10.3268C25.2564 10.33 25.3352 10.3349 25.4142 10.3415C25.6918 10.3644 25.8703 10.6367 25.8032 10.9071C25.7401 11.1615 25.4829 11.3168 25.2283 11.2542L24.9209 11.1786C24.6854 11.1207 24.5417 10.8825 24.6005 10.6471C24.6467 10.4623 24.807 10.3267 24.9976 10.3253C25.0577 10.3248 25.1178 10.3253 25.178 10.3268ZM23.3976 10.5526C23.4931 10.5274 23.5791 10.6146 23.5549 10.7103C23.5372 10.7803 23.4665 10.823 23.3964 10.806L23.3887 10.8041C23.254 10.7715 23.2471 10.5927 23.381 10.557C23.3865 10.5555 23.3921 10.5541 23.3976 10.5526ZM26.7764 11.146C26.843 10.8767 27.126 10.7198 27.3807 10.8297C27.5086 10.885 27.6338 10.9444 27.7563 11.0079C27.9272 11.0966 28.0082 11.2933 27.9618 11.4802C27.9039 11.7134 27.6681 11.8557 27.4347 11.7984L27.1246 11.7221C26.8692 11.6594 26.7132 11.4013 26.7764 11.146ZM21.9654 12.003C22.0332 11.7304 22.3087 11.5641 22.5815 11.6311L22.7879 11.6819C23.0612 11.7491 23.2282 12.0253 23.1607 12.2986C23.0934 12.571 22.8184 12.7377 22.5457 12.6712L22.3392 12.6209C22.065 12.554 21.8973 12.277 21.9654 12.003ZM28.8629 12.0085C28.8872 11.9109 29.0058 11.8734 29.08 11.9413C29.0844 11.9454 29.0889 11.9495 29.0933 11.9536C29.197 12.0491 29.1062 12.2076 28.9692 12.1741L28.9619 12.1724C28.8891 12.1546 28.8447 12.0811 28.8629 12.0085ZM20.7285 12.055C20.8045 11.9837 20.9212 12.057 20.8962 12.1582C20.8824 12.2145 20.8253 12.2495 20.769 12.2356C20.6896 12.216 20.6623 12.1173 20.7219 12.0612C20.7241 12.0592 20.7263 12.0571 20.7285 12.055ZM24.132 12.5364C24.1994 12.2625 24.4759 12.0951 24.7498 12.1623L24.9536 12.2123C25.2281 12.2797 25.3957 12.5571 25.3277 12.8314C25.2599 13.1048 24.9835 13.2717 24.71 13.2045L24.5061 13.1544C24.2321 13.0871 24.0646 12.8103 24.132 12.5364ZM26.3013 13.0678C26.3691 12.7956 26.6444 12.6295 26.9168 12.6965L27.1232 12.7472C27.3968 12.8145 27.5637 13.0912 27.4956 13.3645C27.4278 13.6368 27.1526 13.8028 26.8801 13.7358L26.6738 13.6851C26.4002 13.6178 26.2333 13.3412 26.3013 13.0678ZM19.7063 13.3015C19.8078 13.1416 20.0021 13.0705 20.1859 13.1161C20.4318 13.1771 20.5817 13.4259 20.5208 13.6718L20.5025 13.7457C20.4387 14.0037 20.1781 14.1613 19.9199 14.0981C19.6222 14.0252 19.4668 13.6959 19.6248 13.4333C19.6515 13.389 19.6787 13.345 19.7063 13.3015ZM28.4688 13.5989C28.5363 13.3266 28.8115 13.1603 29.084 13.2272L29.2922 13.2783C29.5653 13.3454 29.7323 13.6214 29.6648 13.8945C29.5975 14.167 29.3222 14.3335 29.0495 14.2666L28.8413 14.2155C28.568 14.1484 28.401 13.8721 28.4688 13.5989ZM21.4793 13.9557C21.5466 13.6842 21.8207 13.5183 22.0924 13.5847L22.3044 13.6365C22.5773 13.7032 22.7442 13.9788 22.6767 14.2515C22.6094 14.5232 22.3349 14.6892 22.0631 14.6226L21.8511 14.5706C21.5784 14.5038 21.4118 14.2282 21.4793 13.9557ZM23.6473 14.4887C23.7145 14.2166 23.9894 14.0504 24.2615 14.1171L24.4725 14.1689C24.7454 14.2358 24.9122 14.5116 24.8447 14.7843C24.7774 15.0561 24.5029 15.2222 24.231 15.1558L24.0199 15.1042C23.7468 15.0375 23.5798 14.7616 23.6473 14.4887ZM30.5397 14.521C30.565 14.4176 30.7052 14.4065 30.7398 14.5072C30.7408 14.5103 30.7419 14.5134 30.7429 14.5165C30.7697 14.595 30.6988 14.6706 30.6182 14.651C30.5607 14.6371 30.5256 14.5784 30.5397 14.521ZM25.8165 15.0192C25.8842 14.7477 26.1587 14.5821 26.4304 14.6489L26.6409 14.7006C26.9136 14.7676 27.0802 15.0432 27.0127 15.3158C26.9455 15.5877 26.6708 15.7538 26.3988 15.6871L26.1883 15.6355C25.9151 15.5684 25.7483 15.2921 25.8165 15.0192ZM18.859 15.2491C18.9104 15.0444 19.1364 14.9311 19.3414 14.9815L19.6514 15.0578C19.9245 15.125 20.0913 15.4009 20.0238 15.6739C19.9565 15.9465 19.6812 16.113 19.4085 16.0461L19.3043 16.0205C18.9734 15.9393 18.7712 15.6051 18.8528 15.2743L18.859 15.2491ZM27.9845 15.552C28.0522 15.2805 28.3267 15.1149 28.5985 15.1816L28.8083 15.2331C29.0813 15.3002 29.2479 15.5762 29.1801 15.849C29.1126 16.1206 28.838 16.2865 28.5661 16.2198L28.3563 16.1683C28.083 16.1013 27.9163 15.8249 27.9845 15.552ZM20.9953 15.9105C21.0626 15.6391 21.3368 15.4732 21.6085 15.5396L21.8195 15.5912C22.0924 15.6579 22.2592 15.9336 22.1917 16.2062C22.1244 16.478 21.8499 16.644 21.578 16.5773L21.367 16.5255C21.0943 16.4586 20.9278 16.183 20.9953 15.9105ZM30.1609 16.0452C30.2228 15.7948 30.4761 15.642 30.7265 15.704C30.9136 15.7504 31.0546 15.9069 31.0698 16.0991C31.0735 16.1457 31.0767 16.1925 31.0794 16.2394C31.0972 16.5481 30.8043 16.7694 30.5039 16.6958C30.2418 16.6316 30.0815 16.3668 30.1462 16.1047L30.1609 16.0452ZM23.1632 16.4435C23.2305 16.1714 23.5054 16.0052 23.7776 16.072L23.9877 16.1236C24.2605 16.1906 24.4272 16.4663 24.3597 16.739C24.2924 17.0108 24.0179 17.1769 23.7459 17.1104L23.5358 17.059C23.2627 16.9923 23.0958 16.7164 23.1632 16.4435ZM25.3323 16.9748C25.4001 16.7024 25.6756 16.5362 25.9482 16.6032L26.1549 16.654C26.4282 16.7211 26.5953 16.9973 26.5278 17.2706C26.4605 17.5435 26.1849 17.7102 25.9119 17.6432L25.7052 17.5925C25.4314 17.5253 25.2643 17.2484 25.3323 16.9748ZM18.344 17.3324C18.4108 17.0606 18.6852 16.8945 18.957 16.9611L19.1672 17.0127C19.4403 17.0797 19.6073 17.3557 19.5398 17.6287C19.4725 17.9012 19.1971 18.0677 18.9245 18.0006L18.7358 17.9542C18.4588 17.886 18.2745 17.6091 18.344 17.3324ZM27.5004 17.506C27.5681 17.2339 27.8433 17.0678 28.1157 17.1348L28.3233 17.1858C28.5964 17.253 28.7633 17.529 28.6958 17.802C28.6285 18.0745 28.3532 18.2411 28.0806 18.1742L27.8729 18.1232C27.5993 18.0561 27.4323 17.7794 27.5004 17.506ZM20.5112 17.8644C20.5785 17.5919 20.8538 17.4253 21.1264 17.4923L21.3352 17.5435C21.6083 17.6106 21.7752 17.8865 21.7078 18.1596C21.6405 18.4321 21.3652 18.5986 21.0926 18.5317L20.8839 18.4805C20.6107 18.4134 20.4437 18.1375 20.5112 17.8644ZM29.6672 18.0394C29.7345 17.767 30.0096 17.6005 30.2822 17.6672L30.6022 17.7455C30.8076 17.7958 30.9475 18.0006 30.896 18.2056L30.8898 18.2308C30.8081 18.5608 30.4747 18.7624 30.1445 18.6814L30.0399 18.6557C29.7667 18.5886 29.5997 18.3126 29.6672 18.0394ZM22.6805 18.3964C22.7482 18.1246 23.0229 17.9588 23.295 18.0254L23.503 18.0764C23.7762 18.1433 23.9432 18.4193 23.8758 18.6924C23.8085 18.9649 23.5332 19.1314 23.2607 19.0645L23.0527 19.0134C22.7792 18.9463 22.6123 18.6697 22.6805 18.3964ZM24.8484 18.9294C24.9162 18.6571 25.1915 18.4909 25.464 18.5579L25.6711 18.6088C25.9443 18.6759 26.1112 18.952 26.0438 19.2252C25.9765 19.4977 25.7013 19.6643 25.4286 19.5976L25.2215 19.547C24.9476 19.48 24.7803 19.2031 24.8484 18.9294ZM18.0261 19.4236C18.0464 19.1061 18.3542 18.885 18.6632 18.9608L18.6827 18.9656C18.956 19.0325 19.123 19.3088 19.0552 19.5819C18.9877 19.8542 18.7124 20.0203 18.4399 19.9532L18.4195 19.9481C18.1789 19.8888 18.0103 19.6708 18.0261 19.4236ZM27.016 19.4599C27.084 19.1876 27.3594 19.0216 27.6319 19.0886L27.8389 19.1395C28.1123 19.2067 28.2793 19.4829 28.2118 19.7562C28.1445 20.0291 27.8689 20.1958 27.596 20.1289L27.3889 20.0782C27.1148 20.011 26.9476 19.7337 27.016 19.4599ZM20.0268 19.8174C20.0943 19.5458 20.369 19.3799 20.6408 19.4467L20.8513 19.4983C21.1243 19.5653 21.2909 19.8413 21.2231 20.1141C21.1556 20.3858 20.881 20.5516 20.6091 20.4849L20.3987 20.4332C20.1257 20.3662 19.959 20.0902 20.0268 19.8174ZM29.1832 19.9943C29.2505 19.7218 29.5257 19.5553 29.7983 19.6221L30.0095 19.6738C30.2823 19.7406 30.4488 20.0164 30.381 20.2889C30.3117 20.5649 30.0225 20.7252 29.7462 20.6573L29.5559 20.6105C29.2826 20.5434 29.1157 20.2674 29.1832 19.9943ZM22.1963 20.351C22.2635 20.0794 22.5379 19.9135 22.8096 19.98L23.0191 20.0313C23.2921 20.0981 23.4589 20.3741 23.3911 20.6468C23.3236 20.9184 23.049 21.0842 22.7773 21.0174L22.5678 20.9659C22.2952 20.8989 22.1288 20.6234 22.1963 20.351ZM24.3634 20.8818C24.4312 20.6096 24.7063 20.4436 24.9787 20.5105L25.1866 20.5616C25.46 20.6287 25.627 20.9051 25.5592 21.1783C25.4916 21.4506 25.2164 21.6169 24.944 21.5501L24.736 21.499C24.4623 21.4319 24.2953 21.1552 24.3634 20.8818ZM18.0738 21.2715C18.0519 21.0796 18.2299 20.9291 18.4174 20.9755C18.5696 21.0132 18.6624 21.1671 18.6248 21.3192L18.4893 21.8667C18.4669 21.9569 18.3762 22.0124 18.2857 21.9911C18.2202 21.9757 18.1699 21.9232 18.1583 21.8569C18.1244 21.6628 18.0962 21.4674 18.0738 21.2715ZM26.5314 21.4151C26.5991 21.1426 26.8746 20.9764 27.1472 21.0434L27.3542 21.0942C27.6279 21.1614 27.795 21.4379 27.7272 21.7114C27.6597 21.9841 27.3841 22.1506 27.1113 22.0836L26.9043 22.0328C26.6304 21.9656 26.4633 21.6887 26.5314 21.4151ZM19.5422 21.7739C19.6095 21.5014 19.8847 21.3349 20.1573 21.4018L20.3662 21.4531C20.6393 21.5201 20.8062 21.7961 20.7388 22.0691C20.6715 22.3416 20.3962 22.5081 20.1236 22.4412L19.9148 22.3899C19.6416 22.3229 19.4747 22.0469 19.5422 21.7739ZM28.6982 21.9489C28.7655 21.6765 29.0406 21.51 29.3131 21.5768L29.3319 21.5814C29.6422 21.6574 29.8136 21.9971 29.6839 22.2891C29.5834 22.5154 29.3335 22.6291 29.093 22.5703L29.0712 22.565C28.7979 22.4981 28.6308 22.222 28.6982 21.9489ZM21.7121 22.3068C21.7794 22.0343 22.0548 21.8678 22.3275 21.9348L22.5343 21.9856C22.8074 22.0527 22.9743 22.3287 22.9068 22.6017C22.8395 22.8743 22.5641 23.0408 22.2914 22.9738L22.0846 22.9229C21.8115 22.8558 21.6447 22.5798 21.7121 22.3068ZM23.8794 22.8373C23.9472 22.5658 24.2218 22.4002 24.4935 22.467L24.703 22.5185C24.9757 22.5856 25.1422 22.8612 25.0748 23.1338C25.0075 23.4057 24.7327 23.5718 24.4607 23.505L24.2512 23.4536C23.978 23.3865 23.8113 23.1102 23.8794 22.8373ZM26.0462 23.3704C26.1135 23.0978 26.3888 22.9311 26.6616 22.9978L26.8709 23.0491C27.145 23.1161 27.3123 23.3934 27.2439 23.6671C27.1759 23.939 26.9011 24.1048 26.6289 24.0382L26.4196 23.987C26.146 23.9201 25.9787 23.6438 26.0462 23.3704ZM19.0579 23.7269C19.1254 23.4553 19.3999 23.2895 19.6718 23.3562L19.8827 23.4079C20.1555 23.4749 20.3222 23.7505 20.2547 24.0232C20.1874 24.295 19.9128 24.4611 19.6408 24.3944L19.4298 24.3427C19.1568 24.2757 18.9901 23.9997 19.0579 23.7269ZM28.336 23.4126C28.336 23.4117 28.3368 23.411 28.3377 23.4112L28.6513 23.4879C28.8207 23.5292 28.8993 23.7245 28.8008 23.8684C28.6819 24.042 28.5576 24.2119 28.4278 24.3777C28.3873 24.4295 28.3201 24.4523 28.2562 24.4368C28.1651 24.4146 28.1094 24.3226 28.1321 24.2316L28.3359 23.4129C28.336 23.4128 28.336 23.4127 28.336 23.4126ZM21.2278 24.2599C21.2953 23.9882 21.57 23.8224 21.8419 23.8892L22.051 23.9406C22.3237 24.0076 22.4902 24.2832 22.4228 24.5557C22.3555 24.8277 22.0807 24.9937 21.8087 24.9269L21.5996 24.8756C21.3266 24.8086 21.16 24.5326 21.2278 24.2599ZM23.3944 24.7912C23.4622 24.5191 23.7373 24.3531 24.0096 24.42L24.2182 24.4713C24.4914 24.5384 24.6583 24.8144 24.5908 25.0874C24.5235 25.3599 24.2482 25.5265 23.9756 25.4596L23.767 25.4084C23.4933 25.3413 23.3263 25.0646 23.3944 24.7912ZM25.5612 25.3248C25.6285 25.0523 25.9036 24.8858 26.1762 24.9525L26.3867 25.004C26.6604 25.071 26.8276 25.3478 26.7595 25.6213C26.6918 25.8934 26.4168 26.0594 26.1445 25.9926L25.934 25.941C25.6607 25.874 25.4937 25.5979 25.5612 25.3248ZM19.8019 25.5414C19.7714 25.5087 19.8012 25.4598 19.8447 25.4704L19.8492 25.4715C19.8729 25.4773 19.8874 25.5012 19.8817 25.5248C19.8733 25.5594 19.8293 25.5707 19.805 25.5447C19.804 25.5436 19.803 25.5425 19.8019 25.5414ZM20.7685 26.1102C20.8218 25.8951 21.0392 25.7638 21.2544 25.8167L21.6086 25.9038C21.8578 25.9651 22.0099 26.2169 21.9482 26.466C21.8819 26.7339 21.5965 26.8866 21.3493 26.7638C21.205 26.6921 21.0645 26.6129 20.9283 26.5266C20.7896 26.4386 20.7289 26.2697 20.7685 26.1102ZM23.033 26.2575C23.033 26.2556 23.0347 26.2542 23.0365 26.2547L23.8376 26.4515C24.0531 26.5045 24.1846 26.7223 24.1312 26.9377C24.0918 27.0966 23.9599 27.2172 23.7967 27.2309C23.7282 27.2366 23.6596 27.2409 23.591 27.2437C23.1677 27.261 22.886 26.8488 22.9882 26.4377L23.0329 26.2581C23.033 26.2579 23.033 26.2577 23.033 26.2575ZM25.1884 26.8282C25.1943 26.8051 25.2177 26.791 25.2408 26.7967L25.2469 26.7982C25.2902 26.8087 25.2937 26.8651 25.2515 26.8794C25.2499 26.88 25.2482 26.8806 25.2465 26.8811C25.2133 26.8925 25.1798 26.8623 25.1884 26.8282ZM20.5726 28.3254C20.5158 27.9743 20.9239 27.671 21.2519 27.8086C21.4372 27.8864 21.5488 28.0854 21.5005 28.2805L20.439 32.5612C20.6651 31.3908 20.8317 29.928 20.5726 28.3254ZM22.4722 28.5155C22.5202 28.3218 22.7098 28.1982 22.9087 28.215C23.2627 28.245 23.4828 28.7029 23.2692 28.9867C22.2874 30.2913 21.7521 31.6686 21.406 32.8121L22.4722 28.5155ZM30.18 29.9701C29.1964 29.9717 28.2536 30.3614 27.558 31.0539C26.8624 31.7464 26.4708 32.6852 26.469 33.6646C26.4714 34.6437 26.863 35.582 27.5582 36.2743C28.2535 36.9667 29.1958 37.3566 30.179 37.359C31.1626 37.3572 32.1055 36.9674 32.8014 36.2751C33.4972 35.5827 33.8893 34.6441 33.892 33.6646C33.8896 32.6852 33.4977 31.7465 32.802 31.0541C32.1063 30.3618 31.1635 29.9719 30.18 29.9701ZM19.9474 33.9892C19.9478 33.9892 19.9482 33.9891 19.9485 33.9891C20.015 33.9775 20.0833 33.9818 20.148 34.0012L20.994 34.2072C21.0585 34.2215 21.1194 34.2487 21.173 34.2871C21.2267 34.3255 21.2719 34.3743 21.3061 34.4307C21.3402 34.487 21.3625 34.5497 21.3716 34.6148C21.3807 34.68 21.3764 34.7462 21.359 34.8097L20.119 39.8186C20.1047 39.8829 20.0774 39.9435 20.0388 39.997C20.0003 40.0504 19.9512 40.0955 19.8947 40.1295C19.8381 40.1634 19.7752 40.1857 19.7097 40.1947C19.6443 40.2038 19.5777 40.1994 19.514 40.1821L18.668 39.976C18.6034 39.9618 18.5424 39.9345 18.4886 39.8961C18.4349 39.8576 18.3896 39.8087 18.3554 39.7523C18.3213 39.6958 18.299 39.633 18.29 39.5677C18.281 39.5025 18.2854 39.436 18.303 39.3725L19.543 34.3636C19.5648 34.268 19.6149 34.1812 19.687 34.1144C19.759 34.0477 19.8494 34.0041 19.9465 33.9892C19.9468 33.9892 19.9471 33.9892 19.9474 33.9892Z" fill="#575757"/>
<path d="M25.215 9.3365C25.215 9.33565 25.2143 9.33496 25.2135 9.33493C24.7398 9.31957 24.2658 9.35299 23.799 9.4346C21.019 9.91458 18.624 12.0456 17.889 15.0151L17.373 17.0984C16.747 19.6227 16.931 22.1012 17.76 24.0938C17.8982 24.4255 18.0601 24.7375 18.2349 25.0415C18.2368 25.0447 18.2365 25.0487 18.2341 25.0516C18.2317 25.0547 18.2315 25.0591 18.2337 25.0624C20.1038 27.8429 19.8247 30.6725 19.4134 32.6185C19.3341 32.9935 19.0638 33.2923 18.8313 33.597C18.7094 33.7567 18.6212 33.9391 18.572 34.1336L17.332 39.1425C17.135 39.9372 17.632 40.7548 18.43 40.9509L19.275 41.157C19.6609 41.2501 20.0681 41.1877 20.408 40.9833C20.7479 40.7789 20.993 40.4491 21.09 40.0656L22.332 35.0567C22.5148 34.314 22.2331 33.4826 22.4687 32.7549C23.0643 30.915 24.199 28.624 26.87 27.1815C26.8728 27.18 26.8741 27.1766 26.8729 27.1737C26.8718 27.1709 26.8728 27.1677 26.8753 27.1661C27.1718 26.9777 27.4623 26.7764 27.741 26.5465C29.405 25.1663 30.726 23.0552 31.351 20.5308L31.867 18.4496C32.848 14.4913 30.524 10.4861 26.66 9.53713C26.1871 9.42085 25.7033 9.35417 25.2165 9.33807C25.2157 9.33804 25.215 9.33735 25.215 9.3365ZM25.178 10.3268C25.2564 10.33 25.3352 10.3349 25.4142 10.3415C25.6918 10.3644 25.8703 10.6367 25.8032 10.9071C25.7401 11.1615 25.4829 11.3168 25.2283 11.2542L24.9209 11.1786C24.6854 11.1207 24.5417 10.8825 24.6005 10.6471C24.6467 10.4623 24.807 10.3267 24.9976 10.3253C25.0577 10.3248 25.1178 10.3253 25.178 10.3268ZM23.3976 10.5526C23.4931 10.5274 23.5791 10.6146 23.5549 10.7103C23.5372 10.7803 23.4665 10.823 23.3964 10.806L23.3887 10.8041C23.254 10.7715 23.2471 10.5927 23.381 10.557C23.3865 10.5555 23.3921 10.5541 23.3976 10.5526ZM26.7764 11.146C26.843 10.8767 27.126 10.7198 27.3807 10.8297C27.5086 10.885 27.6338 10.9444 27.7563 11.0079C27.9272 11.0966 28.0082 11.2933 27.9618 11.4802C27.9039 11.7134 27.6681 11.8557 27.4347 11.7984L27.1246 11.7221C26.8692 11.6594 26.7132 11.4013 26.7764 11.146ZM21.9654 12.003C22.0332 11.7304 22.3087 11.5641 22.5815 11.6311L22.7879 11.6819C23.0612 11.7491 23.2282 12.0253 23.1607 12.2986C23.0934 12.571 22.8184 12.7377 22.5457 12.6712L22.3392 12.6209C22.065 12.554 21.8973 12.277 21.9654 12.003ZM28.8629 12.0085C28.8872 11.9109 29.0058 11.8734 29.08 11.9413C29.0844 11.9454 29.0889 11.9495 29.0933 11.9536C29.197 12.0491 29.1062 12.2076 28.9692 12.1741L28.9619 12.1724C28.8891 12.1546 28.8447 12.0811 28.8629 12.0085ZM20.7285 12.055C20.8045 11.9837 20.9212 12.057 20.8962 12.1582C20.8824 12.2145 20.8253 12.2495 20.769 12.2356C20.6896 12.216 20.6623 12.1173 20.7219 12.0612C20.7241 12.0592 20.7263 12.0571 20.7285 12.055ZM24.132 12.5364C24.1994 12.2625 24.4759 12.0951 24.7498 12.1623L24.9536 12.2123C25.2281 12.2797 25.3957 12.5571 25.3277 12.8314C25.2599 13.1048 24.9835 13.2717 24.71 13.2045L24.5061 13.1544C24.2321 13.0871 24.0646 12.8103 24.132 12.5364ZM26.3013 13.0678C26.3691 12.7956 26.6444 12.6295 26.9168 12.6965L27.1232 12.7472C27.3968 12.8145 27.5637 13.0912 27.4956 13.3645C27.4278 13.6368 27.1526 13.8028 26.8801 13.7358L26.6738 13.6851C26.4002 13.6178 26.2333 13.3412 26.3013 13.0678ZM19.7063 13.3015C19.8078 13.1416 20.0021 13.0705 20.1859 13.1161C20.4318 13.1771 20.5817 13.4259 20.5208 13.6718L20.5025 13.7457C20.4387 14.0037 20.1781 14.1613 19.9199 14.0981C19.6222 14.0252 19.4668 13.6959 19.6248 13.4333C19.6515 13.389 19.6787 13.345 19.7063 13.3015ZM28.4688 13.5989C28.5363 13.3266 28.8115 13.1603 29.084 13.2272L29.2922 13.2783C29.5653 13.3454 29.7323 13.6214 29.6648 13.8945C29.5975 14.167 29.3222 14.3335 29.0495 14.2666L28.8413 14.2155C28.568 14.1484 28.401 13.8721 28.4688 13.5989ZM21.4793 13.9557C21.5466 13.6842 21.8207 13.5183 22.0924 13.5847L22.3044 13.6365C22.5773 13.7032 22.7442 13.9788 22.6767 14.2515C22.6094 14.5232 22.3349 14.6892 22.0631 14.6226L21.8511 14.5706C21.5784 14.5038 21.4118 14.2282 21.4793 13.9557ZM23.6473 14.4887C23.7145 14.2166 23.9894 14.0504 24.2615 14.1171L24.4725 14.1689C24.7454 14.2358 24.9122 14.5116 24.8447 14.7843C24.7774 15.0561 24.5029 15.2222 24.231 15.1558L24.0199 15.1042C23.7468 15.0375 23.5798 14.7616 23.6473 14.4887ZM30.5397 14.521C30.565 14.4176 30.7052 14.4065 30.7398 14.5072C30.7408 14.5103 30.7419 14.5134 30.7429 14.5165C30.7697 14.595 30.6988 14.6706 30.6182 14.651C30.5607 14.6371 30.5256 14.5784 30.5397 14.521ZM25.8165 15.0192C25.8842 14.7477 26.1587 14.5821 26.4304 14.6489L26.6409 14.7006C26.9136 14.7676 27.0802 15.0432 27.0127 15.3158C26.9455 15.5877 26.6708 15.7538 26.3988 15.6871L26.1883 15.6355C25.9151 15.5684 25.7483 15.2921 25.8165 15.0192ZM18.859 15.2491C18.9104 15.0444 19.1364 14.9311 19.3414 14.9815L19.6514 15.0578C19.9245 15.125 20.0913 15.4009 20.0238 15.6739C19.9565 15.9465 19.6812 16.113 19.4085 16.0461L19.3043 16.0205C18.9734 15.9393 18.7712 15.6051 18.8528 15.2743L18.859 15.2491ZM27.9845 15.552C28.0522 15.2805 28.3267 15.1149 28.5985 15.1816L28.8083 15.2331C29.0813 15.3002 29.2479 15.5762 29.1801 15.849C29.1126 16.1206 28.838 16.2865 28.5661 16.2198L28.3563 16.1683C28.083 16.1013 27.9163 15.8249 27.9845 15.552ZM20.9953 15.9105C21.0626 15.6391 21.3368 15.4732 21.6085 15.5396L21.8195 15.5912C22.0924 15.6579 22.2592 15.9336 22.1917 16.2062C22.1244 16.478 21.8499 16.644 21.578 16.5773L21.367 16.5255C21.0943 16.4586 20.9278 16.183 20.9953 15.9105ZM30.1609 16.0452C30.2228 15.7948 30.4761 15.642 30.7265 15.704C30.9136 15.7504 31.0546 15.9069 31.0698 16.0991C31.0735 16.1457 31.0767 16.1925 31.0794 16.2394C31.0972 16.5481 30.8043 16.7694 30.5039 16.6958C30.2418 16.6316 30.0815 16.3668 30.1462 16.1047L30.1609 16.0452ZM23.1632 16.4435C23.2305 16.1714 23.5054 16.0052 23.7776 16.072L23.9877 16.1236C24.2605 16.1906 24.4272 16.4663 24.3597 16.739C24.2924 17.0108 24.0179 17.1769 23.7459 17.1104L23.5358 17.059C23.2627 16.9923 23.0958 16.7164 23.1632 16.4435ZM25.3323 16.9748C25.4001 16.7024 25.6756 16.5362 25.9482 16.6032L26.1549 16.654C26.4282 16.7211 26.5953 16.9973 26.5278 17.2706C26.4605 17.5435 26.1849 17.7102 25.9119 17.6432L25.7052 17.5925C25.4314 17.5253 25.2643 17.2484 25.3323 16.9748ZM18.344 17.3324C18.4108 17.0606 18.6852 16.8945 18.957 16.9611L19.1672 17.0127C19.4403 17.0797 19.6073 17.3557 19.5398 17.6287C19.4725 17.9012 19.1971 18.0677 18.9245 18.0006L18.7358 17.9542C18.4588 17.886 18.2745 17.6091 18.344 17.3324ZM27.5004 17.506C27.5681 17.2339 27.8433 17.0678 28.1157 17.1348L28.3233 17.1858C28.5964 17.253 28.7633 17.529 28.6958 17.802C28.6285 18.0745 28.3532 18.2411 28.0806 18.1742L27.8729 18.1232C27.5993 18.0561 27.4323 17.7794 27.5004 17.506ZM20.5112 17.8644C20.5785 17.5919 20.8538 17.4253 21.1264 17.4923L21.3352 17.5435C21.6083 17.6106 21.7752 17.8865 21.7078 18.1596C21.6405 18.4321 21.3652 18.5986 21.0926 18.5317L20.8839 18.4805C20.6107 18.4134 20.4437 18.1375 20.5112 17.8644ZM29.6672 18.0394C29.7345 17.767 30.0096 17.6005 30.2822 17.6672L30.6022 17.7455C30.8076 17.7958 30.9475 18.0006 30.896 18.2056L30.8898 18.2308C30.8081 18.5608 30.4747 18.7624 30.1445 18.6814L30.0399 18.6557C29.7667 18.5886 29.5997 18.3126 29.6672 18.0394ZM22.6805 18.3964C22.7482 18.1246 23.0229 17.9588 23.295 18.0254L23.503 18.0764C23.7762 18.1433 23.9432 18.4193 23.8758 18.6924C23.8085 18.9649 23.5332 19.1314 23.2607 19.0645L23.0527 19.0134C22.7792 18.9463 22.6123 18.6697 22.6805 18.3964ZM24.8484 18.9294C24.9162 18.6571 25.1915 18.4909 25.464 18.5579L25.6711 18.6088C25.9443 18.6759 26.1112 18.952 26.0438 19.2252C25.9765 19.4977 25.7013 19.6643 25.4286 19.5976L25.2215 19.547C24.9476 19.48 24.7803 19.2031 24.8484 18.9294ZM18.0261 19.4236C18.0464 19.1061 18.3542 18.885 18.6632 18.9608L18.6827 18.9656C18.956 19.0325 19.123 19.3088 19.0552 19.5819C18.9877 19.8542 18.7124 20.0203 18.4399 19.9532L18.4195 19.9481C18.1789 19.8888 18.0103 19.6708 18.0261 19.4236ZM27.016 19.4599C27.084 19.1876 27.3594 19.0216 27.6319 19.0886L27.8389 19.1395C28.1123 19.2067 28.2793 19.4829 28.2118 19.7562C28.1445 20.0291 27.8689 20.1958 27.596 20.1289L27.3889 20.0782C27.1148 20.011 26.9476 19.7337 27.016 19.4599ZM20.0268 19.8174C20.0943 19.5458 20.369 19.3799 20.6408 19.4467L20.8513 19.4983C21.1243 19.5653 21.2909 19.8413 21.2231 20.1141C21.1556 20.3858 20.881 20.5516 20.6091 20.4849L20.3987 20.4332C20.1257 20.3662 19.959 20.0902 20.0268 19.8174ZM29.1832 19.9943C29.2505 19.7218 29.5257 19.5553 29.7983 19.6221L30.0095 19.6738C30.2823 19.7406 30.4488 20.0164 30.381 20.2889C30.3117 20.5649 30.0225 20.7252 29.7462 20.6573L29.5559 20.6105C29.2826 20.5434 29.1157 20.2674 29.1832 19.9943ZM22.1963 20.351C22.2635 20.0794 22.5379 19.9135 22.8096 19.98L23.0191 20.0313C23.2921 20.0981 23.4589 20.3741 23.3911 20.6468C23.3236 20.9184 23.049 21.0842 22.7773 21.0174L22.5678 20.9659C22.2952 20.8989 22.1288 20.6234 22.1963 20.351ZM24.3634 20.8818C24.4312 20.6096 24.7063 20.4436 24.9787 20.5105L25.1866 20.5616C25.46 20.6287 25.627 20.9051 25.5592 21.1783C25.4916 21.4506 25.2164 21.6169 24.944 21.5501L24.736 21.499C24.4623 21.4319 24.2953 21.1552 24.3634 20.8818ZM18.0738 21.2715C18.0519 21.0796 18.2299 20.9291 18.4174 20.9755C18.5696 21.0132 18.6624 21.1671 18.6248 21.3192L18.4893 21.8667C18.4669 21.9569 18.3762 22.0124 18.2857 21.9911C18.2202 21.9757 18.1699 21.9232 18.1583 21.8569C18.1244 21.6628 18.0962 21.4674 18.0738 21.2715ZM26.5314 21.4151C26.5991 21.1426 26.8746 20.9764 27.1472 21.0434L27.3542 21.0942C27.6279 21.1614 27.795 21.4379 27.7272 21.7114C27.6597 21.9841 27.3841 22.1506 27.1113 22.0836L26.9043 22.0328C26.6304 21.9656 26.4633 21.6887 26.5314 21.4151ZM19.5422 21.7739C19.6095 21.5014 19.8847 21.3349 20.1573 21.4018L20.3662 21.4531C20.6393 21.5201 20.8062 21.7961 20.7388 22.0691C20.6715 22.3416 20.3962 22.5081 20.1236 22.4412L19.9148 22.3899C19.6416 22.3229 19.4747 22.0469 19.5422 21.7739ZM28.6982 21.9489C28.7655 21.6765 29.0406 21.51 29.3131 21.5768L29.3319 21.5814C29.6422 21.6574 29.8136 21.9971 29.6839 22.2891C29.5834 22.5154 29.3335 22.6291 29.093 22.5703L29.0712 22.565C28.7979 22.4981 28.6308 22.222 28.6982 21.9489ZM21.7121 22.3068C21.7794 22.0343 22.0548 21.8678 22.3275 21.9348L22.5343 21.9856C22.8074 22.0527 22.9743 22.3287 22.9068 22.6017C22.8395 22.8743 22.5641 23.0408 22.2914 22.9738L22.0846 22.9229C21.8115 22.8558 21.6447 22.5798 21.7121 22.3068ZM23.8794 22.8373C23.9472 22.5658 24.2218 22.4002 24.4935 22.467L24.703 22.5185C24.9757 22.5856 25.1422 22.8612 25.0748 23.1338C25.0075 23.4057 24.7327 23.5718 24.4607 23.505L24.2512 23.4536C23.978 23.3865 23.8113 23.1102 23.8794 22.8373ZM26.0462 23.3704C26.1135 23.0978 26.3888 22.9311 26.6616 22.9978L26.8709 23.0491C27.145 23.1161 27.3123 23.3934 27.2439 23.6671C27.1759 23.939 26.9011 24.1048 26.6289 24.0382L26.4196 23.987C26.146 23.9201 25.9787 23.6438 26.0462 23.3704ZM19.0579 23.7269C19.1254 23.4553 19.3999 23.2895 19.6718 23.3562L19.8827 23.4079C20.1555 23.4749 20.3222 23.7505 20.2547 24.0232C20.1874 24.295 19.9128 24.4611 19.6408 24.3944L19.4298 24.3427C19.1568 24.2757 18.9901 23.9997 19.0579 23.7269ZM28.336 23.4126C28.336 23.4117 28.3368 23.411 28.3377 23.4112L28.6513 23.4879C28.8207 23.5292 28.8993 23.7245 28.8008 23.8684C28.6819 24.042 28.5576 24.2119 28.4278 24.3777C28.3873 24.4295 28.3201 24.4523 28.2562 24.4368C28.1651 24.4146 28.1094 24.3226 28.1321 24.2316L28.3359 23.4129C28.336 23.4128 28.336 23.4127 28.336 23.4126ZM21.2278 24.2599C21.2953 23.9882 21.57 23.8224 21.8419 23.8892L22.051 23.9406C22.3237 24.0076 22.4902 24.2832 22.4228 24.5557C22.3555 24.8277 22.0807 24.9937 21.8087 24.9269L21.5996 24.8756C21.3266 24.8086 21.16 24.5326 21.2278 24.2599ZM23.3944 24.7912C23.4622 24.5191 23.7373 24.3531 24.0096 24.42L24.2182 24.4713C24.4914 24.5384 24.6583 24.8144 24.5908 25.0874C24.5235 25.3599 24.2482 25.5265 23.9756 25.4596L23.767 25.4084C23.4933 25.3413 23.3263 25.0646 23.3944 24.7912ZM25.5612 25.3248C25.6285 25.0523 25.9036 24.8858 26.1762 24.9525L26.3867 25.004C26.6604 25.071 26.8276 25.3478 26.7595 25.6213C26.6918 25.8934 26.4168 26.0594 26.1445 25.9926L25.934 25.941C25.6607 25.874 25.4937 25.5979 25.5612 25.3248ZM19.8019 25.5414C19.7714 25.5087 19.8012 25.4598 19.8447 25.4704L19.8492 25.4715C19.8729 25.4773 19.8874 25.5012 19.8817 25.5248C19.8733 25.5594 19.8293 25.5707 19.805 25.5447C19.804 25.5436 19.803 25.5425 19.8019 25.5414ZM20.7685 26.1102C20.8218 25.8951 21.0392 25.7638 21.2544 25.8167L21.6086 25.9038C21.8578 25.9651 22.0099 26.2169 21.9482 26.466C21.8819 26.7339 21.5965 26.8866 21.3493 26.7638C21.205 26.6921 21.0645 26.6129 20.9283 26.5266C20.7896 26.4386 20.7289 26.2697 20.7685 26.1102ZM23.033 26.2575C23.033 26.2556 23.0347 26.2542 23.0365 26.2547L23.8376 26.4515C24.0531 26.5045 24.1846 26.7223 24.1312 26.9377C24.0918 27.0966 23.9599 27.2172 23.7967 27.2309C23.7282 27.2366 23.6596 27.2409 23.591 27.2437C23.1677 27.261 22.886 26.8488 22.9882 26.4377L23.0329 26.2581C23.033 26.2579 23.033 26.2577 23.033 26.2575ZM25.1884 26.8282C25.1943 26.8051 25.2177 26.791 25.2408 26.7967L25.2469 26.7982C25.2902 26.8087 25.2937 26.8651 25.2515 26.8794C25.2499 26.88 25.2482 26.8806 25.2465 26.8811C25.2133 26.8925 25.1798 26.8623 25.1884 26.8282ZM20.5726 28.3254C20.5158 27.9743 20.9239 27.671 21.2519 27.8086C21.4372 27.8864 21.5488 28.0854 21.5005 28.2805L20.439 32.5612C20.6651 31.3908 20.8317 29.928 20.5726 28.3254ZM22.4722 28.5155C22.5202 28.3218 22.7098 28.1982 22.9087 28.215C23.2627 28.245 23.4828 28.7029 23.2692 28.9867C22.2874 30.2913 21.7521 31.6686 21.406 32.8121L22.4722 28.5155ZM30.18 29.9701C29.1964 29.9717 28.2536 30.3614 27.558 31.0539C26.8624 31.7464 26.4708 32.6852 26.469 33.6646C26.4714 34.6437 26.863 35.582 27.5582 36.2743C28.2535 36.9667 29.1958 37.3566 30.179 37.359C31.1626 37.3572 32.1055 36.9674 32.8014 36.2751C33.4972 35.5827 33.8893 34.6441 33.892 33.6646C33.8896 32.6852 33.4977 31.7465 32.802 31.0541C32.1063 30.3618 31.1635 29.9719 30.18 29.9701ZM19.9474 33.9892C19.9478 33.9892 19.9482 33.9891 19.9485 33.9891C20.015 33.9775 20.0833 33.9818 20.148 34.0012L20.994 34.2072C21.0585 34.2215 21.1194 34.2487 21.173 34.2871C21.2267 34.3255 21.2719 34.3743 21.3061 34.4307C21.3402 34.487 21.3625 34.5497 21.3716 34.6148C21.3807 34.68 21.3764 34.7462 21.359 34.8097L20.119 39.8186C20.1047 39.8829 20.0774 39.9435 20.0388 39.997C20.0003 40.0504 19.9512 40.0955 19.8947 40.1295C19.8381 40.1634 19.7752 40.1857 19.7097 40.1947C19.6443 40.2038 19.5777 40.1994 19.514 40.1821L18.668 39.976C18.6034 39.9618 18.5424 39.9345 18.4886 39.8961C18.4349 39.8576 18.3896 39.8087 18.3554 39.7523C18.3213 39.6958 18.299 39.633 18.29 39.5677C18.281 39.5025 18.2854 39.436 18.303 39.3725L19.543 34.3636C19.5648 34.268 19.6149 34.1812 19.687 34.1144C19.759 34.0477 19.8494 34.0041 19.9465 33.9892C19.9468 33.9892 19.9471 33.9892 19.9474 33.9892Z" stroke="black" mask="url(#path-2-outside-1_635_188)"/>
</svg>
