<svg width="50" height="50" viewBox="0 0 50 50" fill="none" xmlns="http://www.w3.org/2000/svg">
<circle cx="25" cy="25" r="25" fill="#FCFCFC"/>
<mask id="path-2-outside-1_3_62402" maskUnits="userSpaceOnUse" x="16" y="8" width="19" height="34" fill="black">
<rect fill="white" x="16" y="8" width="19" height="34"/>
<path d="M25.215 9.00522C25.215 9.00437 25.2143 9.00367 25.2135 9.00365C24.7398 8.98822 24.2658 9.02178 23.799 9.10373C21.019 9.58573 18.624 11.7257 17.889 14.7077L17.373 16.7998C16.747 19.3348 16.931 21.8237 17.76 23.8247C17.8982 24.1577 18.0601 24.4711 18.2349 24.7764C18.2368 24.7796 18.2365 24.7836 18.2341 24.7865C18.2317 24.7896 18.2315 24.794 18.2337 24.7973C20.1042 27.5902 19.8245 30.4323 19.4131 32.3865C19.334 32.7623 19.0636 33.0621 18.8313 33.3679C18.7094 33.5282 18.6212 33.7115 18.572 33.9067L17.332 38.9367C17.135 39.7347 17.632 40.5558 18.43 40.7528L19.275 40.9597C19.6609 41.0532 20.0681 40.9905 20.408 40.7853C20.7479 40.58 20.993 40.2488 21.09 39.8637L22.332 34.8337C22.5148 34.0877 22.233 33.2532 22.4687 32.5222C23.0643 30.6746 24.199 28.374 26.87 26.9254C26.8728 26.9239 26.8741 26.9205 26.8729 26.9175C26.8718 26.9147 26.8728 26.9115 26.8754 26.9099C27.1718 26.7207 27.4623 26.5186 27.741 26.2877C29.405 24.9017 30.726 22.7817 31.351 20.2467L31.867 18.1567C32.848 14.1817 30.524 10.1597 26.66 9.2067C26.1871 9.08993 25.7033 9.02297 25.2165 9.0068C25.2157 9.00677 25.215 9.00607 25.215 9.00522ZM25.178 9.99973C25.256 10.0029 25.3344 10.0078 25.413 10.0143C25.6914 10.0374 25.8705 10.3104 25.8035 10.5815C25.7402 10.8374 25.4816 10.9935 25.2258 10.9304L24.922 10.8554C24.6857 10.7971 24.5416 10.558 24.6004 10.3218C24.6466 10.1359 24.8078 9.9995 24.9993 9.99813C25.0589 9.9977 25.1184 9.99824 25.178 9.99973ZM23.397 10.2266C23.4928 10.2013 23.5791 10.2886 23.5549 10.3847C23.5372 10.455 23.4662 10.4979 23.3957 10.4808L23.3881 10.4789C23.2532 10.4461 23.2462 10.2669 23.3803 10.2311C23.3859 10.2296 23.3914 10.2281 23.397 10.2266ZM26.7761 10.8234C26.8428 10.5526 27.1274 10.3948 27.3833 10.5059C27.5103 10.561 27.6346 10.6203 27.7563 10.6837C27.9273 10.7728 28.0083 10.9698 27.962 11.157C27.904 11.3916 27.6669 11.5348 27.4323 11.4769L27.1253 11.4011C26.8694 11.3379 26.7131 11.0793 26.7761 10.8234ZM21.9652 11.6839C22.033 11.4098 22.3101 11.2426 22.5843 11.3102L22.787 11.3603C23.061 11.4279 23.2284 11.7047 23.161 11.9788C23.0936 12.2528 22.817 12.4204 22.5429 12.3533L22.3401 12.3036C22.0652 12.2364 21.8972 11.9587 21.9652 11.6839ZM28.8627 11.6889C28.8871 11.5908 29.0063 11.5532 29.0807 11.6216C29.0851 11.6257 29.0895 11.6298 29.0939 11.6339C29.1976 11.7298 29.1064 11.8884 28.9692 11.8548L28.9619 11.853C28.8891 11.8352 28.8447 11.7616 28.8627 11.6889ZM20.728 11.7356C20.804 11.664 20.9211 11.7373 20.8962 11.8388C20.8824 11.8953 20.8251 11.9304 20.7687 11.9164C20.6892 11.8968 20.6619 11.7981 20.7214 11.7419C20.7236 11.7398 20.7258 11.7377 20.728 11.7356ZM24.1318 12.2195C24.1992 11.9442 24.4773 11.7758 24.7526 11.8436L24.9528 11.8929C25.2279 11.9607 25.3959 12.2388 25.3279 12.5139C25.26 12.7888 24.9821 12.9567 24.7071 12.8888L24.507 12.8394C24.2324 12.7717 24.0645 12.4943 24.1318 12.2195ZM26.3011 12.7532C26.369 12.4795 26.6458 12.3125 26.9196 12.3801L27.1223 12.4301C27.3965 12.4978 27.5638 12.7751 27.4959 13.0493C27.428 13.323 27.1512 13.49 26.8773 13.4224L26.6746 13.3724C26.4004 13.3046 26.2331 13.0273 26.3011 12.7532ZM19.7062 12.987C19.8077 12.8265 20.0026 12.755 20.1868 12.801C20.4323 12.8622 20.582 13.1105 20.5214 13.3562L20.5024 13.4335C20.4386 13.6921 20.1774 13.8502 19.9187 13.7866C19.6214 13.7134 19.466 13.3846 19.6233 13.1219C19.6504 13.0765 19.6781 13.0315 19.7062 12.987ZM28.4685 13.2865C28.5362 13.0127 28.8129 12.8455 29.0868 12.913L29.2913 12.9634C29.5651 13.031 29.7324 13.3076 29.665 13.5814C29.5976 13.8555 29.3208 14.023 29.0467 13.9554L28.8422 13.905C28.5682 13.8375 28.4009 13.5605 28.4685 13.2865ZM21.4791 13.6448C21.5464 13.3718 21.8221 13.205 22.0952 13.272L22.3035 13.3231C22.5771 13.3902 22.7443 13.6665 22.6769 13.94C22.6096 14.2132 22.3335 14.3801 22.0603 14.3129L21.852 14.2616C21.5786 14.1943 21.4117 13.9181 21.4791 13.6448ZM23.647 14.18C23.7144 13.9065 23.9908 13.7393 24.2643 13.8067L24.4717 13.8577C24.7452 13.9251 24.9123 14.2015 24.8449 14.475C24.7775 14.7483 24.5015 14.9154 24.2282 14.8483L24.0208 14.7974C23.747 14.7302 23.5796 14.4538 23.647 14.18ZM30.5396 14.212C30.5649 14.1084 30.7055 14.0973 30.74 14.1983C30.741 14.2014 30.7421 14.2045 30.7431 14.2076C30.7698 14.2862 30.6988 14.3618 30.6181 14.3421C30.5606 14.3281 30.5255 14.2695 30.5396 14.212ZM25.8162 14.7128C25.884 14.4398 26.1601 14.2733 26.4332 14.3407L26.64 14.3917C26.9134 14.4591 27.0804 14.7354 27.013 15.0088C26.9456 15.2822 26.6694 15.4492 26.396 15.3818L26.1892 15.3309C25.9153 15.2635 25.7482 14.9865 25.8162 14.7128ZM18.859 14.9427C18.9103 14.7373 19.1371 14.6235 19.3427 14.6743L19.6505 14.7504C19.9242 14.818 20.0914 15.0946 20.0241 15.3684C19.9567 15.6425 19.6797 15.8099 19.4057 15.7424L19.3031 15.7171C18.9727 15.6357 18.7708 15.3019 18.8519 14.9714L18.859 14.9427ZM27.9842 15.2478C28.052 14.9748 28.3281 14.8083 28.6013 14.8756L28.8074 14.9265C29.081 14.994 29.2481 15.2706 29.1804 15.5441C29.1128 15.8173 28.8366 15.9841 28.5633 15.9168L28.3572 15.866C28.0833 15.7985 27.9162 15.5216 27.9842 15.2478ZM20.9951 15.6079C21.0624 15.3349 21.3382 15.1681 21.6113 15.2351L21.8187 15.2861C22.0921 15.3532 22.2593 15.6295 22.1919 15.9029C22.1246 16.1762 21.8485 16.3431 21.5752 16.2758L21.3679 16.2247C21.0946 16.1574 20.9276 15.8812 20.9951 15.6079ZM30.1612 15.741C30.2229 15.4903 30.4764 15.3373 30.7269 15.3997C30.9138 15.4461 31.0545 15.6026 31.0697 15.7946C31.0735 15.8425 31.0767 15.8905 31.0795 15.9387C31.0971 16.2478 30.8038 16.4693 30.5031 16.3953C30.2413 16.3309 30.0812 16.0664 30.1456 15.8045L30.1612 15.741ZM23.163 16.1431C23.2304 15.8695 23.5068 15.7024 23.7804 15.7698L23.9868 15.8207C24.2603 15.8881 24.4273 16.1644 24.3599 16.4379C24.2926 16.7113 24.0165 16.8783 23.7431 16.8112L23.5367 16.7605C23.263 16.6933 23.0956 16.4168 23.163 16.1431ZM25.3321 16.6767C25.4 16.4027 25.677 16.2356 25.951 16.3032L26.154 16.3533C26.428 16.4209 26.5954 16.6977 26.5281 16.9718C26.4607 17.2462 26.1835 17.4139 25.9091 17.3463L25.7061 17.2962C25.4316 17.2286 25.2641 16.9511 25.3321 16.6767ZM18.344 17.0348C18.4108 16.762 18.6862 16.5952 18.9588 16.6624L19.1664 16.7136C19.4401 16.781 19.6074 17.0576 19.5401 17.3313C19.4727 17.6054 19.1957 17.7728 18.9217 17.7051L18.7377 17.6597C18.4595 17.5909 18.2745 17.3128 18.344 17.0348ZM27.5001 17.2101C27.568 16.9364 27.8448 16.7695 28.1185 16.837L28.3224 16.8874C28.5962 16.955 28.7634 17.2316 28.6961 17.5054C28.6286 17.7795 28.3518 17.9469 28.0777 17.8794L27.8738 17.8292C27.5995 17.7616 27.4321 17.4843 27.5001 17.2101ZM20.5109 17.57C20.5783 17.2959 20.8552 17.1285 21.1292 17.196L21.3343 17.2466C21.6081 17.3141 21.7754 17.5907 21.708 17.8645C21.6406 18.1385 21.3638 18.306 21.0898 18.2385L20.8847 18.1879C20.6109 18.1204 20.4436 17.8438 20.5109 17.57ZM29.667 17.7458C29.7344 17.4718 30.0111 17.3043 30.285 17.3717L30.6008 17.4493C30.8071 17.5 30.9475 17.7057 30.896 17.9117L30.8895 17.938C30.808 18.2687 30.4739 18.4706 30.1433 18.3892L30.0408 18.3639C29.7669 18.2964 29.5996 18.0197 29.667 17.7458ZM22.6802 18.1043C22.7481 17.831 23.0243 17.6642 23.2978 17.7314L23.5021 17.7817C23.776 17.849 23.9434 18.1257 23.876 18.3996C23.8086 18.6735 23.5318 18.841 23.2579 18.7734L23.0536 18.7231C22.7795 18.6555 22.6122 18.3783 22.6802 18.1043ZM24.8482 18.6395C24.916 18.3657 25.1929 18.1985 25.4668 18.2661L25.6702 18.3163C25.9441 18.3839 26.1114 18.6607 26.044 18.9346C25.9766 19.2086 25.6998 19.3762 25.4258 19.3089L25.2224 19.2589C24.9478 19.1914 24.7802 18.9139 24.8482 18.6395ZM18.0267 19.1247C18.0473 18.8068 18.3547 18.5941 18.6641 18.6702L18.6818 18.6746C18.9558 18.742 19.1231 19.0189 19.0555 19.2928C18.9878 19.5666 18.7109 19.7337 18.4371 19.6659L18.4188 19.6614C18.1786 19.6019 18.0103 19.3838 18.026 19.1369C18.0262 19.1328 18.0265 19.1288 18.0267 19.1247ZM27.0157 19.1722C27.0838 18.8984 27.3608 18.7315 27.6347 18.7991L27.838 18.8493C28.112 18.917 28.2794 19.1938 28.2121 19.4679C28.1446 19.7422 27.8675 19.9099 27.5932 19.8424L27.3898 19.7923C27.1151 19.7247 26.9474 19.4468 27.0157 19.1722ZM20.0266 19.5312C20.0942 19.2581 20.3704 19.0913 20.6436 19.1586L20.8504 19.2096C21.124 19.2771 21.2911 19.5537 21.2234 19.8272C21.1558 20.1004 20.8796 20.2672 20.6063 20.1998L20.3996 20.1489C20.1259 20.0814 19.9589 19.8048 20.0266 19.5312ZM29.1829 19.7089C29.2503 19.4349 29.5271 19.2674 29.8011 19.3348L30.0077 19.3856C30.2816 19.453 30.4489 19.7299 30.381 20.0038C30.3117 20.2808 30.0216 20.4416 29.7443 20.3732L29.5567 20.3269C29.2829 20.2594 29.1156 19.9827 29.1829 19.7089ZM22.196 20.067C22.2634 19.794 22.5393 19.6271 22.8124 19.6942L23.0182 19.7448C23.2919 19.8121 23.459 20.0887 23.3913 20.3622C23.3238 20.6353 23.0476 20.802 22.7745 20.7346L22.5687 20.6838C22.2955 20.6164 22.1286 20.3403 22.196 20.067ZM24.3631 20.6001C24.431 20.3264 24.7077 20.1594 24.9815 20.2269L25.1858 20.2773C25.4598 20.3449 25.6271 20.6219 25.5594 20.8959C25.4918 21.1698 25.215 21.337 24.9411 21.2695L24.7369 21.2192C24.4626 21.1516 24.2952 20.8743 24.3631 20.6001ZM18.0737 20.9894C18.0519 20.7972 18.2301 20.6467 18.4178 20.6933C18.5699 20.7311 18.6626 20.8849 18.6251 21.037L18.4892 21.5887C18.4669 21.679 18.3761 21.7345 18.2856 21.7131C18.2202 21.6977 18.1699 21.6451 18.1584 21.5789C18.1244 21.3834 18.0961 21.1867 18.0737 20.9894ZM26.5311 21.1356C26.599 20.8617 26.876 20.6945 27.15 20.7621L27.3534 20.8122C27.6276 20.8798 27.7951 21.157 27.7275 21.4313C27.6598 21.7055 27.3827 21.8729 27.1085 21.8053L26.9052 21.7552C26.6307 21.6876 26.4631 21.41 26.5311 21.1356ZM19.5419 21.4959C19.6093 21.2219 19.8862 21.0545 20.1601 21.122L20.3653 21.1726C20.6391 21.2401 20.8064 21.5167 20.739 21.7905C20.6716 22.0645 20.3948 22.232 20.1208 22.1644L19.9157 22.1139C19.6419 22.0464 19.4746 21.7698 19.5419 21.4959ZM28.698 21.6717C28.7654 21.3978 29.042 21.2304 29.3159 21.2977L29.3331 21.3019C29.643 21.3782 29.8134 21.7194 29.6844 22.0113C29.584 22.2383 29.3329 22.3537 29.0919 22.2945L29.0721 22.2896C28.7981 22.2223 28.6306 21.9456 28.698 21.6717ZM21.7119 22.0311C21.7793 21.7571 22.0562 21.5896 22.3303 21.6572L22.5335 21.7074C22.8072 21.7749 22.9744 22.0515 22.9071 22.3253C22.8397 22.5994 22.5627 22.7669 22.2886 22.6992L22.0854 22.649C21.8117 22.5815 21.6445 22.3049 21.7119 22.0311ZM23.8792 22.5638C23.947 22.2908 24.2232 22.1243 24.4963 22.1917L24.7021 22.2425C24.9755 22.31 25.1424 22.5863 25.075 22.8596C25.0076 23.133 24.7313 23.3001 24.4579 23.2327L24.252 23.1819C23.9782 23.1144 23.8112 22.8375 23.8792 22.5638ZM26.046 23.0992C26.1134 22.825 26.3902 22.6574 26.6644 22.7248L26.8701 22.7753C27.1448 22.8428 27.3125 23.1207 27.2441 23.3952C27.176 23.6686 26.8997 23.8354 26.6261 23.7682L26.4205 23.7176C26.1463 23.6503 25.9786 23.3734 26.046 23.0992ZM19.0576 23.4572C19.1252 23.184 19.4013 23.0173 19.6746 23.0846L19.8819 23.1357C20.1553 23.203 20.3224 23.4793 20.255 23.7528C20.1876 24.0262 19.9114 24.1932 19.638 24.1259L19.4306 24.0748C19.157 24.0074 18.9899 23.7308 19.0576 23.4572ZM28.336 23.1405C28.336 23.1396 28.3368 23.139 28.3377 23.1392L28.652 23.2163C28.8212 23.2579 28.8999 23.4529 28.8018 23.5969C28.6826 23.7717 28.5579 23.9427 28.4279 24.1097C28.3874 24.1617 28.32 24.1847 28.2559 24.169C28.1649 24.1468 28.1093 24.0549 28.1318 23.964L28.3359 23.1409C28.336 23.1408 28.336 23.1407 28.336 23.1405ZM21.2276 23.9924C21.2952 23.7192 21.5714 23.5524 21.8447 23.6199L22.0501 23.6706C22.3235 23.738 22.4904 24.0142 22.423 24.2876C22.3556 24.561 22.0793 24.728 21.8059 24.6606L21.6004 24.6099C21.3269 24.5425 21.1599 24.2659 21.2276 23.9924ZM23.3942 24.526C23.462 24.2524 23.7387 24.0854 24.0124 24.153L24.2173 24.2035C24.4911 24.271 24.6584 24.5477 24.591 24.8215C24.5236 25.0955 24.2468 25.263 23.9728 25.1955L23.7679 25.1451C23.4936 25.0775 23.3262 24.8002 23.3942 24.526ZM25.561 25.0618C25.6284 24.7878 25.905 24.6203 26.179 24.6877L26.3858 24.7385C26.6602 24.8059 26.8278 25.0833 26.7598 25.3576C26.6919 25.6312 26.4153 25.7982 26.1417 25.7308L25.9349 25.6798C25.661 25.6124 25.4936 25.3357 25.561 25.0618ZM19.8017 25.2782C19.7712 25.2453 19.8011 25.1964 19.8447 25.2071L19.8492 25.2082C19.8729 25.214 19.8874 25.2379 19.8817 25.2615C19.8734 25.2963 19.8291 25.3076 19.8048 25.2815C19.8038 25.2804 19.8028 25.2793 19.8017 25.2782ZM20.7683 25.8504C20.8217 25.6341 21.0403 25.502 21.2567 25.5554L21.6079 25.6421C21.8576 25.7038 22.0101 25.9561 21.9485 26.2058C21.882 26.4752 21.595 26.6287 21.3469 26.5047C21.2034 26.433 21.0636 26.3538 20.9282 26.2676C20.7894 26.1792 20.7288 26.0101 20.7683 25.8504ZM23.033 25.9974C23.033 25.9956 23.0347 25.9942 23.0365 25.9946L23.8365 26.1921C24.0527 26.2454 24.1847 26.4639 24.1313 26.6801C24.0918 26.84 23.9593 26.9613 23.7952 26.9751C23.727 26.9808 23.6587 26.985 23.5904 26.9878C23.1672 27.0051 22.8855 26.5931 22.9873 26.182L23.0329 25.9981C23.033 25.9979 23.033 25.9977 23.033 25.9974ZM25.1884 26.5706C25.1943 26.5474 25.2178 26.5333 25.241 26.5389L25.2472 26.5405C25.2905 26.5511 25.294 26.6075 25.2518 26.6219C25.2501 26.6225 25.2484 26.6231 25.2468 26.6237C25.2134 26.6351 25.1798 26.6048 25.1884 26.5706ZM20.5722 28.0718C20.5155 27.7203 20.9246 27.4173 21.2528 27.5555C21.4378 27.6334 21.5491 27.8321 21.501 28.027L20.439 32.3277C20.6652 31.1518 20.8319 29.682 20.5722 28.0718ZM22.4722 28.2647C22.5202 28.0704 22.7103 27.9465 22.9097 27.9633C23.264 27.9934 23.4846 28.4509 23.2713 28.7353C22.2881 30.0463 21.7524 31.4305 21.406 32.5797L22.4722 28.2647ZM30.18 29.7257C29.1964 29.7273 28.2536 30.1187 27.558 30.8141C26.8624 31.5094 26.4708 32.4522 26.469 33.4358C26.4714 34.419 26.863 35.3612 27.5582 36.0565C28.2535 36.7517 29.1958 37.1433 30.179 37.1457C31.1626 37.1439 32.1055 36.7525 32.8014 36.0572C33.4972 35.3619 33.8893 34.4194 33.892 33.4358C33.8896 32.4522 33.4977 31.5096 32.802 30.8143C32.1063 30.119 31.1635 29.7275 30.18 29.7257ZM19.9474 33.7617C19.9478 33.7617 19.9482 33.7617 19.9485 33.7616C20.015 33.75 20.0833 33.7542 20.148 33.7738L20.994 33.9807C21.0585 33.995 21.1194 34.0223 21.173 34.0609C21.2267 34.0994 21.2719 34.1485 21.3061 34.2051C21.3402 34.2616 21.3625 34.3246 21.3716 34.39C21.3807 34.4554 21.3764 34.5219 21.359 34.5857L20.119 39.6157C20.1047 39.6802 20.0774 39.7411 20.0388 39.7948C20.0003 39.8484 19.9512 39.8937 19.8947 39.9278C19.8381 39.962 19.7752 39.9843 19.7097 39.9934C19.6443 40.0025 19.5777 39.9981 19.514 39.9807L18.668 39.7738C18.6034 39.7595 18.5424 39.7321 18.4886 39.6935C18.4349 39.6548 18.3896 39.6057 18.3554 39.549C18.3213 39.4924 18.299 39.4293 18.29 39.3637C18.281 39.2982 18.2854 39.2315 18.303 39.1677L19.543 34.1377C19.5648 34.0417 19.6149 33.9545 19.687 33.8874C19.759 33.8205 19.8494 33.7767 19.9465 33.7618C19.9468 33.7617 19.9471 33.7617 19.9474 33.7617Z"/>
</mask>
<path d="M25.215 9.00522C25.215 9.00437 25.2143 9.00367 25.2135 9.00365C24.7398 8.98822 24.2658 9.02178 23.799 9.10373C21.019 9.58573 18.624 11.7257 17.889 14.7077L17.373 16.7998C16.747 19.3348 16.931 21.8237 17.76 23.8247C17.8982 24.1577 18.0601 24.4711 18.2349 24.7764C18.2368 24.7796 18.2365 24.7836 18.2341 24.7865C18.2317 24.7896 18.2315 24.794 18.2337 24.7973C20.1042 27.5902 19.8245 30.4323 19.4131 32.3865C19.334 32.7623 19.0636 33.0621 18.8313 33.3679C18.7094 33.5282 18.6212 33.7115 18.572 33.9067L17.332 38.9367C17.135 39.7347 17.632 40.5558 18.43 40.7528L19.275 40.9597C19.6609 41.0532 20.0681 40.9905 20.408 40.7853C20.7479 40.58 20.993 40.2488 21.09 39.8637L22.332 34.8337C22.5148 34.0877 22.233 33.2532 22.4687 32.5222C23.0643 30.6746 24.199 28.374 26.87 26.9254C26.8728 26.9239 26.8741 26.9205 26.8729 26.9175C26.8718 26.9147 26.8728 26.9115 26.8754 26.9099C27.1718 26.7207 27.4623 26.5186 27.741 26.2877C29.405 24.9017 30.726 22.7817 31.351 20.2467L31.867 18.1567C32.848 14.1817 30.524 10.1597 26.66 9.2067C26.1871 9.08993 25.7033 9.02297 25.2165 9.0068C25.2157 9.00677 25.215 9.00607 25.215 9.00522ZM25.178 9.99973C25.256 10.0029 25.3344 10.0078 25.413 10.0143C25.6914 10.0374 25.8705 10.3104 25.8035 10.5815C25.7402 10.8374 25.4816 10.9935 25.2258 10.9304L24.922 10.8554C24.6857 10.7971 24.5416 10.558 24.6004 10.3218C24.6466 10.1359 24.8078 9.9995 24.9993 9.99813C25.0589 9.9977 25.1184 9.99824 25.178 9.99973ZM23.397 10.2266C23.4928 10.2013 23.5791 10.2886 23.5549 10.3847C23.5372 10.455 23.4662 10.4979 23.3957 10.4808L23.3881 10.4789C23.2532 10.4461 23.2462 10.2669 23.3803 10.2311C23.3859 10.2296 23.3914 10.2281 23.397 10.2266ZM26.7761 10.8234C26.8428 10.5526 27.1274 10.3948 27.3833 10.5059C27.5103 10.561 27.6346 10.6203 27.7563 10.6837C27.9273 10.7728 28.0083 10.9698 27.962 11.157C27.904 11.3916 27.6669 11.5348 27.4323 11.4769L27.1253 11.4011C26.8694 11.3379 26.7131 11.0793 26.7761 10.8234ZM21.9652 11.6839C22.033 11.4098 22.3101 11.2426 22.5843 11.3102L22.787 11.3603C23.061 11.4279 23.2284 11.7047 23.161 11.9788C23.0936 12.2528 22.817 12.4204 22.5429 12.3533L22.3401 12.3036C22.0652 12.2364 21.8972 11.9587 21.9652 11.6839ZM28.8627 11.6889C28.8871 11.5908 29.0063 11.5532 29.0807 11.6216C29.0851 11.6257 29.0895 11.6298 29.0939 11.6339C29.1976 11.7298 29.1064 11.8884 28.9692 11.8548L28.9619 11.853C28.8891 11.8352 28.8447 11.7616 28.8627 11.6889ZM20.728 11.7356C20.804 11.664 20.9211 11.7373 20.8962 11.8388C20.8824 11.8953 20.8251 11.9304 20.7687 11.9164C20.6892 11.8968 20.6619 11.7981 20.7214 11.7419C20.7236 11.7398 20.7258 11.7377 20.728 11.7356ZM24.1318 12.2195C24.1992 11.9442 24.4773 11.7758 24.7526 11.8436L24.9528 11.8929C25.2279 11.9607 25.3959 12.2388 25.3279 12.5139C25.26 12.7888 24.9821 12.9567 24.7071 12.8888L24.507 12.8394C24.2324 12.7717 24.0645 12.4943 24.1318 12.2195ZM26.3011 12.7532C26.369 12.4795 26.6458 12.3125 26.9196 12.3801L27.1223 12.4301C27.3965 12.4978 27.5638 12.7751 27.4959 13.0493C27.428 13.323 27.1512 13.49 26.8773 13.4224L26.6746 13.3724C26.4004 13.3046 26.2331 13.0273 26.3011 12.7532ZM19.7062 12.987C19.8077 12.8265 20.0026 12.755 20.1868 12.801C20.4323 12.8622 20.582 13.1105 20.5214 13.3562L20.5024 13.4335C20.4386 13.6921 20.1774 13.8502 19.9187 13.7866C19.6214 13.7134 19.466 13.3846 19.6233 13.1219C19.6504 13.0765 19.6781 13.0315 19.7062 12.987ZM28.4685 13.2865C28.5362 13.0127 28.8129 12.8455 29.0868 12.913L29.2913 12.9634C29.5651 13.031 29.7324 13.3076 29.665 13.5814C29.5976 13.8555 29.3208 14.023 29.0467 13.9554L28.8422 13.905C28.5682 13.8375 28.4009 13.5605 28.4685 13.2865ZM21.4791 13.6448C21.5464 13.3718 21.8221 13.205 22.0952 13.272L22.3035 13.3231C22.5771 13.3902 22.7443 13.6665 22.6769 13.94C22.6096 14.2132 22.3335 14.3801 22.0603 14.3129L21.852 14.2616C21.5786 14.1943 21.4117 13.9181 21.4791 13.6448ZM23.647 14.18C23.7144 13.9065 23.9908 13.7393 24.2643 13.8067L24.4717 13.8577C24.7452 13.9251 24.9123 14.2015 24.8449 14.475C24.7775 14.7483 24.5015 14.9154 24.2282 14.8483L24.0208 14.7974C23.747 14.7302 23.5796 14.4538 23.647 14.18ZM30.5396 14.212C30.5649 14.1084 30.7055 14.0973 30.74 14.1983C30.741 14.2014 30.7421 14.2045 30.7431 14.2076C30.7698 14.2862 30.6988 14.3618 30.6181 14.3421C30.5606 14.3281 30.5255 14.2695 30.5396 14.212ZM25.8162 14.7128C25.884 14.4398 26.1601 14.2733 26.4332 14.3407L26.64 14.3917C26.9134 14.4591 27.0804 14.7354 27.013 15.0088C26.9456 15.2822 26.6694 15.4492 26.396 15.3818L26.1892 15.3309C25.9153 15.2635 25.7482 14.9865 25.8162 14.7128ZM18.859 14.9427C18.9103 14.7373 19.1371 14.6235 19.3427 14.6743L19.6505 14.7504C19.9242 14.818 20.0914 15.0946 20.0241 15.3684C19.9567 15.6425 19.6797 15.8099 19.4057 15.7424L19.3031 15.7171C18.9727 15.6357 18.7708 15.3019 18.8519 14.9714L18.859 14.9427ZM27.9842 15.2478C28.052 14.9748 28.3281 14.8083 28.6013 14.8756L28.8074 14.9265C29.081 14.994 29.2481 15.2706 29.1804 15.5441C29.1128 15.8173 28.8366 15.9841 28.5633 15.9168L28.3572 15.866C28.0833 15.7985 27.9162 15.5216 27.9842 15.2478ZM20.9951 15.6079C21.0624 15.3349 21.3382 15.1681 21.6113 15.2351L21.8187 15.2861C22.0921 15.3532 22.2593 15.6295 22.1919 15.9029C22.1246 16.1762 21.8485 16.3431 21.5752 16.2758L21.3679 16.2247C21.0946 16.1574 20.9276 15.8812 20.9951 15.6079ZM30.1612 15.741C30.2229 15.4903 30.4764 15.3373 30.7269 15.3997C30.9138 15.4461 31.0545 15.6026 31.0697 15.7946C31.0735 15.8425 31.0767 15.8905 31.0795 15.9387C31.0971 16.2478 30.8038 16.4693 30.5031 16.3953C30.2413 16.3309 30.0812 16.0664 30.1456 15.8045L30.1612 15.741ZM23.163 16.1431C23.2304 15.8695 23.5068 15.7024 23.7804 15.7698L23.9868 15.8207C24.2603 15.8881 24.4273 16.1644 24.3599 16.4379C24.2926 16.7113 24.0165 16.8783 23.7431 16.8112L23.5367 16.7605C23.263 16.6933 23.0956 16.4168 23.163 16.1431ZM25.3321 16.6767C25.4 16.4027 25.677 16.2356 25.951 16.3032L26.154 16.3533C26.428 16.4209 26.5954 16.6977 26.5281 16.9718C26.4607 17.2462 26.1835 17.4139 25.9091 17.3463L25.7061 17.2962C25.4316 17.2286 25.2641 16.9511 25.3321 16.6767ZM18.344 17.0348C18.4108 16.762 18.6862 16.5952 18.9588 16.6624L19.1664 16.7136C19.4401 16.781 19.6074 17.0576 19.5401 17.3313C19.4727 17.6054 19.1957 17.7728 18.9217 17.7051L18.7377 17.6597C18.4595 17.5909 18.2745 17.3128 18.344 17.0348ZM27.5001 17.2101C27.568 16.9364 27.8448 16.7695 28.1185 16.837L28.3224 16.8874C28.5962 16.955 28.7634 17.2316 28.6961 17.5054C28.6286 17.7795 28.3518 17.9469 28.0777 17.8794L27.8738 17.8292C27.5995 17.7616 27.4321 17.4843 27.5001 17.2101ZM20.5109 17.57C20.5783 17.2959 20.8552 17.1285 21.1292 17.196L21.3343 17.2466C21.6081 17.3141 21.7754 17.5907 21.708 17.8645C21.6406 18.1385 21.3638 18.306 21.0898 18.2385L20.8847 18.1879C20.6109 18.1204 20.4436 17.8438 20.5109 17.57ZM29.667 17.7458C29.7344 17.4718 30.0111 17.3043 30.285 17.3717L30.6008 17.4493C30.8071 17.5 30.9475 17.7057 30.896 17.9117L30.8895 17.938C30.808 18.2687 30.4739 18.4706 30.1433 18.3892L30.0408 18.3639C29.7669 18.2964 29.5996 18.0197 29.667 17.7458ZM22.6802 18.1043C22.7481 17.831 23.0243 17.6642 23.2978 17.7314L23.5021 17.7817C23.776 17.849 23.9434 18.1257 23.876 18.3996C23.8086 18.6735 23.5318 18.841 23.2579 18.7734L23.0536 18.7231C22.7795 18.6555 22.6122 18.3783 22.6802 18.1043ZM24.8482 18.6395C24.916 18.3657 25.1929 18.1985 25.4668 18.2661L25.6702 18.3163C25.9441 18.3839 26.1114 18.6607 26.044 18.9346C25.9766 19.2086 25.6998 19.3762 25.4258 19.3089L25.2224 19.2589C24.9478 19.1914 24.7802 18.9139 24.8482 18.6395ZM18.0267 19.1247C18.0473 18.8068 18.3547 18.5941 18.6641 18.6702L18.6818 18.6746C18.9558 18.742 19.1231 19.0189 19.0555 19.2928C18.9878 19.5666 18.7109 19.7337 18.4371 19.6659L18.4188 19.6614C18.1786 19.6019 18.0103 19.3838 18.026 19.1369C18.0262 19.1328 18.0265 19.1288 18.0267 19.1247ZM27.0157 19.1722C27.0838 18.8984 27.3608 18.7315 27.6347 18.7991L27.838 18.8493C28.112 18.917 28.2794 19.1938 28.2121 19.4679C28.1446 19.7422 27.8675 19.9099 27.5932 19.8424L27.3898 19.7923C27.1151 19.7247 26.9474 19.4468 27.0157 19.1722ZM20.0266 19.5312C20.0942 19.2581 20.3704 19.0913 20.6436 19.1586L20.8504 19.2096C21.124 19.2771 21.2911 19.5537 21.2234 19.8272C21.1558 20.1004 20.8796 20.2672 20.6063 20.1998L20.3996 20.1489C20.1259 20.0814 19.9589 19.8048 20.0266 19.5312ZM29.1829 19.7089C29.2503 19.4349 29.5271 19.2674 29.8011 19.3348L30.0077 19.3856C30.2816 19.453 30.4489 19.7299 30.381 20.0038C30.3117 20.2808 30.0216 20.4416 29.7443 20.3732L29.5567 20.3269C29.2829 20.2594 29.1156 19.9827 29.1829 19.7089ZM22.196 20.067C22.2634 19.794 22.5393 19.6271 22.8124 19.6942L23.0182 19.7448C23.2919 19.8121 23.459 20.0887 23.3913 20.3622C23.3238 20.6353 23.0476 20.802 22.7745 20.7346L22.5687 20.6838C22.2955 20.6164 22.1286 20.3403 22.196 20.067ZM24.3631 20.6001C24.431 20.3264 24.7077 20.1594 24.9815 20.2269L25.1858 20.2773C25.4598 20.3449 25.6271 20.6219 25.5594 20.8959C25.4918 21.1698 25.215 21.337 24.9411 21.2695L24.7369 21.2192C24.4626 21.1516 24.2952 20.8743 24.3631 20.6001ZM18.0737 20.9894C18.0519 20.7972 18.2301 20.6467 18.4178 20.6933C18.5699 20.7311 18.6626 20.8849 18.6251 21.037L18.4892 21.5887C18.4669 21.679 18.3761 21.7345 18.2856 21.7131C18.2202 21.6977 18.1699 21.6451 18.1584 21.5789C18.1244 21.3834 18.0961 21.1867 18.0737 20.9894ZM26.5311 21.1356C26.599 20.8617 26.876 20.6945 27.15 20.7621L27.3534 20.8122C27.6276 20.8798 27.7951 21.157 27.7275 21.4313C27.6598 21.7055 27.3827 21.8729 27.1085 21.8053L26.9052 21.7552C26.6307 21.6876 26.4631 21.41 26.5311 21.1356ZM19.5419 21.4959C19.6093 21.2219 19.8862 21.0545 20.1601 21.122L20.3653 21.1726C20.6391 21.2401 20.8064 21.5167 20.739 21.7905C20.6716 22.0645 20.3948 22.232 20.1208 22.1644L19.9157 22.1139C19.6419 22.0464 19.4746 21.7698 19.5419 21.4959ZM28.698 21.6717C28.7654 21.3978 29.042 21.2304 29.3159 21.2977L29.3331 21.3019C29.643 21.3782 29.8134 21.7194 29.6844 22.0113C29.584 22.2383 29.3329 22.3537 29.0919 22.2945L29.0721 22.2896C28.7981 22.2223 28.6306 21.9456 28.698 21.6717ZM21.7119 22.0311C21.7793 21.7571 22.0562 21.5896 22.3303 21.6572L22.5335 21.7074C22.8072 21.7749 22.9744 22.0515 22.9071 22.3253C22.8397 22.5994 22.5627 22.7669 22.2886 22.6992L22.0854 22.649C21.8117 22.5815 21.6445 22.3049 21.7119 22.0311ZM23.8792 22.5638C23.947 22.2908 24.2232 22.1243 24.4963 22.1917L24.7021 22.2425C24.9755 22.31 25.1424 22.5863 25.075 22.8596C25.0076 23.133 24.7313 23.3001 24.4579 23.2327L24.252 23.1819C23.9782 23.1144 23.8112 22.8375 23.8792 22.5638ZM26.046 23.0992C26.1134 22.825 26.3902 22.6574 26.6644 22.7248L26.8701 22.7753C27.1448 22.8428 27.3125 23.1207 27.2441 23.3952C27.176 23.6686 26.8997 23.8354 26.6261 23.7682L26.4205 23.7176C26.1463 23.6503 25.9786 23.3734 26.046 23.0992ZM19.0576 23.4572C19.1252 23.184 19.4013 23.0173 19.6746 23.0846L19.8819 23.1357C20.1553 23.203 20.3224 23.4793 20.255 23.7528C20.1876 24.0262 19.9114 24.1932 19.638 24.1259L19.4306 24.0748C19.157 24.0074 18.9899 23.7308 19.0576 23.4572ZM28.336 23.1405C28.336 23.1396 28.3368 23.139 28.3377 23.1392L28.652 23.2163C28.8212 23.2579 28.8999 23.4529 28.8018 23.5969C28.6826 23.7717 28.5579 23.9427 28.4279 24.1097C28.3874 24.1617 28.32 24.1847 28.2559 24.169C28.1649 24.1468 28.1093 24.0549 28.1318 23.964L28.3359 23.1409C28.336 23.1408 28.336 23.1407 28.336 23.1405ZM21.2276 23.9924C21.2952 23.7192 21.5714 23.5524 21.8447 23.6199L22.0501 23.6706C22.3235 23.738 22.4904 24.0142 22.423 24.2876C22.3556 24.561 22.0793 24.728 21.8059 24.6606L21.6004 24.6099C21.3269 24.5425 21.1599 24.2659 21.2276 23.9924ZM23.3942 24.526C23.462 24.2524 23.7387 24.0854 24.0124 24.153L24.2173 24.2035C24.4911 24.271 24.6584 24.5477 24.591 24.8215C24.5236 25.0955 24.2468 25.263 23.9728 25.1955L23.7679 25.1451C23.4936 25.0775 23.3262 24.8002 23.3942 24.526ZM25.561 25.0618C25.6284 24.7878 25.905 24.6203 26.179 24.6877L26.3858 24.7385C26.6602 24.8059 26.8278 25.0833 26.7598 25.3576C26.6919 25.6312 26.4153 25.7982 26.1417 25.7308L25.9349 25.6798C25.661 25.6124 25.4936 25.3357 25.561 25.0618ZM19.8017 25.2782C19.7712 25.2453 19.8011 25.1964 19.8447 25.2071L19.8492 25.2082C19.8729 25.214 19.8874 25.2379 19.8817 25.2615C19.8734 25.2963 19.8291 25.3076 19.8048 25.2815C19.8038 25.2804 19.8028 25.2793 19.8017 25.2782ZM20.7683 25.8504C20.8217 25.6341 21.0403 25.502 21.2567 25.5554L21.6079 25.6421C21.8576 25.7038 22.0101 25.9561 21.9485 26.2058C21.882 26.4752 21.595 26.6287 21.3469 26.5047C21.2034 26.433 21.0636 26.3538 20.9282 26.2676C20.7894 26.1792 20.7288 26.0101 20.7683 25.8504ZM23.033 25.9974C23.033 25.9956 23.0347 25.9942 23.0365 25.9946L23.8365 26.1921C24.0527 26.2454 24.1847 26.4639 24.1313 26.6801C24.0918 26.84 23.9593 26.9613 23.7952 26.9751C23.727 26.9808 23.6587 26.985 23.5904 26.9878C23.1672 27.0051 22.8855 26.5931 22.9873 26.182L23.0329 25.9981C23.033 25.9979 23.033 25.9977 23.033 25.9974ZM25.1884 26.5706C25.1943 26.5474 25.2178 26.5333 25.241 26.5389L25.2472 26.5405C25.2905 26.5511 25.294 26.6075 25.2518 26.6219C25.2501 26.6225 25.2484 26.6231 25.2468 26.6237C25.2134 26.6351 25.1798 26.6048 25.1884 26.5706ZM20.5722 28.0718C20.5155 27.7203 20.9246 27.4173 21.2528 27.5555C21.4378 27.6334 21.5491 27.8321 21.501 28.027L20.439 32.3277C20.6652 31.1518 20.8319 29.682 20.5722 28.0718ZM22.4722 28.2647C22.5202 28.0704 22.7103 27.9465 22.9097 27.9633C23.264 27.9934 23.4846 28.4509 23.2713 28.7353C22.2881 30.0463 21.7524 31.4305 21.406 32.5797L22.4722 28.2647ZM30.18 29.7257C29.1964 29.7273 28.2536 30.1187 27.558 30.8141C26.8624 31.5094 26.4708 32.4522 26.469 33.4358C26.4714 34.419 26.863 35.3612 27.5582 36.0565C28.2535 36.7517 29.1958 37.1433 30.179 37.1457C31.1626 37.1439 32.1055 36.7525 32.8014 36.0572C33.4972 35.3619 33.8893 34.4194 33.892 33.4358C33.8896 32.4522 33.4977 31.5096 32.802 30.8143C32.1063 30.119 31.1635 29.7275 30.18 29.7257ZM19.9474 33.7617C19.9478 33.7617 19.9482 33.7617 19.9485 33.7616C20.015 33.75 20.0833 33.7542 20.148 33.7738L20.994 33.9807C21.0585 33.995 21.1194 34.0223 21.173 34.0609C21.2267 34.0994 21.2719 34.1485 21.3061 34.2051C21.3402 34.2616 21.3625 34.3246 21.3716 34.39C21.3807 34.4554 21.3764 34.5219 21.359 34.5857L20.119 39.6157C20.1047 39.6802 20.0774 39.7411 20.0388 39.7948C20.0003 39.8484 19.9512 39.8937 19.8947 39.9278C19.8381 39.962 19.7752 39.9843 19.7097 39.9934C19.6443 40.0025 19.5777 39.9981 19.514 39.9807L18.668 39.7738C18.6034 39.7595 18.5424 39.7321 18.4886 39.6935C18.4349 39.6548 18.3896 39.6057 18.3554 39.549C18.3213 39.4924 18.299 39.4293 18.29 39.3637C18.281 39.2982 18.2854 39.2315 18.303 39.1677L19.543 34.1377C19.5648 34.0417 19.6149 33.9545 19.687 33.8874C19.759 33.8205 19.8494 33.7767 19.9465 33.7618C19.9468 33.7617 19.9471 33.7617 19.9474 33.7617Z" fill="black"/>
<path d="M25.215 9.00522C25.215 9.00437 25.2143 9.00367 25.2135 9.00365C24.7398 8.98822 24.2658 9.02178 23.799 9.10373C21.019 9.58573 18.624 11.7257 17.889 14.7077L17.373 16.7998C16.747 19.3348 16.931 21.8237 17.76 23.8247C17.8982 24.1577 18.0601 24.4711 18.2349 24.7764C18.2368 24.7796 18.2365 24.7836 18.2341 24.7865C18.2317 24.7896 18.2315 24.794 18.2337 24.7973C20.1042 27.5902 19.8245 30.4323 19.4131 32.3865C19.334 32.7623 19.0636 33.0621 18.8313 33.3679C18.7094 33.5282 18.6212 33.7115 18.572 33.9067L17.332 38.9367C17.135 39.7347 17.632 40.5558 18.43 40.7528L19.275 40.9597C19.6609 41.0532 20.0681 40.9905 20.408 40.7853C20.7479 40.58 20.993 40.2488 21.09 39.8637L22.332 34.8337C22.5148 34.0877 22.233 33.2532 22.4687 32.5222C23.0643 30.6746 24.199 28.374 26.87 26.9254C26.8728 26.9239 26.8741 26.9205 26.8729 26.9175C26.8718 26.9147 26.8728 26.9115 26.8754 26.9099C27.1718 26.7207 27.4623 26.5186 27.741 26.2877C29.405 24.9017 30.726 22.7817 31.351 20.2467L31.867 18.1567C32.848 14.1817 30.524 10.1597 26.66 9.2067C26.1871 9.08993 25.7033 9.02297 25.2165 9.0068C25.2157 9.00677 25.215 9.00607 25.215 9.00522ZM25.178 9.99973C25.256 10.0029 25.3344 10.0078 25.413 10.0143C25.6914 10.0374 25.8705 10.3104 25.8035 10.5815C25.7402 10.8374 25.4816 10.9935 25.2258 10.9304L24.922 10.8554C24.6857 10.7971 24.5416 10.558 24.6004 10.3218C24.6466 10.1359 24.8078 9.9995 24.9993 9.99813C25.0589 9.9977 25.1184 9.99824 25.178 9.99973ZM23.397 10.2266C23.4928 10.2013 23.5791 10.2886 23.5549 10.3847C23.5372 10.455 23.4662 10.4979 23.3957 10.4808L23.3881 10.4789C23.2532 10.4461 23.2462 10.2669 23.3803 10.2311C23.3859 10.2296 23.3914 10.2281 23.397 10.2266ZM26.7761 10.8234C26.8428 10.5526 27.1274 10.3948 27.3833 10.5059C27.5103 10.561 27.6346 10.6203 27.7563 10.6837C27.9273 10.7728 28.0083 10.9698 27.962 11.157C27.904 11.3916 27.6669 11.5348 27.4323 11.4769L27.1253 11.4011C26.8694 11.3379 26.7131 11.0793 26.7761 10.8234ZM21.9652 11.6839C22.033 11.4098 22.3101 11.2426 22.5843 11.3102L22.787 11.3603C23.061 11.4279 23.2284 11.7047 23.161 11.9788C23.0936 12.2528 22.817 12.4204 22.5429 12.3533L22.3401 12.3036C22.0652 12.2364 21.8972 11.9587 21.9652 11.6839ZM28.8627 11.6889C28.8871 11.5908 29.0063 11.5532 29.0807 11.6216C29.0851 11.6257 29.0895 11.6298 29.0939 11.6339C29.1976 11.7298 29.1064 11.8884 28.9692 11.8548L28.9619 11.853C28.8891 11.8352 28.8447 11.7616 28.8627 11.6889ZM20.728 11.7356C20.804 11.664 20.9211 11.7373 20.8962 11.8388C20.8824 11.8953 20.8251 11.9304 20.7687 11.9164C20.6892 11.8968 20.6619 11.7981 20.7214 11.7419C20.7236 11.7398 20.7258 11.7377 20.728 11.7356ZM24.1318 12.2195C24.1992 11.9442 24.4773 11.7758 24.7526 11.8436L24.9528 11.8929C25.2279 11.9607 25.3959 12.2388 25.3279 12.5139C25.26 12.7888 24.9821 12.9567 24.7071 12.8888L24.507 12.8394C24.2324 12.7717 24.0645 12.4943 24.1318 12.2195ZM26.3011 12.7532C26.369 12.4795 26.6458 12.3125 26.9196 12.3801L27.1223 12.4301C27.3965 12.4978 27.5638 12.7751 27.4959 13.0493C27.428 13.323 27.1512 13.49 26.8773 13.4224L26.6746 13.3724C26.4004 13.3046 26.2331 13.0273 26.3011 12.7532ZM19.7062 12.987C19.8077 12.8265 20.0026 12.755 20.1868 12.801C20.4323 12.8622 20.582 13.1105 20.5214 13.3562L20.5024 13.4335C20.4386 13.6921 20.1774 13.8502 19.9187 13.7866C19.6214 13.7134 19.466 13.3846 19.6233 13.1219C19.6504 13.0765 19.6781 13.0315 19.7062 12.987ZM28.4685 13.2865C28.5362 13.0127 28.8129 12.8455 29.0868 12.913L29.2913 12.9634C29.5651 13.031 29.7324 13.3076 29.665 13.5814C29.5976 13.8555 29.3208 14.023 29.0467 13.9554L28.8422 13.905C28.5682 13.8375 28.4009 13.5605 28.4685 13.2865ZM21.4791 13.6448C21.5464 13.3718 21.8221 13.205 22.0952 13.272L22.3035 13.3231C22.5771 13.3902 22.7443 13.6665 22.6769 13.94C22.6096 14.2132 22.3335 14.3801 22.0603 14.3129L21.852 14.2616C21.5786 14.1943 21.4117 13.9181 21.4791 13.6448ZM23.647 14.18C23.7144 13.9065 23.9908 13.7393 24.2643 13.8067L24.4717 13.8577C24.7452 13.9251 24.9123 14.2015 24.8449 14.475C24.7775 14.7483 24.5015 14.9154 24.2282 14.8483L24.0208 14.7974C23.747 14.7302 23.5796 14.4538 23.647 14.18ZM30.5396 14.212C30.5649 14.1084 30.7055 14.0973 30.74 14.1983C30.741 14.2014 30.7421 14.2045 30.7431 14.2076C30.7698 14.2862 30.6988 14.3618 30.6181 14.3421C30.5606 14.3281 30.5255 14.2695 30.5396 14.212ZM25.8162 14.7128C25.884 14.4398 26.1601 14.2733 26.4332 14.3407L26.64 14.3917C26.9134 14.4591 27.0804 14.7354 27.013 15.0088C26.9456 15.2822 26.6694 15.4492 26.396 15.3818L26.1892 15.3309C25.9153 15.2635 25.7482 14.9865 25.8162 14.7128ZM18.859 14.9427C18.9103 14.7373 19.1371 14.6235 19.3427 14.6743L19.6505 14.7504C19.9242 14.818 20.0914 15.0946 20.0241 15.3684C19.9567 15.6425 19.6797 15.8099 19.4057 15.7424L19.3031 15.7171C18.9727 15.6357 18.7708 15.3019 18.8519 14.9714L18.859 14.9427ZM27.9842 15.2478C28.052 14.9748 28.3281 14.8083 28.6013 14.8756L28.8074 14.9265C29.081 14.994 29.2481 15.2706 29.1804 15.5441C29.1128 15.8173 28.8366 15.9841 28.5633 15.9168L28.3572 15.866C28.0833 15.7985 27.9162 15.5216 27.9842 15.2478ZM20.9951 15.6079C21.0624 15.3349 21.3382 15.1681 21.6113 15.2351L21.8187 15.2861C22.0921 15.3532 22.2593 15.6295 22.1919 15.9029C22.1246 16.1762 21.8485 16.3431 21.5752 16.2758L21.3679 16.2247C21.0946 16.1574 20.9276 15.8812 20.9951 15.6079ZM30.1612 15.741C30.2229 15.4903 30.4764 15.3373 30.7269 15.3997C30.9138 15.4461 31.0545 15.6026 31.0697 15.7946C31.0735 15.8425 31.0767 15.8905 31.0795 15.9387C31.0971 16.2478 30.8038 16.4693 30.5031 16.3953C30.2413 16.3309 30.0812 16.0664 30.1456 15.8045L30.1612 15.741ZM23.163 16.1431C23.2304 15.8695 23.5068 15.7024 23.7804 15.7698L23.9868 15.8207C24.2603 15.8881 24.4273 16.1644 24.3599 16.4379C24.2926 16.7113 24.0165 16.8783 23.7431 16.8112L23.5367 16.7605C23.263 16.6933 23.0956 16.4168 23.163 16.1431ZM25.3321 16.6767C25.4 16.4027 25.677 16.2356 25.951 16.3032L26.154 16.3533C26.428 16.4209 26.5954 16.6977 26.5281 16.9718C26.4607 17.2462 26.1835 17.4139 25.9091 17.3463L25.7061 17.2962C25.4316 17.2286 25.2641 16.9511 25.3321 16.6767ZM18.344 17.0348C18.4108 16.762 18.6862 16.5952 18.9588 16.6624L19.1664 16.7136C19.4401 16.781 19.6074 17.0576 19.5401 17.3313C19.4727 17.6054 19.1957 17.7728 18.9217 17.7051L18.7377 17.6597C18.4595 17.5909 18.2745 17.3128 18.344 17.0348ZM27.5001 17.2101C27.568 16.9364 27.8448 16.7695 28.1185 16.837L28.3224 16.8874C28.5962 16.955 28.7634 17.2316 28.6961 17.5054C28.6286 17.7795 28.3518 17.9469 28.0777 17.8794L27.8738 17.8292C27.5995 17.7616 27.4321 17.4843 27.5001 17.2101ZM20.5109 17.57C20.5783 17.2959 20.8552 17.1285 21.1292 17.196L21.3343 17.2466C21.6081 17.3141 21.7754 17.5907 21.708 17.8645C21.6406 18.1385 21.3638 18.306 21.0898 18.2385L20.8847 18.1879C20.6109 18.1204 20.4436 17.8438 20.5109 17.57ZM29.667 17.7458C29.7344 17.4718 30.0111 17.3043 30.285 17.3717L30.6008 17.4493C30.8071 17.5 30.9475 17.7057 30.896 17.9117L30.8895 17.938C30.808 18.2687 30.4739 18.4706 30.1433 18.3892L30.0408 18.3639C29.7669 18.2964 29.5996 18.0197 29.667 17.7458ZM22.6802 18.1043C22.7481 17.831 23.0243 17.6642 23.2978 17.7314L23.5021 17.7817C23.776 17.849 23.9434 18.1257 23.876 18.3996C23.8086 18.6735 23.5318 18.841 23.2579 18.7734L23.0536 18.7231C22.7795 18.6555 22.6122 18.3783 22.6802 18.1043ZM24.8482 18.6395C24.916 18.3657 25.1929 18.1985 25.4668 18.2661L25.6702 18.3163C25.9441 18.3839 26.1114 18.6607 26.044 18.9346C25.9766 19.2086 25.6998 19.3762 25.4258 19.3089L25.2224 19.2589C24.9478 19.1914 24.7802 18.9139 24.8482 18.6395ZM18.0267 19.1247C18.0473 18.8068 18.3547 18.5941 18.6641 18.6702L18.6818 18.6746C18.9558 18.742 19.1231 19.0189 19.0555 19.2928C18.9878 19.5666 18.7109 19.7337 18.4371 19.6659L18.4188 19.6614C18.1786 19.6019 18.0103 19.3838 18.026 19.1369C18.0262 19.1328 18.0265 19.1288 18.0267 19.1247ZM27.0157 19.1722C27.0838 18.8984 27.3608 18.7315 27.6347 18.7991L27.838 18.8493C28.112 18.917 28.2794 19.1938 28.2121 19.4679C28.1446 19.7422 27.8675 19.9099 27.5932 19.8424L27.3898 19.7923C27.1151 19.7247 26.9474 19.4468 27.0157 19.1722ZM20.0266 19.5312C20.0942 19.2581 20.3704 19.0913 20.6436 19.1586L20.8504 19.2096C21.124 19.2771 21.2911 19.5537 21.2234 19.8272C21.1558 20.1004 20.8796 20.2672 20.6063 20.1998L20.3996 20.1489C20.1259 20.0814 19.9589 19.8048 20.0266 19.5312ZM29.1829 19.7089C29.2503 19.4349 29.5271 19.2674 29.8011 19.3348L30.0077 19.3856C30.2816 19.453 30.4489 19.7299 30.381 20.0038C30.3117 20.2808 30.0216 20.4416 29.7443 20.3732L29.5567 20.3269C29.2829 20.2594 29.1156 19.9827 29.1829 19.7089ZM22.196 20.067C22.2634 19.794 22.5393 19.6271 22.8124 19.6942L23.0182 19.7448C23.2919 19.8121 23.459 20.0887 23.3913 20.3622C23.3238 20.6353 23.0476 20.802 22.7745 20.7346L22.5687 20.6838C22.2955 20.6164 22.1286 20.3403 22.196 20.067ZM24.3631 20.6001C24.431 20.3264 24.7077 20.1594 24.9815 20.2269L25.1858 20.2773C25.4598 20.3449 25.6271 20.6219 25.5594 20.8959C25.4918 21.1698 25.215 21.337 24.9411 21.2695L24.7369 21.2192C24.4626 21.1516 24.2952 20.8743 24.3631 20.6001ZM18.0737 20.9894C18.0519 20.7972 18.2301 20.6467 18.4178 20.6933C18.5699 20.7311 18.6626 20.8849 18.6251 21.037L18.4892 21.5887C18.4669 21.679 18.3761 21.7345 18.2856 21.7131C18.2202 21.6977 18.1699 21.6451 18.1584 21.5789C18.1244 21.3834 18.0961 21.1867 18.0737 20.9894ZM26.5311 21.1356C26.599 20.8617 26.876 20.6945 27.15 20.7621L27.3534 20.8122C27.6276 20.8798 27.7951 21.157 27.7275 21.4313C27.6598 21.7055 27.3827 21.8729 27.1085 21.8053L26.9052 21.7552C26.6307 21.6876 26.4631 21.41 26.5311 21.1356ZM19.5419 21.4959C19.6093 21.2219 19.8862 21.0545 20.1601 21.122L20.3653 21.1726C20.6391 21.2401 20.8064 21.5167 20.739 21.7905C20.6716 22.0645 20.3948 22.232 20.1208 22.1644L19.9157 22.1139C19.6419 22.0464 19.4746 21.7698 19.5419 21.4959ZM28.698 21.6717C28.7654 21.3978 29.042 21.2304 29.3159 21.2977L29.3331 21.3019C29.643 21.3782 29.8134 21.7194 29.6844 22.0113C29.584 22.2383 29.3329 22.3537 29.0919 22.2945L29.0721 22.2896C28.7981 22.2223 28.6306 21.9456 28.698 21.6717ZM21.7119 22.0311C21.7793 21.7571 22.0562 21.5896 22.3303 21.6572L22.5335 21.7074C22.8072 21.7749 22.9744 22.0515 22.9071 22.3253C22.8397 22.5994 22.5627 22.7669 22.2886 22.6992L22.0854 22.649C21.8117 22.5815 21.6445 22.3049 21.7119 22.0311ZM23.8792 22.5638C23.947 22.2908 24.2232 22.1243 24.4963 22.1917L24.7021 22.2425C24.9755 22.31 25.1424 22.5863 25.075 22.8596C25.0076 23.133 24.7313 23.3001 24.4579 23.2327L24.252 23.1819C23.9782 23.1144 23.8112 22.8375 23.8792 22.5638ZM26.046 23.0992C26.1134 22.825 26.3902 22.6574 26.6644 22.7248L26.8701 22.7753C27.1448 22.8428 27.3125 23.1207 27.2441 23.3952C27.176 23.6686 26.8997 23.8354 26.6261 23.7682L26.4205 23.7176C26.1463 23.6503 25.9786 23.3734 26.046 23.0992ZM19.0576 23.4572C19.1252 23.184 19.4013 23.0173 19.6746 23.0846L19.8819 23.1357C20.1553 23.203 20.3224 23.4793 20.255 23.7528C20.1876 24.0262 19.9114 24.1932 19.638 24.1259L19.4306 24.0748C19.157 24.0074 18.9899 23.7308 19.0576 23.4572ZM28.336 23.1405C28.336 23.1396 28.3368 23.139 28.3377 23.1392L28.652 23.2163C28.8212 23.2579 28.8999 23.4529 28.8018 23.5969C28.6826 23.7717 28.5579 23.9427 28.4279 24.1097C28.3874 24.1617 28.32 24.1847 28.2559 24.169C28.1649 24.1468 28.1093 24.0549 28.1318 23.964L28.3359 23.1409C28.336 23.1408 28.336 23.1407 28.336 23.1405ZM21.2276 23.9924C21.2952 23.7192 21.5714 23.5524 21.8447 23.6199L22.0501 23.6706C22.3235 23.738 22.4904 24.0142 22.423 24.2876C22.3556 24.561 22.0793 24.728 21.8059 24.6606L21.6004 24.6099C21.3269 24.5425 21.1599 24.2659 21.2276 23.9924ZM23.3942 24.526C23.462 24.2524 23.7387 24.0854 24.0124 24.153L24.2173 24.2035C24.4911 24.271 24.6584 24.5477 24.591 24.8215C24.5236 25.0955 24.2468 25.263 23.9728 25.1955L23.7679 25.1451C23.4936 25.0775 23.3262 24.8002 23.3942 24.526ZM25.561 25.0618C25.6284 24.7878 25.905 24.6203 26.179 24.6877L26.3858 24.7385C26.6602 24.8059 26.8278 25.0833 26.7598 25.3576C26.6919 25.6312 26.4153 25.7982 26.1417 25.7308L25.9349 25.6798C25.661 25.6124 25.4936 25.3357 25.561 25.0618ZM19.8017 25.2782C19.7712 25.2453 19.8011 25.1964 19.8447 25.2071L19.8492 25.2082C19.8729 25.214 19.8874 25.2379 19.8817 25.2615C19.8734 25.2963 19.8291 25.3076 19.8048 25.2815C19.8038 25.2804 19.8028 25.2793 19.8017 25.2782ZM20.7683 25.8504C20.8217 25.6341 21.0403 25.502 21.2567 25.5554L21.6079 25.6421C21.8576 25.7038 22.0101 25.9561 21.9485 26.2058C21.882 26.4752 21.595 26.6287 21.3469 26.5047C21.2034 26.433 21.0636 26.3538 20.9282 26.2676C20.7894 26.1792 20.7288 26.0101 20.7683 25.8504ZM23.033 25.9974C23.033 25.9956 23.0347 25.9942 23.0365 25.9946L23.8365 26.1921C24.0527 26.2454 24.1847 26.4639 24.1313 26.6801C24.0918 26.84 23.9593 26.9613 23.7952 26.9751C23.727 26.9808 23.6587 26.985 23.5904 26.9878C23.1672 27.0051 22.8855 26.5931 22.9873 26.182L23.0329 25.9981C23.033 25.9979 23.033 25.9977 23.033 25.9974ZM25.1884 26.5706C25.1943 26.5474 25.2178 26.5333 25.241 26.5389L25.2472 26.5405C25.2905 26.5511 25.294 26.6075 25.2518 26.6219C25.2501 26.6225 25.2484 26.6231 25.2468 26.6237C25.2134 26.6351 25.1798 26.6048 25.1884 26.5706ZM20.5722 28.0718C20.5155 27.7203 20.9246 27.4173 21.2528 27.5555C21.4378 27.6334 21.5491 27.8321 21.501 28.027L20.439 32.3277C20.6652 31.1518 20.8319 29.682 20.5722 28.0718ZM22.4722 28.2647C22.5202 28.0704 22.7103 27.9465 22.9097 27.9633C23.264 27.9934 23.4846 28.4509 23.2713 28.7353C22.2881 30.0463 21.7524 31.4305 21.406 32.5797L22.4722 28.2647ZM30.18 29.7257C29.1964 29.7273 28.2536 30.1187 27.558 30.8141C26.8624 31.5094 26.4708 32.4522 26.469 33.4358C26.4714 34.419 26.863 35.3612 27.5582 36.0565C28.2535 36.7517 29.1958 37.1433 30.179 37.1457C31.1626 37.1439 32.1055 36.7525 32.8014 36.0572C33.4972 35.3619 33.8893 34.4194 33.892 33.4358C33.8896 32.4522 33.4977 31.5096 32.802 30.8143C32.1063 30.119 31.1635 29.7275 30.18 29.7257ZM19.9474 33.7617C19.9478 33.7617 19.9482 33.7617 19.9485 33.7616C20.015 33.75 20.0833 33.7542 20.148 33.7738L20.994 33.9807C21.0585 33.995 21.1194 34.0223 21.173 34.0609C21.2267 34.0994 21.2719 34.1485 21.3061 34.2051C21.3402 34.2616 21.3625 34.3246 21.3716 34.39C21.3807 34.4554 21.3764 34.5219 21.359 34.5857L20.119 39.6157C20.1047 39.6802 20.0774 39.7411 20.0388 39.7948C20.0003 39.8484 19.9512 39.8937 19.8947 39.9278C19.8381 39.962 19.7752 39.9843 19.7097 39.9934C19.6443 40.0025 19.5777 39.9981 19.514 39.9807L18.668 39.7738C18.6034 39.7595 18.5424 39.7321 18.4886 39.6935C18.4349 39.6548 18.3896 39.6057 18.3554 39.549C18.3213 39.4924 18.299 39.4293 18.29 39.3637C18.281 39.2982 18.2854 39.2315 18.303 39.1677L19.543 34.1377C19.5648 34.0417 19.6149 33.9545 19.687 33.8874C19.759 33.8205 19.8494 33.7767 19.9465 33.7618C19.9468 33.7617 19.9471 33.7617 19.9474 33.7617Z" stroke="black" mask="url(#path-2-outside-1_3_62402)"/>
</svg>
