<svg width="50" height="51" viewBox="0 0 50 51" fill="none" xmlns="http://www.w3.org/2000/svg">
<ellipse cx="25" cy="25.2265" rx="25" ry="24.8952" fill="#FCFCFC"/>
<path d="M41.8823 32.7191C41.1634 32.719 40.4528 32.5653 39.7986 32.2686C39.124 31.9634 38.3922 31.8043 37.6513 31.8018C36.9089 31.8047 36.1755 31.9638 35.4991 32.2686C34.8449 32.5652 34.1344 32.7186 33.4156 32.7186C32.6969 32.7186 31.9864 32.5652 31.3322 32.2686C30.6555 31.9654 29.9227 31.8065 29.1807 31.8018C28.4384 31.8053 27.705 31.9643 27.0285 32.2686C26.373 32.5651 25.6615 32.7186 24.9415 32.7186C24.2216 32.7186 23.51 32.5651 22.8546 32.2686C22.1813 31.9643 21.4509 31.8052 20.7115 31.8018C19.9694 31.8052 19.2363 31.9643 18.56 32.2686C17.9047 32.5653 17.1932 32.7188 16.4734 32.7188C15.7536 32.7188 15.0421 32.5653 14.3868 32.2686C13.7107 31.9637 12.9775 31.8046 12.2353 31.8018C11.4957 31.806 10.7654 31.965 10.0915 32.2686C9.43434 32.5648 8.72138 32.7184 8 32.7191V29.6291C8.72028 29.625 9.43209 29.4741 10.0915 29.1855C10.7635 28.8758 11.4948 28.7142 12.2353 28.7118C13.0019 28.7118 13.7367 28.8875 14.3868 29.1855C15.0425 29.4741 15.7509 29.625 16.4678 29.6291C17.1884 29.6261 17.9007 29.4751 18.56 29.1855C19.2345 28.875 19.9684 28.7134 20.7115 28.7118C21.4725 28.7118 22.2038 28.8875 22.8546 29.1855C23.5132 29.4744 24.2244 29.6254 24.944 29.6291C25.662 29.6253 26.3716 29.4744 27.0285 29.1855C27.7032 28.8751 28.4374 28.7134 29.1807 28.7118C29.9381 28.7118 30.6722 28.8875 31.3322 29.1855C31.964 29.4618 32.6734 29.6291 33.4146 29.6291C34.1327 29.6259 34.8424 29.4749 35.4991 29.1855C36.1736 28.8745 36.9079 28.7129 37.6513 28.7118C38.4179 28.7118 39.1513 28.8875 39.7986 29.1855C40.4551 29.4748 41.1645 29.6258 41.8823 29.6291V32.7191Z" fill="#575757"/>
<path d="M41.8824 27.2426C41.1634 27.2424 40.4529 27.0888 39.7986 26.792C39.1241 26.4869 38.3922 26.3278 37.6513 26.3253C36.9089 26.3282 36.1755 26.4872 35.4991 26.792C34.8449 27.0886 34.1344 27.2421 33.4156 27.2421C32.6969 27.2421 31.9864 27.0886 31.3322 26.792C30.6555 26.4889 29.9227 26.3299 29.1807 26.3253C28.4384 26.3287 27.705 26.4877 27.0285 26.792C26.373 27.0886 25.6615 27.242 24.9415 27.242C24.2216 27.242 23.51 27.0886 22.8546 26.792C22.1813 26.4877 21.4509 26.3287 20.7115 26.3253C19.9694 26.3287 19.2363 26.4877 18.56 26.792C17.9047 27.0887 17.1932 27.2423 16.4734 27.2423C15.7536 27.2423 15.0421 27.0887 14.3868 26.792C13.7107 26.4872 12.9775 26.3281 12.2353 26.3253C11.4957 26.3295 10.7654 26.4885 10.0915 26.792C9.43434 27.0882 8.72138 27.2418 8 27.2426V24.1525C8.72028 24.1485 9.43209 23.9976 10.0915 23.709C10.7635 23.3993 11.4948 23.2377 12.2353 23.2352C13.0019 23.2352 13.7367 23.411 14.3868 23.709C15.0425 23.9975 15.7509 24.1485 16.4678 24.1525C17.1884 24.1496 17.9007 23.9986 18.56 23.709C19.2345 23.3984 19.9684 23.2368 20.7115 23.2352C21.4725 23.2352 22.2038 23.411 22.8546 23.709C23.5132 23.9978 24.2244 24.1488 24.944 24.1525C25.662 24.1488 26.3716 23.9978 27.0285 23.709C27.7032 23.3985 28.4374 23.2369 29.1807 23.2352C29.9381 23.2352 30.6722 23.411 31.3322 23.709C31.964 23.9852 32.6734 24.1525 33.4146 24.1525C34.1327 24.1494 34.8424 23.9984 35.4991 23.709C36.1736 23.398 36.9079 23.2363 37.6513 23.2352C38.4179 23.2352 39.1513 23.411 39.7986 23.709C40.4551 23.9982 41.1645 24.1492 41.8824 24.1525V27.2426Z" fill="#575757"/>
<path d="M41.8824 22.2632C41.1634 22.2631 40.4529 22.1094 39.7986 21.8126C39.1241 21.5075 38.3922 21.3484 37.6513 21.3459C36.9089 21.3488 36.1755 21.5079 35.4991 21.8126C34.8449 22.1092 34.1344 22.2627 33.4156 22.2627C32.6969 22.2627 31.9864 22.1092 31.3322 21.8126C30.6555 21.5095 29.9227 21.3505 29.1807 21.3459C28.4384 21.3493 27.705 21.5084 27.0285 21.8126C26.373 22.1092 25.6615 22.2626 24.9415 22.2626C24.2216 22.2626 23.51 22.1092 22.8546 21.8126C22.1813 21.5084 21.4509 21.3493 20.7115 21.3459C19.9694 21.3493 19.2363 21.5084 18.56 21.8126C17.9047 22.1094 17.1932 22.2629 16.4734 22.2629C15.7536 22.2629 15.0421 22.1094 14.3868 21.8126C13.7107 21.5078 12.9775 21.3487 12.2353 21.3459C11.4957 21.3501 10.7654 21.5091 10.0915 21.8126C9.43434 22.1089 8.72138 22.2625 8 22.2632V19.1732C8.72028 19.1691 9.43209 19.0182 10.0915 18.7296C10.7635 18.4199 11.4948 18.2583 12.2353 18.2559C13.0019 18.2559 13.7367 18.4316 14.3868 18.7296C15.0425 19.0181 15.7509 19.1691 16.4678 19.1732C17.1884 19.1702 17.9007 19.0192 18.56 18.7296C19.2345 18.4191 19.9684 18.2575 20.7115 18.2559C21.4725 18.2559 22.2038 18.4316 22.8546 18.7296C23.5132 19.0185 24.2244 19.1694 24.944 19.1732C25.662 19.1694 26.3716 19.0184 27.0285 18.7296C27.7032 18.4191 28.4374 18.2575 29.1807 18.2559C29.9381 18.2559 30.6722 18.4316 31.3322 18.7296C31.964 19.0059 32.6734 19.1732 33.4146 19.1732C34.1327 19.17 34.8424 19.019 35.4991 18.7296C36.1736 18.4186 36.9079 18.257 37.6513 18.2559C38.4179 18.2559 39.1513 18.4316 39.7986 18.7296C40.4551 19.0189 41.1645 19.1699 41.8824 19.1732V22.2632Z" fill="#575757"/>
</svg>
