<svg width="50" height="50" viewBox="0 0 50 50" fill="none" xmlns="http://www.w3.org/2000/svg">
    <circle cx="25" cy="25" r="25" fill="#FCFCFC"/>
    <path d="M41.8823 32.5244C41.1634 32.5242 40.4528 32.3699 39.7986 32.0719C39.124 31.7655 38.3922 31.6057 37.6513 31.6032C36.9089 31.6061 36.1755 31.7658 35.4991 32.0719C34.8449 32.3697 34.1344 32.5238 33.4156 32.5238C32.6969 32.5238 31.9864 32.3697 31.3322 32.0719C30.6555 31.7675 29.9227 31.6078 29.1807 31.6032C28.4384 31.6066 27.705 31.7663 27.0285 32.0719C26.373 32.3697 25.6615 32.5238 24.9415 32.5238C24.2216 32.5238 23.51 32.3697 22.8546 32.0719C22.1813 31.7663 21.4509 31.6066 20.7115 31.6032C19.9694 31.6066 19.2363 31.7663 18.56 32.0719C17.9047 32.3699 17.1932 32.524 16.4734 32.524C15.7536 32.524 15.0421 32.3699 14.3868 32.0719C13.7107 31.7657 12.9775 31.606 12.2353 31.6032C11.4957 31.6074 10.7654 31.7671 10.0915 32.0719C9.43434 32.3694 8.72138 32.5236 8 32.5244V29.4213C8.72028 29.4172 9.43209 29.2657 10.0915 28.9759C10.7635 28.6648 11.4948 28.5026 12.2353 28.5001C13.0019 28.5001 13.7367 28.6766 14.3868 28.9759C15.0425 29.2656 15.7509 29.4172 16.4678 29.4213C17.1884 29.4183 17.9007 29.2667 18.56 28.9759C19.2345 28.664 19.9684 28.5017 20.7115 28.5001C21.4725 28.5001 22.2038 28.6766 22.8546 28.9759C23.5132 29.2659 24.2244 29.4175 24.944 29.4213C25.662 29.4175 26.3716 29.2659 27.0285 28.9759C27.7032 28.6641 28.4374 28.5018 29.1807 28.5001C29.9381 28.5001 30.6722 28.6766 31.3322 28.9759C31.964 29.2533 32.6734 29.4213 33.4146 29.4213C34.1327 29.4181 34.8424 29.2665 35.4991 28.9759C36.1736 28.6636 36.9079 28.5012 37.6513 28.5001C38.4179 28.5001 39.1513 28.6766 39.7986 28.9759C40.4551 29.2663 41.1645 29.418 41.8823 29.4213V32.5244Z" fill="black"/>
    <path d="M41.8824 27.0248C41.1634 27.0246 40.4529 26.8703 39.7986 26.5723C39.1241 26.2659 38.3922 26.1061 37.6513 26.1036C36.9089 26.1065 36.1755 26.2662 35.4991 26.5723C34.8449 26.8701 34.1344 27.0242 33.4156 27.0242C32.6969 27.0242 31.9864 26.8701 31.3322 26.5723C30.6555 26.2679 29.9227 26.1082 29.1807 26.1036C28.4384 26.107 27.705 26.2667 27.0285 26.5723C26.373 26.8701 25.6615 27.0242 24.9415 27.0242C24.2216 27.0242 23.51 26.8701 22.8546 26.5723C22.1813 26.2667 21.4509 26.107 20.7115 26.1036C19.9694 26.107 19.2363 26.2667 18.56 26.5723C17.9047 26.8703 17.1932 27.0244 16.4734 27.0244C15.7536 27.0244 15.0421 26.8703 14.3868 26.5723C13.7107 26.2661 12.9775 26.1064 12.2353 26.1036C11.4957 26.1078 10.7654 26.2675 10.0915 26.5723C9.43434 26.8698 8.72138 27.024 8 27.0248V23.9217C8.72028 23.9176 9.43209 23.766 10.0915 23.4763C10.7635 23.1652 11.4948 23.0029 12.2353 23.0005C13.0019 23.0005 13.7367 23.177 14.3868 23.4763C15.0425 23.766 15.7509 23.9176 16.4678 23.9217C17.1884 23.9187 17.9007 23.7671 18.56 23.4763C19.2345 23.1644 19.9684 23.0021 20.7115 23.0005C21.4725 23.0005 22.2038 23.177 22.8546 23.4763C23.5132 23.7663 24.2244 23.9179 24.944 23.9217C25.662 23.9179 26.3716 23.7663 27.0285 23.4763C27.7032 23.1645 28.4374 23.0022 29.1807 23.0005C29.9381 23.0005 30.6722 23.177 31.3322 23.4763C31.964 23.7537 32.6734 23.9217 33.4146 23.9217C34.1327 23.9185 34.8424 23.7669 35.4991 23.4763C36.1736 23.164 36.9079 23.0016 37.6513 23.0005C38.4179 23.0005 39.1513 23.177 39.7986 23.4763C40.4551 23.7667 41.1645 23.9184 41.8824 23.9217V27.0248Z" fill="black"/>
    <path d="M41.8824 22.0244C41.1634 22.0243 40.4529 21.87 39.7986 21.5719C39.1241 21.2655 38.3922 21.1058 37.6513 21.1032C36.9089 21.1062 36.1755 21.2659 35.4991 21.5719C34.8449 21.8698 34.1344 22.0239 33.4156 22.0239C32.6969 22.0239 31.9864 21.8698 31.3322 21.5719C30.6555 21.2675 29.9227 21.1079 29.1807 21.1032C28.4384 21.1067 27.705 21.2664 27.0285 21.5719C26.373 21.8698 25.6615 22.0238 24.9415 22.0238C24.2216 22.0238 23.51 21.8698 22.8546 21.5719C22.1813 21.2664 21.4509 21.1067 20.7115 21.1032C19.9694 21.1067 19.2363 21.2664 18.56 21.5719C17.9047 21.8699 17.1932 22.0241 16.4734 22.0241C15.7536 22.0241 15.0421 21.8699 14.3868 21.5719C13.7107 21.2658 12.9775 21.1061 12.2353 21.1032C11.4957 21.1074 10.7654 21.2671 10.0915 21.5719C9.43434 21.8694 8.72138 22.0236 8 22.0244V18.9214C8.72028 18.9173 9.43209 18.7657 10.0915 18.4759C10.7635 18.1649 11.4948 18.0026 12.2353 18.0002C13.0019 18.0002 13.7367 18.1766 14.3868 18.4759C15.0425 18.7657 15.7509 18.9173 16.4678 18.9214C17.1884 18.9184 17.9007 18.7668 18.56 18.4759C19.2345 18.1641 19.9684 18.0018 20.7115 18.0002C21.4725 18.0002 22.2038 18.1766 22.8546 18.4759C23.5132 18.766 24.2244 18.9176 24.944 18.9214C25.662 18.9176 26.3716 18.766 27.0285 18.4759C27.7032 18.1641 28.4374 18.0019 29.1807 18.0002C29.9381 18.0002 30.6722 18.1766 31.3322 18.4759C31.964 18.7534 32.6734 18.9214 33.4146 18.9214C34.1327 18.9182 34.8424 18.7666 35.4991 18.4759C36.1736 18.1636 36.9079 18.0013 37.6513 18.0002C38.4179 18.0002 39.1513 18.1766 39.7986 18.4759C40.4551 18.7664 41.1645 18.918 41.8824 18.9214V22.0244Z" fill="black"/>
</svg>
