<svg width="50" height="50" viewBox="0 0 50 50" fill="none" xmlns="http://www.w3.org/2000/svg">
<circle cx="25" cy="25" r="25" fill="#FCFCFC"/>
<path d="M34.0226 31.5991C33.4472 30.9512 33.1394 30.1088 33.1617 29.2425C33.1839 28.3761 33.5346 27.5507 34.1425 26.9331C34.7505 26.3156 35.5705 25.9521 36.4363 25.9164C37.3022 25.8806 38.1493 26.1752 38.8061 26.7405C39.7398 24.7134 40.1352 22.4798 39.9542 20.2554C39.7814 17.5894 38.6384 15.0788 36.7411 13.1979C34.8438 11.3169 32.3234 10.1958 29.656 10.0461C25.6583 9.70438 21.8042 11.2693 18.5173 14.5562C17.6038 15.4748 16.8467 16.5367 16.2759 17.6997L32.3142 33.7176C33.1784 33.2922 33.9883 32.7645 34.7265 32.1458C34.469 31.9951 34.2324 31.8113 34.0226 31.5991ZM30.9544 34.2916L15.7292 19.0664C15.5349 19.6239 15.3819 20.1949 15.2713 20.7748L29.246 34.7494C29.8259 34.6388 30.3969 34.4858 30.9544 34.2916ZM15.0663 22.5037C14.9834 24.0826 15.2157 25.6623 15.7497 27.1505C15.9375 27.631 15.9827 28.1555 15.8796 28.661C15.7766 29.1665 15.5298 29.6315 15.1688 30.0001L10.7885 34.3941C10.2836 34.9001 10 35.5858 10 36.3006C10 37.0155 10.2836 37.7012 10.7885 38.2072L11.8067 39.2254C12.317 39.7222 13.0011 40.0001 13.7133 40.0001C14.4254 40.0001 15.1095 39.7222 15.6198 39.2254L20.0207 34.8246C20.3893 34.4637 20.8543 34.2168 21.3598 34.1138C21.8653 34.0108 22.3898 34.0559 22.8703 34.2437C24.3584 34.7779 25.9381 35.0102 27.5171 34.9271L15.0663 22.5037Z" fill="#575757"/>
<path d="M38.8228 27.0021C38.3809 26.5402 37.8119 26.2196 37.1879 26.0809C36.5638 25.9422 35.9127 25.9916 35.3167 26.2229C34.7207 26.4542 34.2066 26.8569 33.8394 27.3802C33.4723 27.9035 33.2685 28.524 33.2538 29.1631C33.2391 29.8022 33.4142 30.4313 33.757 30.971C34.0997 31.5106 34.5948 31.9365 35.1795 32.1949C35.7642 32.4533 36.4125 32.5325 37.0422 32.4226C37.672 32.3127 38.255 32.0186 38.7177 31.5774C39.0253 31.2841 39.2721 30.933 39.4439 30.5442C39.6157 30.1554 39.7092 29.7365 39.7189 29.3116C39.7287 28.8866 39.6546 28.4639 39.5008 28.0676C39.347 27.6714 39.1166 27.3093 38.8228 27.0021Z" fill="#575757" stroke="#FCFCFC"/>
</svg>
