<svg width="50" height="50" viewBox="0 0 50 50" fill="none" xmlns="http://www.w3.org/2000/svg">
<circle cx="25" cy="25" r="25" fill="#FCFCFC"/>
<path d="M30.5721 29.8077V31.0457C30.5721 32.0695 31.4053 32.9026 32.4291 32.9026H36.143C37.1668 32.9026 38 32.0695 38 31.0457V29.8077H30.5721ZM34.286 14.9519C33.9443 14.9519 33.667 14.6746 33.667 14.3329V10.619C33.667 10.2773 33.9443 10 34.286 10C34.6277 10 34.905 10.2773 34.905 10.619V14.3329C34.905 14.6746 34.6277 14.9519 34.286 14.9519Z" fill="#636363"/>
<path d="M37.3811 11.238H31.1906C30.8489 11.238 30.5716 10.9607 30.5716 10.619C30.5716 10.2773 30.8489 10 31.1906 10H37.3811C37.7228 10 38.0001 10.2773 38.0001 10.619C38.0001 10.9607 37.7228 11.238 37.3811 11.238ZM19.4527 16.2338C21.171 16.2338 22.5693 14.8356 22.5693 13.1172C22.5693 11.3983 21.171 10 19.4527 10C17.7337 10 16.3354 11.3983 16.3354 13.1172C16.3354 14.8356 17.7337 16.2338 19.4527 16.2338ZM36.1431 13.7139H32.4292C31.4054 13.7139 30.5722 14.5471 30.5722 15.5709V15.6334C31.9829 15.9213 33.0482 17.171 33.0482 18.6659V19.9038C33.0482 21.3981 31.9829 22.6484 30.5722 22.9363V28.5697H38.0001V15.5709C38.0001 14.5471 37.1669 13.7139 36.1431 13.7139Z" fill="#636363"/>
<path d="M29.9522 16.8091H27.4762C27.1345 16.8091 26.8572 17.0864 26.8572 17.4281H23.1433H16.9534C16.3146 17.4281 15.7507 17.7524 15.4164 18.2445C15.7593 18.1158 16.1221 18.0427 16.4904 18.0427C17.3173 18.0427 18.0966 18.3702 18.6834 18.965L19.5476 19.8298C20.1313 20.4128 20.4531 21.1903 20.4531 22.0185C20.4531 22.8455 20.1313 23.6229 19.5469 24.2073L17.7958 25.959C17.4448 26.31 16.9787 26.5031 16.4823 26.5031C15.9859 26.5031 15.5198 26.31 15.1694 25.959L15.0958 25.8853V29.7082L12.0318 38.8977C11.9686 39.0865 12.0008 39.2939 12.1172 39.4555C12.2336 39.6164 12.4211 39.7117 12.6198 39.7117H15.716C15.9828 39.7117 16.2192 39.5415 16.3034 39.2883L19.2566 30.4269H19.7586L22.5243 33.7459L22.5237 39.0927C22.5237 39.2568 22.5887 39.4146 22.705 39.5304C22.8214 39.6461 22.9786 39.7117 23.1427 39.7117H25.6192C25.9609 39.7117 26.2382 39.4344 26.2382 39.0927V32.9028C26.2382 32.7623 26.1906 32.6261 26.1027 32.516L23.7623 29.5906V21.142H26.8572C26.8572 21.4837 27.1345 21.761 27.4762 21.761H29.9522C30.976 21.761 31.8091 20.9278 31.8091 19.904V18.6661C31.8091 17.6422 30.976 16.8091 29.9522 16.8091Z" fill="#636363"/>
<path d="M16.0466 25.0832C16.1629 25.1996 16.3202 25.2646 16.4842 25.2646C16.6482 25.2646 16.8061 25.1996 16.9218 25.0832L18.6736 23.3315C19.0239 22.9811 19.217 22.5144 19.217 22.018C19.217 21.5209 19.0239 21.0548 18.6736 20.7045L17.8039 19.8342C17.1335 19.1545 16.0812 19.0939 15.3434 19.6881C15.2827 19.7308 15.2239 19.7809 15.1744 19.8304L13.4227 21.576C13.3063 21.6924 13.2413 21.849 13.2407 22.0136C13.2407 22.1777 13.3051 22.3355 13.4214 22.4519L16.0466 25.0832Z" fill="#636363"/>
</svg>
