<svg width="50" height="50" viewBox="0 0 50 50" fill="none" xmlns="http://www.w3.org/2000/svg">
<circle cx="25" cy="25" r="25" fill="#FCFCFC"/>
<mask id="path-2-outside-1_212_761" maskUnits="userSpaceOnUse" x="16" y="7" width="19" height="35" fill="black">
<rect fill="white" x="16" y="7" width="19" height="35"/>
<path d="M25.2494 8.00383C24.7733 7.9877 24.2968 8.02251 23.8275 8.10761C21.0358 8.60765 18.6308 10.8277 17.8927 13.9213L17.3745 16.0916C16.7459 18.7215 16.9307 21.3035 17.7632 23.3794C17.9028 23.7269 18.0664 24.0537 18.2432 24.3722L18.2351 24.3826C20.3158 27.5872 19.7535 30.8551 19.2905 32.8708C19.1149 32.9742 18.9613 33.1133 18.8389 33.2797C18.7166 33.446 18.628 33.6361 18.5786 33.8386L17.3334 39.0569C17.1355 39.8847 17.6346 40.7365 18.436 40.9409L19.2845 41.1555C19.6721 41.2525 20.081 41.1875 20.4223 40.9746C20.7637 40.7616 21.0098 40.418 21.1071 40.0186L22.3544 34.8003C22.4548 34.3771 22.3714 33.9486 22.1605 33.6021C22.6576 31.5957 23.6307 28.4316 26.9164 26.5933L26.9124 26.5829C27.2116 26.3858 27.5049 26.1752 27.786 25.9345C29.457 24.4967 30.7836 22.2973 31.4112 19.6675L31.9294 17.4993C32.9145 13.3756 30.5807 9.20309 26.7005 8.21443C26.2252 8.09317 25.7388 8.02368 25.2494 8.007V8.00383ZM25.2123 9.03714C25.4613 9.04751 25.7144 9.07656 25.9654 9.11806L25.7254 10.1212L24.5254 9.8152L24.7102 9.04752C24.8773 9.03627 25.0449 9.0328 25.2123 9.03714ZM23.6357 9.21766L23.5503 9.56826L22.9599 9.41996C23.1808 9.33801 23.4078 9.27368 23.6357 9.21766ZM26.9415 9.37013C27.3472 9.51018 27.7298 9.69173 28.0863 9.91062L27.9025 10.6783L26.7025 10.3723L26.9415 9.37013ZM22.1093 10.2696L23.3093 10.5756L23.0643 11.6047L21.8623 11.3008L22.1093 10.2696ZM28.966 10.5673C29.1467 10.7291 29.3174 10.8962 29.4781 11.0777L28.8796 10.9263L28.966 10.5673ZM20.9927 10.6078L20.8872 11.0518L20.603 10.9792C20.7279 10.8499 20.8579 10.726 20.9927 10.6078ZM24.2844 10.8225L25.4864 11.1286L25.2394 12.1618L24.0394 11.8558L24.2844 10.8225ZM26.4635 11.3796L27.6635 11.6856L27.4165 12.7148L26.2165 12.4087L26.4635 11.3796ZM19.8931 11.8641L20.6462 12.0581L20.4012 13.0851L19.3518 12.8185C19.5085 12.4814 19.6902 12.1628 19.8931 11.8641ZM28.6396 11.9326L29.8406 12.2385L29.5956 13.2677L28.3936 12.9616L28.6396 11.9326ZM21.6203 12.306L22.8233 12.611L22.5783 13.638L21.3753 13.3321L21.6203 12.306ZM23.7974 12.86L25.0004 13.166L24.7554 14.1931L23.5524 13.8881L23.7974 12.86ZM30.6781 13.0613C30.7454 13.2335 30.8057 13.4088 30.8589 13.5882L30.5707 13.5157L30.6781 13.0613ZM25.9765 13.414L27.1775 13.7201L26.9325 14.7471L25.7295 14.441L25.9765 13.414ZM18.9843 13.7926L20.1592 14.0925L19.9142 15.1216L18.7121 14.8155L18.8668 14.1651C18.8979 14.0364 18.9471 13.9192 18.9843 13.7926ZM28.1536 13.969L29.3546 14.275L29.1086 15.302L27.9065 14.9961L28.1536 13.969ZM21.1343 14.3425L22.3363 14.6474L22.0913 15.6745L20.8892 15.3685L21.1343 14.3425ZM30.3287 14.5219L31.0959 14.7191C31.1401 15.0791 31.1581 15.4483 31.1451 15.8207L30.0836 15.551L30.3287 14.5219ZM23.3113 14.8964L24.5134 15.2025L24.2683 16.2295L23.0663 15.9246L23.3113 14.8964ZM25.4905 15.4494L26.6905 15.7554L26.4454 16.7856L25.2434 16.4795L25.4905 15.4494ZM18.4711 15.8229L19.6731 16.1289L19.4281 17.158L18.2452 16.8561C18.2793 16.6819 18.3074 16.5097 18.3496 16.3354L18.4711 15.8229ZM27.6676 16.0034L28.8676 16.3094L28.6225 17.3385L27.4205 17.0325L27.6676 16.0034ZM20.6482 16.3758L21.8502 16.6819L21.6052 17.7109L20.4032 17.405L20.6482 16.3758ZM29.8426 16.5584L31.0276 16.8593C31.0035 16.9879 30.9854 17.1165 30.9543 17.2452L30.7996 17.8936L29.5976 17.5875L29.8426 16.5584ZM22.8273 16.9319L24.0273 17.2368L23.7823 18.266L22.5803 17.9599L22.8273 16.9319ZM25.0044 17.4859L26.2044 17.7919L25.9594 18.821L24.7574 18.516L25.0044 17.4859ZM18.0855 17.8832L19.1871 18.1633L18.9411 19.1924L18.0122 18.9548C18.0192 18.6021 18.0453 18.2442 18.0855 17.8832ZM27.1815 18.0388L28.3815 18.3449L28.1365 19.375L26.9335 19.069L27.1815 18.0388ZM20.1622 18.4123L21.3642 18.7183L21.1182 19.7454L19.9162 19.4393L20.1622 18.4123ZM29.3566 18.5949L30.5606 18.9008L30.4371 19.4155C30.3949 19.5898 30.3437 19.7557 30.2965 19.9258L29.1116 19.6239L29.3566 18.5949ZM22.3403 18.9683L23.5413 19.2733L23.2953 20.3003L22.0953 19.9943L22.3403 18.9683ZM24.5174 19.5202L25.7184 19.8263L25.4724 20.8554L24.2704 20.5494L24.5174 19.5202ZM18.0413 20.0327L18.7001 20.2018L18.4551 21.2288L18.1829 21.1625C18.1159 20.7892 18.0686 20.4113 18.0413 20.0327ZM26.6945 20.0753L27.8955 20.3812L27.6495 21.4114L26.4475 21.1053L26.6945 20.0753ZM19.6752 20.4487L20.8772 20.7548L20.6322 21.7839L19.4301 21.4778L19.6752 20.4487ZM28.8696 20.6313L29.9722 20.9115C29.8446 21.2497 29.7091 21.5816 29.5564 21.897L28.6245 21.6604L28.8696 20.6313ZM21.8543 21.0038L23.0543 21.3097L22.8093 22.3389L21.6092 22.0328L21.8543 21.0038ZM24.0314 21.5587L25.2314 21.8648L24.9863 22.8918L23.7843 22.5857L24.0314 21.5587ZM26.2064 22.1117L27.4115 22.4177L27.1634 23.4469L25.9614 23.1418L26.2064 22.1117ZM19.1891 22.4852L20.3911 22.7911L20.1461 23.8183L18.9431 23.5122L19.1891 22.4852ZM28.3835 22.6678L29.0463 22.8358C28.8503 23.1568 28.6375 23.4664 28.4086 23.7632L28.1375 23.6948L28.3835 22.6698V22.6678ZM21.3682 23.0402L22.5682 23.3462L22.3232 24.3732L21.1222 24.0673L21.3682 23.0402ZM23.5443 23.5931L24.7453 23.8992L24.5003 24.9283L23.2973 24.6222L23.5443 23.5931ZM25.7194 24.1482L26.9244 24.4542L26.6774 25.4833L25.4744 25.1773L25.7194 24.1482ZM19.7203 24.7789L19.9041 24.8256L19.874 24.9553C19.8228 24.8961 19.7696 24.8411 19.7203 24.7789ZM20.8812 25.0746L22.0812 25.3806L21.8442 26.3734C21.4434 26.2214 21.0646 26.0134 20.7185 25.7551L20.8812 25.0746ZM23.0583 25.6296L24.2583 25.9356L24.0956 26.6161C23.6728 26.6777 23.244 26.6812 22.8203 26.6265L23.0583 25.6338V25.6296ZM25.2334 26.1845L25.4182 26.2313C25.3469 26.2624 25.2735 26.2842 25.2022 26.3122L25.2334 26.1845ZM20.3731 26.7542C20.7567 27.0135 21.1664 27.2262 21.6052 27.3818L20.4534 32.2006C20.7266 30.7337 20.9133 28.8259 20.3731 26.7542ZM22.5803 27.6297C23.0372 27.7013 23.4941 27.7107 23.949 27.6661C22.5341 29.2471 21.8422 31.0303 21.4245 32.462L22.5803 27.6297ZM30.2353 29.5012C29.2476 29.5028 28.3008 29.9089 27.6023 30.6303C26.9038 31.3517 26.5106 32.3297 26.5087 33.3501C26.5111 34.3701 26.9044 35.3476 27.6025 36.0689C28.3007 36.7901 29.2469 37.1964 30.2343 37.1989C31.2221 37.1969 32.1689 36.7909 32.8677 36.0696C33.5664 35.3483 33.9602 34.3705 33.9629 33.3501C33.9605 32.3297 33.5669 31.3519 32.8683 30.6305C32.1697 29.9092 31.223 29.5031 30.2353 29.5012ZM19.9603 33.6882C20.0273 33.6761 20.0961 33.6804 20.1612 33.7007L21.0107 33.9154C21.0755 33.9302 21.1367 33.9586 21.1905 33.9986C21.2444 34.0386 21.2899 34.0895 21.3241 34.1482C21.3584 34.2068 21.3808 34.2721 21.3899 34.34C21.3991 34.4079 21.3948 34.4769 21.3773 34.543L20.1321 39.7612C20.1177 39.8282 20.0903 39.8914 20.0516 39.947C20.0129 40.0027 19.9636 40.0497 19.9068 40.0851C19.85 40.1205 19.7868 40.1436 19.7211 40.1531C19.6554 40.1625 19.5885 40.158 19.5245 40.1399L18.675 39.9252C18.6101 39.9104 18.5488 39.882 18.4949 39.8419C18.4409 39.8018 18.3954 39.7509 18.3611 39.6921C18.3268 39.6333 18.3045 39.5679 18.2954 39.4999C18.2864 39.4319 18.2908 39.3627 18.3084 39.2965L19.5536 34.0782C19.5755 33.9787 19.6259 33.8882 19.6983 33.8186C19.7706 33.7491 19.8616 33.7036 19.9593 33.6882H19.9603Z"/>
</mask>
<path d="M25.2494 8.00383C24.7733 7.9877 24.2968 8.02251 23.8275 8.10761C21.0358 8.60765 18.6308 10.8277 17.8927 13.9213L17.3745 16.0916C16.7459 18.7215 16.9307 21.3035 17.7632 23.3794C17.9028 23.7269 18.0664 24.0537 18.2432 24.3722L18.2351 24.3826C20.3158 27.5872 19.7535 30.8551 19.2905 32.8708C19.1149 32.9742 18.9613 33.1133 18.8389 33.2797C18.7166 33.446 18.628 33.6361 18.5786 33.8386L17.3334 39.0569C17.1355 39.8847 17.6346 40.7365 18.436 40.9409L19.2845 41.1555C19.6721 41.2525 20.081 41.1875 20.4223 40.9746C20.7637 40.7616 21.0098 40.418 21.1071 40.0186L22.3544 34.8003C22.4548 34.3771 22.3714 33.9486 22.1605 33.6021C22.6576 31.5957 23.6307 28.4316 26.9164 26.5933L26.9124 26.5829C27.2116 26.3858 27.5049 26.1752 27.786 25.9345C29.457 24.4967 30.7836 22.2973 31.4112 19.6675L31.9294 17.4993C32.9145 13.3756 30.5807 9.20309 26.7005 8.21443C26.2252 8.09317 25.7388 8.02368 25.2494 8.007V8.00383ZM25.2123 9.03714C25.4613 9.04751 25.7144 9.07656 25.9654 9.11806L25.7254 10.1212L24.5254 9.8152L24.7102 9.04752C24.8773 9.03627 25.0449 9.0328 25.2123 9.03714ZM23.6357 9.21766L23.5503 9.56826L22.9599 9.41996C23.1808 9.33801 23.4078 9.27368 23.6357 9.21766ZM26.9415 9.37013C27.3472 9.51018 27.7298 9.69173 28.0863 9.91062L27.9025 10.6783L26.7025 10.3723L26.9415 9.37013ZM22.1093 10.2696L23.3093 10.5756L23.0643 11.6047L21.8623 11.3008L22.1093 10.2696ZM28.966 10.5673C29.1467 10.7291 29.3174 10.8962 29.4781 11.0777L28.8796 10.9263L28.966 10.5673ZM20.9927 10.6078L20.8872 11.0518L20.603 10.9792C20.7279 10.8499 20.8579 10.726 20.9927 10.6078ZM24.2844 10.8225L25.4864 11.1286L25.2394 12.1618L24.0394 11.8558L24.2844 10.8225ZM26.4635 11.3796L27.6635 11.6856L27.4165 12.7148L26.2165 12.4087L26.4635 11.3796ZM19.8931 11.8641L20.6462 12.0581L20.4012 13.0851L19.3518 12.8185C19.5085 12.4814 19.6902 12.1628 19.8931 11.8641ZM28.6396 11.9326L29.8406 12.2385L29.5956 13.2677L28.3936 12.9616L28.6396 11.9326ZM21.6203 12.306L22.8233 12.611L22.5783 13.638L21.3753 13.3321L21.6203 12.306ZM23.7974 12.86L25.0004 13.166L24.7554 14.1931L23.5524 13.8881L23.7974 12.86ZM30.6781 13.0613C30.7454 13.2335 30.8057 13.4088 30.8589 13.5882L30.5707 13.5157L30.6781 13.0613ZM25.9765 13.414L27.1775 13.7201L26.9325 14.7471L25.7295 14.441L25.9765 13.414ZM18.9843 13.7926L20.1592 14.0925L19.9142 15.1216L18.7121 14.8155L18.8668 14.1651C18.8979 14.0364 18.9471 13.9192 18.9843 13.7926ZM28.1536 13.969L29.3546 14.275L29.1086 15.302L27.9065 14.9961L28.1536 13.969ZM21.1343 14.3425L22.3363 14.6474L22.0913 15.6745L20.8892 15.3685L21.1343 14.3425ZM30.3287 14.5219L31.0959 14.7191C31.1401 15.0791 31.1581 15.4483 31.1451 15.8207L30.0836 15.551L30.3287 14.5219ZM23.3113 14.8964L24.5134 15.2025L24.2683 16.2295L23.0663 15.9246L23.3113 14.8964ZM25.4905 15.4494L26.6905 15.7554L26.4454 16.7856L25.2434 16.4795L25.4905 15.4494ZM18.4711 15.8229L19.6731 16.1289L19.4281 17.158L18.2452 16.8561C18.2793 16.6819 18.3074 16.5097 18.3496 16.3354L18.4711 15.8229ZM27.6676 16.0034L28.8676 16.3094L28.6225 17.3385L27.4205 17.0325L27.6676 16.0034ZM20.6482 16.3758L21.8502 16.6819L21.6052 17.7109L20.4032 17.405L20.6482 16.3758ZM29.8426 16.5584L31.0276 16.8593C31.0035 16.9879 30.9854 17.1165 30.9543 17.2452L30.7996 17.8936L29.5976 17.5875L29.8426 16.5584ZM22.8273 16.9319L24.0273 17.2368L23.7823 18.266L22.5803 17.9599L22.8273 16.9319ZM25.0044 17.4859L26.2044 17.7919L25.9594 18.821L24.7574 18.516L25.0044 17.4859ZM18.0855 17.8832L19.1871 18.1633L18.9411 19.1924L18.0122 18.9548C18.0192 18.6021 18.0453 18.2442 18.0855 17.8832ZM27.1815 18.0388L28.3815 18.3449L28.1365 19.375L26.9335 19.069L27.1815 18.0388ZM20.1622 18.4123L21.3642 18.7183L21.1182 19.7454L19.9162 19.4393L20.1622 18.4123ZM29.3566 18.5949L30.5606 18.9008L30.4371 19.4155C30.3949 19.5898 30.3437 19.7557 30.2965 19.9258L29.1116 19.6239L29.3566 18.5949ZM22.3403 18.9683L23.5413 19.2733L23.2953 20.3003L22.0953 19.9943L22.3403 18.9683ZM24.5174 19.5202L25.7184 19.8263L25.4724 20.8554L24.2704 20.5494L24.5174 19.5202ZM18.0413 20.0327L18.7001 20.2018L18.4551 21.2288L18.1829 21.1625C18.1159 20.7892 18.0686 20.4113 18.0413 20.0327ZM26.6945 20.0753L27.8955 20.3812L27.6495 21.4114L26.4475 21.1053L26.6945 20.0753ZM19.6752 20.4487L20.8772 20.7548L20.6322 21.7839L19.4301 21.4778L19.6752 20.4487ZM28.8696 20.6313L29.9722 20.9115C29.8446 21.2497 29.7091 21.5816 29.5564 21.897L28.6245 21.6604L28.8696 20.6313ZM21.8543 21.0038L23.0543 21.3097L22.8093 22.3389L21.6092 22.0328L21.8543 21.0038ZM24.0314 21.5587L25.2314 21.8648L24.9863 22.8918L23.7843 22.5857L24.0314 21.5587ZM26.2064 22.1117L27.4115 22.4177L27.1634 23.4469L25.9614 23.1418L26.2064 22.1117ZM19.1891 22.4852L20.3911 22.7911L20.1461 23.8183L18.9431 23.5122L19.1891 22.4852ZM28.3835 22.6678L29.0463 22.8358C28.8503 23.1568 28.6375 23.4664 28.4086 23.7632L28.1375 23.6948L28.3835 22.6698V22.6678ZM21.3682 23.0402L22.5682 23.3462L22.3232 24.3732L21.1222 24.0673L21.3682 23.0402ZM23.5443 23.5931L24.7453 23.8992L24.5003 24.9283L23.2973 24.6222L23.5443 23.5931ZM25.7194 24.1482L26.9244 24.4542L26.6774 25.4833L25.4744 25.1773L25.7194 24.1482ZM19.7203 24.7789L19.9041 24.8256L19.874 24.9553C19.8228 24.8961 19.7696 24.8411 19.7203 24.7789ZM20.8812 25.0746L22.0812 25.3806L21.8442 26.3734C21.4434 26.2214 21.0646 26.0134 20.7185 25.7551L20.8812 25.0746ZM23.0583 25.6296L24.2583 25.9356L24.0956 26.6161C23.6728 26.6777 23.244 26.6812 22.8203 26.6265L23.0583 25.6338V25.6296ZM25.2334 26.1845L25.4182 26.2313C25.3469 26.2624 25.2735 26.2842 25.2022 26.3122L25.2334 26.1845ZM20.3731 26.7542C20.7567 27.0135 21.1664 27.2262 21.6052 27.3818L20.4534 32.2006C20.7266 30.7337 20.9133 28.8259 20.3731 26.7542ZM22.5803 27.6297C23.0372 27.7013 23.4941 27.7107 23.949 27.6661C22.5341 29.2471 21.8422 31.0303 21.4245 32.462L22.5803 27.6297ZM30.2353 29.5012C29.2476 29.5028 28.3008 29.9089 27.6023 30.6303C26.9038 31.3517 26.5106 32.3297 26.5087 33.3501C26.5111 34.3701 26.9044 35.3476 27.6025 36.0689C28.3007 36.7901 29.2469 37.1964 30.2343 37.1989C31.2221 37.1969 32.1689 36.7909 32.8677 36.0696C33.5664 35.3483 33.9602 34.3705 33.9629 33.3501C33.9605 32.3297 33.5669 31.3519 32.8683 30.6305C32.1697 29.9092 31.223 29.5031 30.2353 29.5012ZM19.9603 33.6882C20.0273 33.6761 20.0961 33.6804 20.1612 33.7007L21.0107 33.9154C21.0755 33.9302 21.1367 33.9586 21.1905 33.9986C21.2444 34.0386 21.2899 34.0895 21.3241 34.1482C21.3584 34.2068 21.3808 34.2721 21.3899 34.34C21.3991 34.4079 21.3948 34.4769 21.3773 34.543L20.1321 39.7612C20.1177 39.8282 20.0903 39.8914 20.0516 39.947C20.0129 40.0027 19.9636 40.0497 19.9068 40.0851C19.85 40.1205 19.7868 40.1436 19.7211 40.1531C19.6554 40.1625 19.5885 40.158 19.5245 40.1399L18.675 39.9252C18.6101 39.9104 18.5488 39.882 18.4949 39.8419C18.4409 39.8018 18.3954 39.7509 18.3611 39.6921C18.3268 39.6333 18.3045 39.5679 18.2954 39.4999C18.2864 39.4319 18.2908 39.3627 18.3084 39.2965L19.5536 34.0782C19.5755 33.9787 19.6259 33.8882 19.6983 33.8186C19.7706 33.7491 19.8616 33.7036 19.9593 33.6882H19.9603Z" fill="#575757"/>
<path d="M25.2494 8.00383C24.7733 7.9877 24.2968 8.02251 23.8275 8.10761C21.0358 8.60765 18.6308 10.8277 17.8927 13.9213L17.3745 16.0916C16.7459 18.7215 16.9307 21.3035 17.7632 23.3794C17.9028 23.7269 18.0664 24.0537 18.2432 24.3722L18.2351 24.3826C20.3158 27.5872 19.7535 30.8551 19.2905 32.8708C19.1149 32.9742 18.9613 33.1133 18.8389 33.2797C18.7166 33.446 18.628 33.6361 18.5786 33.8386L17.3334 39.0569C17.1355 39.8847 17.6346 40.7365 18.436 40.9409L19.2845 41.1555C19.6721 41.2525 20.081 41.1875 20.4223 40.9746C20.7637 40.7616 21.0098 40.418 21.1071 40.0186L22.3544 34.8003C22.4548 34.3771 22.3714 33.9486 22.1605 33.6021C22.6576 31.5957 23.6307 28.4316 26.9164 26.5933L26.9124 26.5829C27.2116 26.3858 27.5049 26.1752 27.786 25.9345C29.457 24.4967 30.7836 22.2973 31.4112 19.6675L31.9294 17.4993C32.9145 13.3756 30.5807 9.20309 26.7005 8.21443C26.2252 8.09317 25.7388 8.02368 25.2494 8.007V8.00383ZM25.2123 9.03714C25.4613 9.04751 25.7144 9.07656 25.9654 9.11806L25.7254 10.1212L24.5254 9.8152L24.7102 9.04752C24.8773 9.03627 25.0449 9.0328 25.2123 9.03714ZM23.6357 9.21766L23.5503 9.56826L22.9599 9.41996C23.1808 9.33801 23.4078 9.27368 23.6357 9.21766ZM26.9415 9.37013C27.3472 9.51018 27.7298 9.69173 28.0863 9.91062L27.9025 10.6783L26.7025 10.3723L26.9415 9.37013ZM22.1093 10.2696L23.3093 10.5756L23.0643 11.6047L21.8623 11.3008L22.1093 10.2696ZM28.966 10.5673C29.1467 10.7291 29.3174 10.8962 29.4781 11.0777L28.8796 10.9263L28.966 10.5673ZM20.9927 10.6078L20.8872 11.0518L20.603 10.9792C20.7279 10.8499 20.8579 10.726 20.9927 10.6078ZM24.2844 10.8225L25.4864 11.1286L25.2394 12.1618L24.0394 11.8558L24.2844 10.8225ZM26.4635 11.3796L27.6635 11.6856L27.4165 12.7148L26.2165 12.4087L26.4635 11.3796ZM19.8931 11.8641L20.6462 12.0581L20.4012 13.0851L19.3518 12.8185C19.5085 12.4814 19.6902 12.1628 19.8931 11.8641ZM28.6396 11.9326L29.8406 12.2385L29.5956 13.2677L28.3936 12.9616L28.6396 11.9326ZM21.6203 12.306L22.8233 12.611L22.5783 13.638L21.3753 13.3321L21.6203 12.306ZM23.7974 12.86L25.0004 13.166L24.7554 14.1931L23.5524 13.8881L23.7974 12.86ZM30.6781 13.0613C30.7454 13.2335 30.8057 13.4088 30.8589 13.5882L30.5707 13.5157L30.6781 13.0613ZM25.9765 13.414L27.1775 13.7201L26.9325 14.7471L25.7295 14.441L25.9765 13.414ZM18.9843 13.7926L20.1592 14.0925L19.9142 15.1216L18.7121 14.8155L18.8668 14.1651C18.8979 14.0364 18.9471 13.9192 18.9843 13.7926ZM28.1536 13.969L29.3546 14.275L29.1086 15.302L27.9065 14.9961L28.1536 13.969ZM21.1343 14.3425L22.3363 14.6474L22.0913 15.6745L20.8892 15.3685L21.1343 14.3425ZM30.3287 14.5219L31.0959 14.7191C31.1401 15.0791 31.1581 15.4483 31.1451 15.8207L30.0836 15.551L30.3287 14.5219ZM23.3113 14.8964L24.5134 15.2025L24.2683 16.2295L23.0663 15.9246L23.3113 14.8964ZM25.4905 15.4494L26.6905 15.7554L26.4454 16.7856L25.2434 16.4795L25.4905 15.4494ZM18.4711 15.8229L19.6731 16.1289L19.4281 17.158L18.2452 16.8561C18.2793 16.6819 18.3074 16.5097 18.3496 16.3354L18.4711 15.8229ZM27.6676 16.0034L28.8676 16.3094L28.6225 17.3385L27.4205 17.0325L27.6676 16.0034ZM20.6482 16.3758L21.8502 16.6819L21.6052 17.7109L20.4032 17.405L20.6482 16.3758ZM29.8426 16.5584L31.0276 16.8593C31.0035 16.9879 30.9854 17.1165 30.9543 17.2452L30.7996 17.8936L29.5976 17.5875L29.8426 16.5584ZM22.8273 16.9319L24.0273 17.2368L23.7823 18.266L22.5803 17.9599L22.8273 16.9319ZM25.0044 17.4859L26.2044 17.7919L25.9594 18.821L24.7574 18.516L25.0044 17.4859ZM18.0855 17.8832L19.1871 18.1633L18.9411 19.1924L18.0122 18.9548C18.0192 18.6021 18.0453 18.2442 18.0855 17.8832ZM27.1815 18.0388L28.3815 18.3449L28.1365 19.375L26.9335 19.069L27.1815 18.0388ZM20.1622 18.4123L21.3642 18.7183L21.1182 19.7454L19.9162 19.4393L20.1622 18.4123ZM29.3566 18.5949L30.5606 18.9008L30.4371 19.4155C30.3949 19.5898 30.3437 19.7557 30.2965 19.9258L29.1116 19.6239L29.3566 18.5949ZM22.3403 18.9683L23.5413 19.2733L23.2953 20.3003L22.0953 19.9943L22.3403 18.9683ZM24.5174 19.5202L25.7184 19.8263L25.4724 20.8554L24.2704 20.5494L24.5174 19.5202ZM18.0413 20.0327L18.7001 20.2018L18.4551 21.2288L18.1829 21.1625C18.1159 20.7892 18.0686 20.4113 18.0413 20.0327ZM26.6945 20.0753L27.8955 20.3812L27.6495 21.4114L26.4475 21.1053L26.6945 20.0753ZM19.6752 20.4487L20.8772 20.7548L20.6322 21.7839L19.4301 21.4778L19.6752 20.4487ZM28.8696 20.6313L29.9722 20.9115C29.8446 21.2497 29.7091 21.5816 29.5564 21.897L28.6245 21.6604L28.8696 20.6313ZM21.8543 21.0038L23.0543 21.3097L22.8093 22.3389L21.6092 22.0328L21.8543 21.0038ZM24.0314 21.5587L25.2314 21.8648L24.9863 22.8918L23.7843 22.5857L24.0314 21.5587ZM26.2064 22.1117L27.4115 22.4177L27.1634 23.4469L25.9614 23.1418L26.2064 22.1117ZM19.1891 22.4852L20.3911 22.7911L20.1461 23.8183L18.9431 23.5122L19.1891 22.4852ZM28.3835 22.6678L29.0463 22.8358C28.8503 23.1568 28.6375 23.4664 28.4086 23.7632L28.1375 23.6948L28.3835 22.6698V22.6678ZM21.3682 23.0402L22.5682 23.3462L22.3232 24.3732L21.1222 24.0673L21.3682 23.0402ZM23.5443 23.5931L24.7453 23.8992L24.5003 24.9283L23.2973 24.6222L23.5443 23.5931ZM25.7194 24.1482L26.9244 24.4542L26.6774 25.4833L25.4744 25.1773L25.7194 24.1482ZM19.7203 24.7789L19.9041 24.8256L19.874 24.9553C19.8228 24.8961 19.7696 24.8411 19.7203 24.7789ZM20.8812 25.0746L22.0812 25.3806L21.8442 26.3734C21.4434 26.2214 21.0646 26.0134 20.7185 25.7551L20.8812 25.0746ZM23.0583 25.6296L24.2583 25.9356L24.0956 26.6161C23.6728 26.6777 23.244 26.6812 22.8203 26.6265L23.0583 25.6338V25.6296ZM25.2334 26.1845L25.4182 26.2313C25.3469 26.2624 25.2735 26.2842 25.2022 26.3122L25.2334 26.1845ZM20.3731 26.7542C20.7567 27.0135 21.1664 27.2262 21.6052 27.3818L20.4534 32.2006C20.7266 30.7337 20.9133 28.8259 20.3731 26.7542ZM22.5803 27.6297C23.0372 27.7013 23.4941 27.7107 23.949 27.6661C22.5341 29.2471 21.8422 31.0303 21.4245 32.462L22.5803 27.6297ZM30.2353 29.5012C29.2476 29.5028 28.3008 29.9089 27.6023 30.6303C26.9038 31.3517 26.5106 32.3297 26.5087 33.3501C26.5111 34.3701 26.9044 35.3476 27.6025 36.0689C28.3007 36.7901 29.2469 37.1964 30.2343 37.1989C31.2221 37.1969 32.1689 36.7909 32.8677 36.0696C33.5664 35.3483 33.9602 34.3705 33.9629 33.3501C33.9605 32.3297 33.5669 31.3519 32.8683 30.6305C32.1697 29.9092 31.223 29.5031 30.2353 29.5012ZM19.9603 33.6882C20.0273 33.6761 20.0961 33.6804 20.1612 33.7007L21.0107 33.9154C21.0755 33.9302 21.1367 33.9586 21.1905 33.9986C21.2444 34.0386 21.2899 34.0895 21.3241 34.1482C21.3584 34.2068 21.3808 34.2721 21.3899 34.34C21.3991 34.4079 21.3948 34.4769 21.3773 34.543L20.1321 39.7612C20.1177 39.8282 20.0903 39.8914 20.0516 39.947C20.0129 40.0027 19.9636 40.0497 19.9068 40.0851C19.85 40.1205 19.7868 40.1436 19.7211 40.1531C19.6554 40.1625 19.5885 40.158 19.5245 40.1399L18.675 39.9252C18.6101 39.9104 18.5488 39.882 18.4949 39.8419C18.4409 39.8018 18.3954 39.7509 18.3611 39.6921C18.3268 39.6333 18.3045 39.5679 18.2954 39.4999C18.2864 39.4319 18.2908 39.3627 18.3084 39.2965L19.5536 34.0782C19.5755 33.9787 19.6259 33.8882 19.6983 33.8186C19.7706 33.7491 19.8616 33.7036 19.9593 33.6882H19.9603Z" stroke="#575757" mask="url(#path-2-outside-1_212_761)"/>
</svg>
