<svg width="50" height="50" viewBox="0 0 50 50" fill="none" xmlns="http://www.w3.org/2000/svg">
<circle cx="25" cy="25" r="25" fill="#FCFCFC"/>
<path d="M31.0412 22.7585C28.7788 22.7372 26.5397 23.2781 24.5281 24.3244M31.0412 22.7585L31.0377 23.1334M31.0412 22.7585C31.0411 22.7585 31.0411 22.7585 31.0411 22.7585L31.0377 23.1334M31.0412 22.7585C32.8201 22.7746 34.5803 23.1354 36.2181 23.8097M24.5281 24.3244L31.0377 23.1334M24.5281 24.3244C23.2805 23.5218 22.2111 22.4986 21.3585 21.3232C25.0848 18.0311 30.497 17.4077 34.8834 19.818M24.5281 24.3244L34.8834 19.818M31.0377 23.1334C32.8397 23.1498 34.6224 23.5297 36.2717 24.2392C36.2564 24.0952 36.2385 23.9521 36.2181 23.8097M36.2181 23.8097C36.013 22.3816 35.5523 21.0351 34.8834 19.818M36.2181 23.8097C36.3527 23.8652 36.4866 23.9228 36.6195 23.9824C36.4209 22.3872 35.9137 20.8866 35.1592 19.5422L34.8834 19.818M24.4996 11.625C16.8488 11.625 10.625 17.8489 10.625 25.4999C10.625 33.1508 16.8488 39.3746 24.4996 39.3746C32.1509 39.3746 38.375 33.1508 38.375 25.4999C38.375 17.8489 32.1509 11.625 24.4996 11.625ZM29.688 24.8678C30.676 29.7419 28.5089 34.7415 24.2266 37.3348C22.7734 37.3017 21.3847 37.0058 20.1056 36.4926C21.5082 35.4116 22.7004 34.0678 23.6037 32.5355C24.753 30.5861 25.4044 28.3773 25.5041 26.1121C26.823 25.433 28.2437 25.0185 29.688 24.8678ZM24.4996 13.6607C27.5377 13.6607 30.3121 14.811 32.4109 16.6999C28.2023 15.6954 23.6921 16.7103 20.2942 19.5539C19.6013 18.1356 19.1881 16.5763 19.1045 14.9635C20.7232 14.1311 22.557 13.6607 24.4996 13.6607ZM14.3876 19.35C15.1247 18.1425 16.0719 17.0764 17.178 16.2032C17.4134 17.9566 17.9808 19.6591 18.8553 21.206C19.9688 23.1758 21.5563 24.8439 23.4679 26.0627C23.3967 27.5448 23.0453 28.9827 22.4536 30.309C17.7398 28.728 14.494 24.3534 14.3876 19.35ZM12.6607 25.4999C12.6607 24.6545 12.7499 23.8298 12.9192 23.0344C14.1506 27.188 17.287 30.5926 21.4534 32.1153C20.5721 33.4237 19.4293 34.5607 18.0754 35.4392C14.8184 33.3266 12.6607 29.6602 12.6607 25.4999ZM36.3239 26.0963C36.075 31.0869 32.7203 35.2745 28.157 36.7601C31.1372 33.617 32.5167 29.1994 31.7524 24.8308C33.3276 24.9399 34.8851 25.3618 36.3239 26.0963Z" fill="#575757" stroke="#575757" stroke-width="0.750014"/>
</svg>
